<svg xmlns="http://www.w3.org/2000/svg" version="1.1" xmlns:xlink="http://www.w3.org/1999/xlink" xmlns:svgjs="http://svgjs.com/svgjs" width="1440" height="560" preserveAspectRatio="none" viewBox="0 0 1440 560"><g mask="url(&quot;#SvgjsMask1025&quot;)" fill="none"><rect width="1440" height="560" x="0" y="0" fill="rgba(8, 25, 238, 0.29)"></rect><path d="M391.3461563288966 432.1295902472492L534.2079507052139 399.29072186061506 448.4652234764248 304.0637759447362z" fill="rgba(146, 126, 254, 0.69)" class="triangle-float1"></path><path d="M688.8769048168821 53.67455717601847L779.1238475668592 161.435073534561 823.1567664469817 46.725398073404705z" fill="rgba(146, 126, 254, 0.69)" class="triangle-float3"></path><path d="M1273.1073420991077 494.4841061374412L1378.0108773935049 381.98883731675966 1265.5156085728233 277.08530202236244 1160.6120732784261 389.580570843044z" fill="rgba(146, 126, 254, 0.69)" class="triangle-float3"></path><path d="M826.983969346526 247.047184203238L866.0316851643803 110.87161606105778 690.8084012043457 207.99946838538372z" fill="rgba(146, 126, 254, 0.69)" class="triangle-float1"></path><path d="M528.4471901951696 275.68306955956007L675.2623976780251 326.23559954675864 725.8149276652236 179.42039206390317 578.9997201823682 128.8678620767046z" fill="rgba(146, 126, 254, 0.69)" class="triangle-float3"></path><path d="M164.45190409210073 455.22605589187077L67.90781426568161 423.8569795523883 36.53873792619909 520.4010693788074 133.08282775261821 551.7701457182899z" fill="rgba(146, 126, 254, 0.69)" class="triangle-float3"></path><path d="M813.1146963944217 73.48386749249401L795.0486296978559-40.58078847716867 699.050040424759 91.54993418905983z" fill="rgba(146, 126, 254, 0.69)" class="triangle-float2"></path><path d="M1076.4976416089685 75.87953683702756L1122.2484526829028 173.99246780400486 1220.36138364988 128.24165673007056 1174.6105725759458 30.128725763093257z" fill="rgba(146, 126, 254, 0.69)" class="triangle-float3"></path><path d="M-13.081519480699935 482.64797505133134L-60.09393363313087 549.7886606152604 64.12330178897813 586.7369390619423z" fill="rgba(146, 126, 254, 0.69)" class="triangle-float1"></path><path d="M1214.2296139862613 5.53030177773455L1214.1370902770443 102.61488933945468 1288.3636483847245 61.47043632218269z" fill="rgba(146, 126, 254, 0.69)" class="triangle-float3"></path><path d="M821.7676918749305 232.06482287733547L723.1825920658368 275.95773725634905 838.3145135389041 401.8889297804827z" fill="rgba(146, 126, 254, 0.69)" class="triangle-float3"></path><path d="M1052.3324614319229 123.70039077964958L975.6359014698634 0.9602376136983395 852.8957483039121 77.65679757575788 929.5923082659716 200.39695074170913z" fill="rgba(146, 126, 254, 0.69)" class="triangle-float1"></path><path d="M107.44085396412494 279.9491813982535L-12.177076872262987 261.00356236995304-31.122695900563414 380.621493206341 88.49523493582453 399.5671122346414z" fill="rgba(146, 126, 254, 0.69)" class="triangle-float3"></path><path d="M170.76053300705945 301.7712973884311L167.0711687604964 404.6107618295832 247.2222820702007 363.7717297929772z" fill="rgba(146, 126, 254, 0.69)" class="triangle-float1"></path><path d="M94.09744239539837 262.91503521325586L57.95062763488459 357.0807070693828 188.26311425152534 299.06184997376965z" fill="rgba(146, 126, 254, 0.69)" class="triangle-float1"></path><path d="M597.599272667983 317.98864152723723L655.8005907664821 414.851901084325 752.6638503235697 356.65058298582596 694.4625322250707 259.7873234287382z" fill="rgba(146, 126, 254, 0.69)" class="triangle-float1"></path><path d="M241.0229622604648 399.25187625899457L248.9155403735521 343.093264921581 160.7313343108881 359.3337034206569z" fill="rgba(146, 126, 254, 0.69)" class="triangle-float3"></path><path d="M1148.0399880074813 432.01626510381453L1207.7368679694223 517.2722452301838 1292.9928480957915 457.57536526824276 1233.2959681338505 372.31938514187357z" fill="rgba(146, 126, 254, 0.69)" class="triangle-float3"></path><path d="M246.79225153419083 229.15348678284187L143.5438443353895 352.20014699164324 266.5905045441909 455.44855419044455 369.8389117429922 332.4018939816432z" fill="rgba(146, 126, 254, 0.69)" class="triangle-float2"></path></g><defs><mask id="SvgjsMask1025"><rect width="1440" height="560" fill="#ffffff"></rect></mask><style>
            @keyframes float1 {
                0%{transform: translate(0, 0)}
                50%{transform: translate(-10px, 0)}
                100%{transform: translate(0, 0)}
            }

            .triangle-float1 {
                animation: float1 5s infinite;
            }

            @keyframes float2 {
                0%{transform: translate(0, 0)}
                50%{transform: translate(-5px, -5px)}
                100%{transform: translate(0, 0)}
            }

            .triangle-float2 {
                animation: float2 4s infinite;
            }

            @keyframes float3 {
                0%{transform: translate(0, 0)}
                50%{transform: translate(0, -10px)}
                100%{transform: translate(0, 0)}
            }

            .triangle-float3 {
                animation: float3 6s infinite;
            }
        </style></defs></svg>