<svg width="375" height="812" viewBox="0 0 375 812" fill="none" xmlns="http://www.w3.org/2000/svg">
<rect y="0.000915527" width="375" height="812" rx="40" fill="white"/>
<rect y="0.000915527" width="375" height="812" rx="48" fill="white"/>
<mask id="mask0_117_323" style="mask-type:luminance" maskUnits="userSpaceOnUse" x="0" y="0" width="375" height="813">
<rect y="0.000915527" width="375" height="812" rx="48" fill="white"/>
</mask>
<g mask="url(#mask0_117_323)">
<path d="M-201.445 580.905C-303.372 478.978 -303.372 313.722 -201.445 211.795L-21.9854 32.3353C24.8775 -14.5276 100.857 -14.5275 147.72 32.3354L343.589 228.204C359.6 244.215 359.6 270.175 343.589 286.187L-76.2872 706.063L-201.445 580.905Z" fill="url(#paint0_linear_117_323)"/>
</g>
<g filter="url(#filter0_d_117_323)">
<rect x="21" y="315" width="339" height="291" rx="38" fill="white"/>
</g>
<rect x="44" y="352" width="295" height="50" rx="25" fill="#FAFAFA"/>
<rect x="44.5" y="352.5" width="294" height="49" rx="24.5" stroke="black" stroke-opacity="0.13"/>
<rect x="44" y="508" width="295" height="50" rx="25" fill="url(#paint1_linear_117_323)"/>
<path opacity="0.3" d="M74.1074 382V371.979H81.3535V373.161H75.4336V376.23H80.9775V377.406H75.4336V380.817H81.5859V382H74.1074ZM83.2607 382V374.74H84.3613V375.759C84.5892 375.403 84.8923 375.118 85.2705 374.904C85.6488 374.686 86.0794 374.576 86.5625 374.576C87.1003 374.576 87.54 374.688 87.8818 374.911C88.2282 375.134 88.472 375.447 88.6133 375.848C89.1875 375 89.9349 374.576 90.8555 374.576C91.5755 374.576 92.1292 374.777 92.5166 375.178C92.904 375.574 93.0977 376.187 93.0977 377.017V382H91.874V377.427C91.874 376.935 91.833 376.581 91.751 376.367C91.6735 376.148 91.5299 375.973 91.3203 375.841C91.1107 375.709 90.8646 375.643 90.582 375.643C90.0716 375.643 89.6478 375.813 89.3105 376.155C88.9733 376.493 88.8047 377.035 88.8047 377.782V382H87.5742V377.283C87.5742 376.736 87.474 376.326 87.2734 376.053C87.0729 375.779 86.7448 375.643 86.2891 375.643C85.9427 375.643 85.6214 375.734 85.3252 375.916C85.0335 376.098 84.8216 376.365 84.6895 376.716C84.5573 377.067 84.4912 377.573 84.4912 378.233V382H83.2607ZM99.6602 381.104C99.2044 381.492 98.7646 381.765 98.3408 381.925C97.9215 382.084 97.4704 382.164 96.9873 382.164C96.1898 382.164 95.5768 381.97 95.1484 381.583C94.7201 381.191 94.5059 380.692 94.5059 380.086C94.5059 379.73 94.5856 379.407 94.7451 379.115C94.9092 378.819 95.1211 378.582 95.3809 378.404C95.6452 378.227 95.9414 378.092 96.2695 378.001C96.5111 377.937 96.8757 377.876 97.3633 377.816C98.3568 377.698 99.0882 377.557 99.5576 377.393C99.5622 377.224 99.5645 377.117 99.5645 377.071C99.5645 376.57 99.4482 376.217 99.2158 376.012C98.9014 375.734 98.4342 375.595 97.8145 375.595C97.2357 375.595 96.8073 375.697 96.5293 375.902C96.2559 376.103 96.0531 376.461 95.9209 376.976L94.7178 376.812C94.8271 376.297 95.0072 375.882 95.2578 375.567C95.5085 375.248 95.8708 375.005 96.3447 374.836C96.8187 374.663 97.3678 374.576 97.9922 374.576C98.612 374.576 99.1156 374.649 99.5029 374.795C99.8903 374.941 100.175 375.125 100.357 375.349C100.54 375.567 100.667 375.845 100.74 376.183C100.781 376.392 100.802 376.771 100.802 377.317V378.958C100.802 380.102 100.827 380.826 100.877 381.132C100.932 381.433 101.036 381.722 101.191 382H99.9062C99.7786 381.745 99.6966 381.446 99.6602 381.104ZM99.5576 378.356C99.111 378.539 98.4411 378.694 97.5479 378.821C97.042 378.894 96.6842 378.976 96.4746 379.067C96.265 379.159 96.1032 379.293 95.9893 379.471C95.8753 379.644 95.8184 379.838 95.8184 380.052C95.8184 380.38 95.9414 380.653 96.1875 380.872C96.4382 381.091 96.8027 381.2 97.2812 381.2C97.7552 381.2 98.1768 381.098 98.5459 380.893C98.915 380.683 99.1862 380.398 99.3594 380.038C99.4915 379.76 99.5576 379.35 99.5576 378.808V378.356ZM102.723 373.394V371.979H103.953V373.394H102.723ZM102.723 382V374.74H103.953V382H102.723ZM105.806 382V371.979H107.036V382H105.806Z" fill="black"/>
<rect x="44" y="414" width="295" height="50" rx="25" fill="#FAFAFA"/>
<rect x="44.5" y="414.5" width="294" height="49" rx="24.5" stroke="black" stroke-opacity="0.13"/>
<path opacity="0.3" d="M73.0801 446V435.979H76.8604C77.5257 435.979 78.0339 436.01 78.3848 436.074C78.877 436.156 79.2894 436.313 79.6221 436.546C79.9548 436.774 80.2214 437.095 80.4219 437.51C80.627 437.924 80.7295 438.38 80.7295 438.877C80.7295 439.729 80.4583 440.451 79.916 441.044C79.3737 441.632 78.3939 441.926 76.9766 441.926H74.4062V446H73.0801ZM74.4062 440.743H76.9971C77.8538 440.743 78.4622 440.584 78.8223 440.265C79.1823 439.946 79.3623 439.497 79.3623 438.918C79.3623 438.499 79.2552 438.141 79.041 437.845C78.8314 437.544 78.5534 437.346 78.207 437.25C77.9837 437.191 77.5713 437.161 76.9697 437.161H74.4062V440.743ZM86.998 445.104C86.5423 445.492 86.1025 445.765 85.6787 445.925C85.2594 446.084 84.8083 446.164 84.3252 446.164C83.5277 446.164 82.9147 445.97 82.4863 445.583C82.0579 445.191 81.8438 444.692 81.8438 444.086C81.8438 443.73 81.9235 443.407 82.083 443.115C82.2471 442.819 82.459 442.582 82.7188 442.404C82.9831 442.227 83.2793 442.092 83.6074 442.001C83.849 441.937 84.2135 441.876 84.7012 441.816C85.6947 441.698 86.4261 441.557 86.8955 441.393C86.9001 441.224 86.9023 441.117 86.9023 441.071C86.9023 440.57 86.7861 440.217 86.5537 440.012C86.2393 439.734 85.7721 439.595 85.1523 439.595C84.5736 439.595 84.1452 439.697 83.8672 439.902C83.5938 440.103 83.391 440.461 83.2588 440.976L82.0557 440.812C82.165 440.297 82.3451 439.882 82.5957 439.567C82.8464 439.248 83.2087 439.005 83.6826 438.836C84.1566 438.663 84.7057 438.576 85.3301 438.576C85.9499 438.576 86.4535 438.649 86.8408 438.795C87.2282 438.941 87.513 439.125 87.6953 439.349C87.8776 439.567 88.0052 439.845 88.0781 440.183C88.1191 440.392 88.1396 440.771 88.1396 441.317V442.958C88.1396 444.102 88.1647 444.826 88.2148 445.132C88.2695 445.433 88.3743 445.722 88.5293 446H87.2441C87.1165 445.745 87.0345 445.446 86.998 445.104ZM86.8955 442.356C86.4489 442.539 85.779 442.694 84.8857 442.821C84.3799 442.894 84.0221 442.976 83.8125 443.067C83.6029 443.159 83.4411 443.293 83.3271 443.471C83.2132 443.644 83.1562 443.838 83.1562 444.052C83.1562 444.38 83.2793 444.653 83.5254 444.872C83.776 445.091 84.1406 445.2 84.6191 445.2C85.0931 445.2 85.5146 445.098 85.8838 444.893C86.2529 444.683 86.5241 444.398 86.6973 444.038C86.8294 443.76 86.8955 443.35 86.8955 442.808V442.356ZM89.5615 443.833L90.7783 443.642C90.8467 444.129 91.0358 444.503 91.3457 444.763C91.6602 445.022 92.0977 445.152 92.6582 445.152C93.2233 445.152 93.6426 445.038 93.916 444.811C94.1895 444.578 94.3262 444.307 94.3262 443.997C94.3262 443.719 94.2054 443.5 93.9639 443.341C93.7952 443.231 93.376 443.092 92.7061 442.924C91.8037 442.696 91.1771 442.5 90.8262 442.336C90.4798 442.167 90.2155 441.937 90.0332 441.646C89.8555 441.349 89.7666 441.023 89.7666 440.668C89.7666 440.344 89.8395 440.046 89.9854 439.772C90.1357 439.494 90.3385 439.264 90.5938 439.082C90.7852 438.941 91.0449 438.822 91.373 438.727C91.7057 438.626 92.0612 438.576 92.4395 438.576C93.0091 438.576 93.5081 438.658 93.9365 438.822C94.3695 438.986 94.6885 439.21 94.8936 439.492C95.0986 439.77 95.2399 440.144 95.3174 440.613L94.1143 440.777C94.0596 440.404 93.9001 440.112 93.6357 439.902C93.376 439.693 93.0068 439.588 92.5283 439.588C91.9632 439.588 91.5599 439.681 91.3184 439.868C91.0768 440.055 90.9561 440.274 90.9561 440.524C90.9561 440.684 91.0062 440.827 91.1064 440.955C91.2067 441.087 91.3639 441.197 91.5781 441.283C91.7012 441.329 92.0635 441.434 92.665 441.598C93.5355 441.83 94.1416 442.021 94.4834 442.172C94.8298 442.318 95.1009 442.532 95.2969 442.814C95.4928 443.097 95.5908 443.448 95.5908 443.867C95.5908 444.277 95.4701 444.665 95.2285 445.029C94.9915 445.389 94.6475 445.67 94.1963 445.87C93.7451 446.066 93.2347 446.164 92.665 446.164C91.7217 446.164 91.0016 445.968 90.5049 445.576C90.0127 445.184 89.6982 444.603 89.5615 443.833ZM96.5615 443.833L97.7783 443.642C97.8467 444.129 98.0358 444.503 98.3457 444.763C98.6602 445.022 99.0977 445.152 99.6582 445.152C100.223 445.152 100.643 445.038 100.916 444.811C101.189 444.578 101.326 444.307 101.326 443.997C101.326 443.719 101.205 443.5 100.964 443.341C100.795 443.231 100.376 443.092 99.7061 442.924C98.8037 442.696 98.1771 442.5 97.8262 442.336C97.4798 442.167 97.2155 441.937 97.0332 441.646C96.8555 441.349 96.7666 441.023 96.7666 440.668C96.7666 440.344 96.8395 440.046 96.9854 439.772C97.1357 439.494 97.3385 439.264 97.5938 439.082C97.7852 438.941 98.0449 438.822 98.373 438.727C98.7057 438.626 99.0612 438.576 99.4395 438.576C100.009 438.576 100.508 438.658 100.937 438.822C101.369 438.986 101.688 439.21 101.894 439.492C102.099 439.77 102.24 440.144 102.317 440.613L101.114 440.777C101.06 440.404 100.9 440.112 100.636 439.902C100.376 439.693 100.007 439.588 99.5283 439.588C98.9632 439.588 98.5599 439.681 98.3184 439.868C98.0768 440.055 97.9561 440.274 97.9561 440.524C97.9561 440.684 98.0062 440.827 98.1064 440.955C98.2067 441.087 98.3639 441.197 98.5781 441.283C98.7012 441.329 99.0635 441.434 99.665 441.598C100.535 441.83 101.142 442.021 101.483 442.172C101.83 442.318 102.101 442.532 102.297 442.814C102.493 443.097 102.591 443.448 102.591 443.867C102.591 444.277 102.47 444.665 102.229 445.029C101.992 445.389 101.647 445.67 101.196 445.87C100.745 446.066 100.235 446.164 99.665 446.164C98.7217 446.164 98.0016 445.968 97.5049 445.576C97.0127 445.184 96.6982 444.603 96.5615 443.833ZM105.394 446L103.172 438.74H104.443L105.599 442.931L106.029 444.489C106.048 444.412 106.173 443.913 106.405 442.992L107.561 438.74H108.825L109.912 442.951L110.274 444.339L110.691 442.938L111.936 438.74H113.132L110.862 446H109.584L108.429 441.652L108.148 440.415L106.679 446H105.394ZM113.713 442.37C113.713 441.026 114.087 440.03 114.834 439.383C115.458 438.845 116.219 438.576 117.117 438.576C118.115 438.576 118.931 438.904 119.564 439.561C120.198 440.212 120.515 441.115 120.515 442.268C120.515 443.202 120.373 443.938 120.091 444.476C119.813 445.009 119.405 445.424 118.867 445.72C118.334 446.016 117.751 446.164 117.117 446.164C116.101 446.164 115.278 445.838 114.649 445.187C114.025 444.535 113.713 443.596 113.713 442.37ZM114.978 442.37C114.978 443.3 115.18 443.997 115.586 444.462C115.992 444.922 116.502 445.152 117.117 445.152C117.728 445.152 118.236 444.92 118.642 444.455C119.047 443.99 119.25 443.282 119.25 442.329C119.25 441.431 119.045 440.752 118.635 440.292C118.229 439.827 117.723 439.595 117.117 439.595C116.502 439.595 115.992 439.825 115.586 440.285C115.18 440.745 114.978 441.44 114.978 442.37ZM121.95 446V438.74H123.058V439.841C123.34 439.326 123.6 438.986 123.837 438.822C124.078 438.658 124.343 438.576 124.63 438.576C125.045 438.576 125.466 438.708 125.895 438.973L125.471 440.114C125.17 439.937 124.869 439.848 124.568 439.848C124.299 439.848 124.058 439.93 123.844 440.094C123.63 440.253 123.477 440.477 123.386 440.764C123.249 441.201 123.181 441.68 123.181 442.199V446H121.95ZM131.336 446V445.084C130.876 445.804 130.199 446.164 129.306 446.164C128.727 446.164 128.194 446.005 127.706 445.686C127.223 445.367 126.847 444.922 126.578 444.353C126.314 443.778 126.182 443.12 126.182 442.377C126.182 441.652 126.302 440.996 126.544 440.408C126.785 439.816 127.148 439.362 127.631 439.048C128.114 438.733 128.654 438.576 129.251 438.576C129.688 438.576 130.078 438.67 130.42 438.856C130.762 439.039 131.04 439.278 131.254 439.574V435.979H132.478V446H131.336ZM127.446 442.377C127.446 443.307 127.642 444.002 128.034 444.462C128.426 444.922 128.889 445.152 129.422 445.152C129.96 445.152 130.415 444.934 130.789 444.496C131.167 444.054 131.356 443.382 131.356 442.479C131.356 441.486 131.165 440.757 130.782 440.292C130.399 439.827 129.928 439.595 129.367 439.595C128.82 439.595 128.362 439.818 127.993 440.265C127.629 440.711 127.446 441.415 127.446 442.377Z" fill="black"/>
<path opacity="0.3" d="M74.1484 584V573.979H80.9092V575.161H75.4746V578.265H80.1777V579.447H75.4746V584H74.1484ZM82.0234 580.37C82.0234 579.026 82.3971 578.03 83.1445 577.383C83.7689 576.845 84.5299 576.576 85.4277 576.576C86.4258 576.576 87.2415 576.904 87.875 577.561C88.5085 578.212 88.8252 579.115 88.8252 580.268C88.8252 581.202 88.6839 581.938 88.4014 582.476C88.1234 583.009 87.7155 583.424 87.1777 583.72C86.6445 584.016 86.0612 584.164 85.4277 584.164C84.4115 584.164 83.5889 583.838 82.96 583.187C82.3356 582.535 82.0234 581.596 82.0234 580.37ZM83.2881 580.37C83.2881 581.3 83.4909 581.997 83.8965 582.462C84.3021 582.922 84.8125 583.152 85.4277 583.152C86.0384 583.152 86.5465 582.92 86.9521 582.455C87.3577 581.99 87.5605 581.282 87.5605 580.329C87.5605 579.431 87.3555 578.752 86.9453 578.292C86.5397 577.827 86.0339 577.595 85.4277 577.595C84.8125 577.595 84.3021 577.825 83.8965 578.285C83.4909 578.745 83.2881 579.44 83.2881 580.37ZM90.2607 584V576.74H91.3682V577.841C91.6507 577.326 91.9105 576.986 92.1475 576.822C92.389 576.658 92.6533 576.576 92.9404 576.576C93.3551 576.576 93.7767 576.708 94.2051 576.973L93.7812 578.114C93.4805 577.937 93.1797 577.848 92.8789 577.848C92.61 577.848 92.3685 577.93 92.1543 578.094C91.9401 578.253 91.7874 578.477 91.6963 578.764C91.5596 579.201 91.4912 579.68 91.4912 580.199V584H90.2607ZM94.7109 584.602L95.9072 584.779C95.9574 585.148 96.0964 585.417 96.3242 585.586C96.6296 585.814 97.0465 585.928 97.5752 585.928C98.1449 585.928 98.5846 585.814 98.8945 585.586C99.2044 585.358 99.4141 585.039 99.5234 584.629C99.5872 584.378 99.6169 583.852 99.6123 583.05C99.0745 583.683 98.4046 584 97.6025 584C96.6045 584 95.832 583.64 95.2852 582.92C94.7383 582.2 94.4648 581.336 94.4648 580.329C94.4648 579.636 94.5902 578.998 94.8408 578.415C95.0915 577.827 95.4538 577.374 95.9277 577.055C96.4062 576.736 96.9668 576.576 97.6094 576.576C98.4661 576.576 99.1725 576.923 99.7285 577.615V576.74H100.863V583.016C100.863 584.146 100.747 584.946 100.515 585.415C100.287 585.889 99.9222 586.263 99.4209 586.536C98.9242 586.81 98.3112 586.946 97.582 586.946C96.7161 586.946 96.0166 586.75 95.4834 586.358C94.9502 585.971 94.6927 585.385 94.7109 584.602ZM95.7295 580.24C95.7295 581.193 95.9186 581.888 96.2969 582.325C96.6751 582.763 97.1491 582.981 97.7188 582.981C98.2839 582.981 98.7578 582.765 99.1406 582.332C99.5234 581.895 99.7148 581.211 99.7148 580.281C99.7148 579.393 99.5166 578.723 99.1201 578.271C98.7282 577.82 98.2542 577.595 97.6982 577.595C97.1514 577.595 96.6865 577.818 96.3037 578.265C95.9209 578.707 95.7295 579.365 95.7295 580.24ZM102.271 580.37C102.271 579.026 102.645 578.03 103.393 577.383C104.017 576.845 104.778 576.576 105.676 576.576C106.674 576.576 107.49 576.904 108.123 577.561C108.757 578.212 109.073 579.115 109.073 580.268C109.073 581.202 108.932 581.938 108.649 582.476C108.371 583.009 107.964 583.424 107.426 583.72C106.893 584.016 106.309 584.164 105.676 584.164C104.66 584.164 103.837 583.838 103.208 583.187C102.584 582.535 102.271 581.596 102.271 580.37ZM103.536 580.37C103.536 581.3 103.739 581.997 104.145 582.462C104.55 582.922 105.061 583.152 105.676 583.152C106.286 583.152 106.795 582.92 107.2 582.455C107.606 581.99 107.809 581.282 107.809 580.329C107.809 579.431 107.604 578.752 107.193 578.292C106.788 577.827 106.282 577.595 105.676 577.595C105.061 577.595 104.55 577.825 104.145 578.285C103.739 578.745 103.536 579.44 103.536 580.37ZM113.209 582.899L113.387 583.986C113.04 584.059 112.73 584.096 112.457 584.096C112.01 584.096 111.664 584.025 111.418 583.884C111.172 583.743 110.999 583.558 110.898 583.33C110.798 583.098 110.748 582.612 110.748 581.874V577.697H109.846V576.74H110.748V574.942L111.972 574.204V576.74H113.209V577.697H111.972V581.942C111.972 582.293 111.992 582.519 112.033 582.619C112.079 582.719 112.149 582.799 112.245 582.858C112.345 582.918 112.487 582.947 112.669 582.947C112.806 582.947 112.986 582.931 113.209 582.899ZM118.473 584V573.979H122.253C122.918 573.979 123.426 574.01 123.777 574.074C124.27 574.156 124.682 574.313 125.015 574.546C125.347 574.774 125.614 575.095 125.814 575.51C126.02 575.924 126.122 576.38 126.122 576.877C126.122 577.729 125.851 578.451 125.309 579.044C124.766 579.632 123.786 579.926 122.369 579.926H119.799V584H118.473ZM119.799 578.743H122.39C123.246 578.743 123.855 578.584 124.215 578.265C124.575 577.946 124.755 577.497 124.755 576.918C124.755 576.499 124.648 576.141 124.434 575.845C124.224 575.544 123.946 575.346 123.6 575.25C123.376 575.191 122.964 575.161 122.362 575.161H119.799V578.743ZM132.391 583.104C131.935 583.492 131.495 583.765 131.071 583.925C130.652 584.084 130.201 584.164 129.718 584.164C128.92 584.164 128.307 583.97 127.879 583.583C127.451 583.191 127.236 582.692 127.236 582.086C127.236 581.73 127.316 581.407 127.476 581.115C127.64 580.819 127.852 580.582 128.111 580.404C128.376 580.227 128.672 580.092 129 580.001C129.242 579.937 129.606 579.876 130.094 579.816C131.087 579.698 131.819 579.557 132.288 579.393C132.293 579.224 132.295 579.117 132.295 579.071C132.295 578.57 132.179 578.217 131.946 578.012C131.632 577.734 131.165 577.595 130.545 577.595C129.966 577.595 129.538 577.697 129.26 577.902C128.986 578.103 128.784 578.461 128.651 578.976L127.448 578.812C127.558 578.297 127.738 577.882 127.988 577.567C128.239 577.248 128.601 577.005 129.075 576.836C129.549 576.663 130.098 576.576 130.723 576.576C131.342 576.576 131.846 576.649 132.233 576.795C132.621 576.941 132.906 577.125 133.088 577.349C133.27 577.567 133.398 577.845 133.471 578.183C133.512 578.392 133.532 578.771 133.532 579.317V580.958C133.532 582.102 133.557 582.826 133.607 583.132C133.662 583.433 133.767 583.722 133.922 584H132.637C132.509 583.745 132.427 583.446 132.391 583.104ZM132.288 580.356C131.841 580.539 131.172 580.694 130.278 580.821C129.772 580.894 129.415 580.976 129.205 581.067C128.995 581.159 128.834 581.293 128.72 581.471C128.606 581.644 128.549 581.838 128.549 582.052C128.549 582.38 128.672 582.653 128.918 582.872C129.169 583.091 129.533 583.2 130.012 583.2C130.486 583.2 130.907 583.098 131.276 582.893C131.646 582.683 131.917 582.398 132.09 582.038C132.222 581.76 132.288 581.35 132.288 580.808V580.356ZM134.954 581.833L136.171 581.642C136.239 582.129 136.428 582.503 136.738 582.763C137.053 583.022 137.49 583.152 138.051 583.152C138.616 583.152 139.035 583.038 139.309 582.811C139.582 582.578 139.719 582.307 139.719 581.997C139.719 581.719 139.598 581.5 139.356 581.341C139.188 581.231 138.769 581.092 138.099 580.924C137.196 580.696 136.57 580.5 136.219 580.336C135.872 580.167 135.608 579.937 135.426 579.646C135.248 579.349 135.159 579.023 135.159 578.668C135.159 578.344 135.232 578.046 135.378 577.772C135.528 577.494 135.731 577.264 135.986 577.082C136.178 576.941 136.438 576.822 136.766 576.727C137.098 576.626 137.454 576.576 137.832 576.576C138.402 576.576 138.901 576.658 139.329 576.822C139.762 576.986 140.081 577.21 140.286 577.492C140.491 577.77 140.632 578.144 140.71 578.613L139.507 578.777C139.452 578.404 139.293 578.112 139.028 577.902C138.769 577.693 138.399 577.588 137.921 577.588C137.356 577.588 136.952 577.681 136.711 577.868C136.469 578.055 136.349 578.274 136.349 578.524C136.349 578.684 136.399 578.827 136.499 578.955C136.599 579.087 136.757 579.197 136.971 579.283C137.094 579.329 137.456 579.434 138.058 579.598C138.928 579.83 139.534 580.021 139.876 580.172C140.222 580.318 140.493 580.532 140.689 580.814C140.885 581.097 140.983 581.448 140.983 581.867C140.983 582.277 140.863 582.665 140.621 583.029C140.384 583.389 140.04 583.67 139.589 583.87C139.138 584.066 138.627 584.164 138.058 584.164C137.114 584.164 136.394 583.968 135.897 583.576C135.405 583.184 135.091 582.603 134.954 581.833ZM141.954 581.833L143.171 581.642C143.239 582.129 143.428 582.503 143.738 582.763C144.053 583.022 144.49 583.152 145.051 583.152C145.616 583.152 146.035 583.038 146.309 582.811C146.582 582.578 146.719 582.307 146.719 581.997C146.719 581.719 146.598 581.5 146.356 581.341C146.188 581.231 145.769 581.092 145.099 580.924C144.196 580.696 143.57 580.5 143.219 580.336C142.872 580.167 142.608 579.937 142.426 579.646C142.248 579.349 142.159 579.023 142.159 578.668C142.159 578.344 142.232 578.046 142.378 577.772C142.528 577.494 142.731 577.264 142.986 577.082C143.178 576.941 143.438 576.822 143.766 576.727C144.098 576.626 144.454 576.576 144.832 576.576C145.402 576.576 145.901 576.658 146.329 576.822C146.762 576.986 147.081 577.21 147.286 577.492C147.491 577.77 147.632 578.144 147.71 578.613L146.507 578.777C146.452 578.404 146.293 578.112 146.028 577.902C145.769 577.693 145.399 577.588 144.921 577.588C144.356 577.588 143.952 577.681 143.711 577.868C143.469 578.055 143.349 578.274 143.349 578.524C143.349 578.684 143.399 578.827 143.499 578.955C143.599 579.087 143.757 579.197 143.971 579.283C144.094 579.329 144.456 579.434 145.058 579.598C145.928 579.83 146.534 580.021 146.876 580.172C147.222 580.318 147.493 580.532 147.689 580.814C147.885 581.097 147.983 581.448 147.983 581.867C147.983 582.277 147.863 582.665 147.621 583.029C147.384 583.389 147.04 583.67 146.589 583.87C146.138 584.066 145.627 584.164 145.058 584.164C144.114 584.164 143.394 583.968 142.897 583.576C142.405 583.184 142.091 582.603 141.954 581.833ZM150.786 584L148.564 576.74H149.836L150.991 580.931L151.422 582.489C151.44 582.412 151.565 581.913 151.798 580.992L152.953 576.74H154.218L155.305 580.951L155.667 582.339L156.084 580.938L157.328 576.74H158.524L156.255 584H154.977L153.821 579.652L153.541 578.415L152.071 584H150.786ZM159.105 580.37C159.105 579.026 159.479 578.03 160.227 577.383C160.851 576.845 161.612 576.576 162.51 576.576C163.508 576.576 164.324 576.904 164.957 577.561C165.59 578.212 165.907 579.115 165.907 580.268C165.907 581.202 165.766 581.938 165.483 582.476C165.205 583.009 164.798 583.424 164.26 583.72C163.727 584.016 163.143 584.164 162.51 584.164C161.493 584.164 160.671 583.838 160.042 583.187C159.418 582.535 159.105 581.596 159.105 580.37ZM160.37 580.37C160.37 581.3 160.573 581.997 160.979 582.462C161.384 582.922 161.895 583.152 162.51 583.152C163.12 583.152 163.629 582.92 164.034 582.455C164.44 581.99 164.643 581.282 164.643 580.329C164.643 579.431 164.438 578.752 164.027 578.292C163.622 577.827 163.116 577.595 162.51 577.595C161.895 577.595 161.384 577.825 160.979 578.285C160.573 578.745 160.37 579.44 160.37 580.37ZM167.343 584V576.74H168.45V577.841C168.733 577.326 168.993 576.986 169.229 576.822C169.471 576.658 169.735 576.576 170.022 576.576C170.437 576.576 170.859 576.708 171.287 576.973L170.863 578.114C170.562 577.937 170.262 577.848 169.961 577.848C169.692 577.848 169.451 577.93 169.236 578.094C169.022 578.253 168.869 578.477 168.778 578.764C168.642 579.201 168.573 579.68 168.573 580.199V584H167.343ZM176.729 584V583.084C176.268 583.804 175.591 584.164 174.698 584.164C174.119 584.164 173.586 584.005 173.099 583.686C172.616 583.367 172.24 582.922 171.971 582.353C171.706 581.778 171.574 581.12 171.574 580.377C171.574 579.652 171.695 578.996 171.937 578.408C172.178 577.816 172.54 577.362 173.023 577.048C173.507 576.733 174.047 576.576 174.644 576.576C175.081 576.576 175.471 576.67 175.812 576.856C176.154 577.039 176.432 577.278 176.646 577.574V573.979H177.87V584H176.729ZM172.839 580.377C172.839 581.307 173.035 582.002 173.427 582.462C173.819 582.922 174.281 583.152 174.814 583.152C175.352 583.152 175.808 582.934 176.182 582.496C176.56 582.054 176.749 581.382 176.749 580.479C176.749 579.486 176.558 578.757 176.175 578.292C175.792 577.827 175.32 577.595 174.76 577.595C174.213 577.595 173.755 577.818 173.386 578.265C173.021 578.711 172.839 579.415 172.839 580.377ZM186.012 581.532C186.007 581.368 186.005 581.245 186.005 581.163C186.005 580.68 186.073 580.263 186.21 579.912C186.31 579.648 186.472 579.381 186.695 579.112C186.859 578.916 187.153 578.632 187.577 578.258C188.006 577.88 188.284 577.579 188.411 577.355C188.539 577.132 188.603 576.888 188.603 576.624C188.603 576.146 188.416 575.726 188.042 575.366C187.668 575.002 187.21 574.819 186.668 574.819C186.144 574.819 185.706 574.983 185.355 575.312C185.005 575.64 184.774 576.152 184.665 576.85L183.4 576.699C183.514 575.765 183.852 575.049 184.412 574.553C184.977 574.056 185.722 573.808 186.647 573.808C187.627 573.808 188.409 574.074 188.992 574.607C189.576 575.141 189.867 575.785 189.867 576.542C189.867 576.979 189.765 577.383 189.56 577.752C189.354 578.121 188.953 578.57 188.356 579.099C187.955 579.454 187.693 579.716 187.57 579.885C187.447 580.053 187.356 580.247 187.297 580.466C187.238 580.685 187.203 581.04 187.194 581.532H186.012ZM185.937 584V582.599H187.338V584H185.937Z" fill="black"/>
<path fill-rule="evenodd" clip-rule="evenodd" d="M68.7788 577.957V575.646C68.7788 573.081 66.7011 571 64.155 571C61.6089 571 59.5312 573.081 59.5312 575.646V577.957H58V586.488H70.31V577.957H68.7788ZM61.0925 575.646C61.0925 573.934 62.4556 572.549 64.155 572.549C65.8544 572.549 67.2175 573.934 67.2175 575.646V577.957H61.0925V575.646Z" fill="#337AB7"/>
<path d="M168.711 539V527.641H171.023V537.07H176.773V539H168.711ZM177.906 534.734C177.906 534.005 178.086 533.299 178.445 532.617C178.805 531.935 179.312 531.414 179.969 531.055C180.63 530.695 181.367 530.516 182.18 530.516C183.435 530.516 184.464 530.924 185.266 531.742C186.068 532.555 186.469 533.583 186.469 534.828C186.469 536.083 186.062 537.125 185.25 537.953C184.443 538.776 183.424 539.188 182.195 539.188C181.435 539.188 180.708 539.016 180.016 538.672C179.328 538.328 178.805 537.826 178.445 537.164C178.086 536.497 177.906 535.688 177.906 534.734ZM180.156 534.852C180.156 535.674 180.352 536.305 180.742 536.742C181.133 537.18 181.615 537.398 182.188 537.398C182.76 537.398 183.24 537.18 183.625 536.742C184.016 536.305 184.211 535.669 184.211 534.836C184.211 534.023 184.016 533.398 183.625 532.961C183.24 532.523 182.76 532.305 182.188 532.305C181.615 532.305 181.133 532.523 180.742 532.961C180.352 533.398 180.156 534.029 180.156 534.852ZM187.992 539.547L190.5 539.852C190.542 540.143 190.638 540.344 190.789 540.453C190.997 540.609 191.326 540.688 191.773 540.688C192.346 540.688 192.776 540.602 193.062 540.43C193.255 540.315 193.401 540.13 193.5 539.875C193.568 539.693 193.602 539.357 193.602 538.867V537.656C192.945 538.552 192.117 539 191.117 539C190.003 539 189.12 538.529 188.469 537.586C187.958 536.841 187.703 535.914 187.703 534.805C187.703 533.414 188.036 532.352 188.703 531.617C189.375 530.883 190.208 530.516 191.203 530.516C192.229 530.516 193.076 530.966 193.742 531.867V530.703H195.797V538.148C195.797 539.128 195.716 539.859 195.555 540.344C195.393 540.828 195.167 541.208 194.875 541.484C194.583 541.76 194.193 541.977 193.703 542.133C193.219 542.289 192.604 542.367 191.859 542.367C190.453 542.367 189.456 542.125 188.867 541.641C188.279 541.161 187.984 540.552 187.984 539.812C187.984 539.74 187.987 539.651 187.992 539.547ZM189.953 534.68C189.953 535.56 190.122 536.206 190.461 536.617C190.805 537.023 191.227 537.227 191.727 537.227C192.263 537.227 192.716 537.018 193.086 536.602C193.456 536.18 193.641 535.557 193.641 534.734C193.641 533.875 193.464 533.237 193.109 532.82C192.755 532.404 192.307 532.195 191.766 532.195C191.24 532.195 190.805 532.401 190.461 532.812C190.122 533.219 189.953 533.841 189.953 534.68ZM202.375 539V527.547H204.688V539H202.375ZM214.43 539H212.234V534.766C212.234 533.87 212.188 533.292 212.094 533.031C212 532.766 211.846 532.56 211.633 532.414C211.424 532.268 211.172 532.195 210.875 532.195C210.495 532.195 210.154 532.299 209.852 532.508C209.549 532.716 209.341 532.992 209.227 533.336C209.117 533.68 209.062 534.315 209.062 535.242V539H206.867V530.703H208.906V531.922C209.63 530.984 210.542 530.516 211.641 530.516C212.125 530.516 212.568 530.604 212.969 530.781C213.37 530.953 213.672 531.174 213.875 531.445C214.083 531.716 214.227 532.023 214.305 532.367C214.388 532.711 214.43 533.203 214.43 533.844V539Z" fill="white"/>
<path opacity="0.7" d="M74.1006 490V479.979H78.5439C79.4372 479.979 80.1162 480.07 80.5811 480.252C81.0459 480.43 81.4173 480.746 81.6953 481.202C81.9733 481.658 82.1123 482.161 82.1123 482.713C82.1123 483.424 81.8822 484.023 81.4219 484.511C80.9616 484.998 80.2507 485.308 79.2891 485.44C79.64 485.609 79.9066 485.775 80.0889 485.939C80.4762 486.295 80.8431 486.739 81.1895 487.272L82.9326 490H81.2646L79.9385 487.915C79.5511 487.313 79.2321 486.853 78.9814 486.534C78.7308 486.215 78.5052 485.992 78.3047 485.864C78.1087 485.737 77.9082 485.648 77.7031 485.598C77.5527 485.566 77.3066 485.55 76.9648 485.55H75.4268V490H74.1006ZM75.4268 484.401H78.2773C78.8835 484.401 79.3574 484.34 79.6992 484.217C80.041 484.089 80.3008 483.889 80.4785 483.615C80.6562 483.337 80.7451 483.036 80.7451 482.713C80.7451 482.239 80.5719 481.849 80.2256 481.544C79.8838 481.239 79.3415 481.086 78.5986 481.086H75.4268V484.401ZM89.0098 487.662L90.2812 487.819C90.0807 488.562 89.7093 489.139 89.167 489.549C88.6247 489.959 87.932 490.164 87.0889 490.164C86.027 490.164 85.1839 489.838 84.5596 489.187C83.9398 488.53 83.6299 487.612 83.6299 486.432C83.6299 485.21 83.9443 484.262 84.5732 483.588C85.2021 482.913 86.0179 482.576 87.0205 482.576C87.9912 482.576 88.7842 482.907 89.3994 483.567C90.0146 484.228 90.3223 485.158 90.3223 486.356C90.3223 486.429 90.32 486.539 90.3154 486.685H84.9014C84.9469 487.482 85.1725 488.093 85.5781 488.517C85.9837 488.94 86.4896 489.152 87.0957 489.152C87.5469 489.152 87.932 489.034 88.251 488.797C88.57 488.56 88.8229 488.182 89.0098 487.662ZM84.9697 485.673H89.0234C88.9688 485.062 88.8138 484.604 88.5586 484.299C88.1667 483.825 87.6585 483.588 87.0342 483.588C86.4691 483.588 85.9928 483.777 85.6055 484.155C85.2227 484.534 85.0107 485.039 84.9697 485.673ZM91.833 490V482.74H92.9336V483.759C93.1615 483.403 93.4645 483.118 93.8428 482.904C94.221 482.686 94.6517 482.576 95.1348 482.576C95.6725 482.576 96.1123 482.688 96.4541 482.911C96.8005 483.134 97.0443 483.447 97.1855 483.848C97.7598 483 98.5072 482.576 99.4277 482.576C100.148 482.576 100.701 482.777 101.089 483.178C101.476 483.574 101.67 484.187 101.67 485.017V490H100.446V485.427C100.446 484.935 100.405 484.581 100.323 484.367C100.246 484.148 100.102 483.973 99.8926 483.841C99.6829 483.709 99.4368 483.643 99.1543 483.643C98.6439 483.643 98.2201 483.813 97.8828 484.155C97.5456 484.493 97.377 485.035 97.377 485.782V490H96.1465V485.283C96.1465 484.736 96.0462 484.326 95.8457 484.053C95.6452 483.779 95.3171 483.643 94.8613 483.643C94.515 483.643 94.1937 483.734 93.8975 483.916C93.6058 484.098 93.3939 484.365 93.2617 484.716C93.1296 485.067 93.0635 485.573 93.0635 486.233V490H91.833ZM108.465 487.662L109.736 487.819C109.536 488.562 109.164 489.139 108.622 489.549C108.08 489.959 107.387 490.164 106.544 490.164C105.482 490.164 104.639 489.838 104.015 489.187C103.395 488.53 103.085 487.612 103.085 486.432C103.085 485.21 103.399 484.262 104.028 483.588C104.657 482.913 105.473 482.576 106.476 482.576C107.446 482.576 108.239 482.907 108.854 483.567C109.47 484.228 109.777 485.158 109.777 486.356C109.777 486.429 109.775 486.539 109.771 486.685H104.356C104.402 487.482 104.628 488.093 105.033 488.517C105.439 488.94 105.945 489.152 106.551 489.152C107.002 489.152 107.387 489.034 107.706 488.797C108.025 488.56 108.278 488.182 108.465 487.662ZM104.425 485.673H108.479C108.424 485.062 108.269 484.604 108.014 484.299C107.622 483.825 107.114 483.588 106.489 483.588C105.924 483.588 105.448 483.777 105.061 484.155C104.678 484.534 104.466 485.039 104.425 485.673ZM111.288 490V482.74H112.389V483.759C112.617 483.403 112.92 483.118 113.298 482.904C113.676 482.686 114.107 482.576 114.59 482.576C115.128 482.576 115.567 482.688 115.909 482.911C116.256 483.134 116.499 483.447 116.641 483.848C117.215 483 117.962 482.576 118.883 482.576C119.603 482.576 120.157 482.777 120.544 483.178C120.931 483.574 121.125 484.187 121.125 485.017V490H119.901V485.427C119.901 484.935 119.86 484.581 119.778 484.367C119.701 484.148 119.557 483.973 119.348 483.841C119.138 483.709 118.892 483.643 118.609 483.643C118.099 483.643 117.675 483.813 117.338 484.155C117.001 484.493 116.832 485.035 116.832 485.782V490H115.602V485.283C115.602 484.736 115.501 484.326 115.301 484.053C115.1 483.779 114.772 483.643 114.316 483.643C113.97 483.643 113.649 483.734 113.353 483.916C113.061 484.098 112.849 484.365 112.717 484.716C112.585 485.067 112.519 485.573 112.519 486.233V490H111.288ZM124.085 490H122.943V479.979H124.174V483.554C124.693 482.902 125.356 482.576 126.163 482.576C126.61 482.576 127.031 482.667 127.428 482.85C127.829 483.027 128.157 483.28 128.412 483.608C128.672 483.932 128.875 484.324 129.021 484.784C129.166 485.244 129.239 485.737 129.239 486.261C129.239 487.505 128.932 488.466 128.316 489.146C127.701 489.825 126.963 490.164 126.102 490.164C125.245 490.164 124.573 489.806 124.085 489.091V490ZM124.071 486.315C124.071 487.186 124.19 487.815 124.427 488.202C124.814 488.836 125.338 489.152 125.999 489.152C126.537 489.152 127.002 488.92 127.394 488.455C127.785 487.986 127.981 487.288 127.981 486.363C127.981 485.415 127.792 484.716 127.414 484.265C127.04 483.813 126.587 483.588 126.054 483.588C125.516 483.588 125.051 483.823 124.659 484.292C124.267 484.757 124.071 485.431 124.071 486.315ZM135.713 487.662L136.984 487.819C136.784 488.562 136.412 489.139 135.87 489.549C135.328 489.959 134.635 490.164 133.792 490.164C132.73 490.164 131.887 489.838 131.263 489.187C130.643 488.53 130.333 487.612 130.333 486.432C130.333 485.21 130.647 484.262 131.276 483.588C131.905 482.913 132.721 482.576 133.724 482.576C134.694 482.576 135.487 482.907 136.103 483.567C136.718 484.228 137.025 485.158 137.025 486.356C137.025 486.429 137.023 486.539 137.019 486.685H131.604C131.65 487.482 131.876 488.093 132.281 488.517C132.687 488.94 133.193 489.152 133.799 489.152C134.25 489.152 134.635 489.034 134.954 488.797C135.273 488.56 135.526 488.182 135.713 487.662ZM131.673 485.673H135.727C135.672 485.062 135.517 484.604 135.262 484.299C134.87 483.825 134.362 483.588 133.737 483.588C133.172 483.588 132.696 483.777 132.309 484.155C131.926 484.534 131.714 485.039 131.673 485.673ZM138.522 490V482.74H139.63V483.841C139.912 483.326 140.172 482.986 140.409 482.822C140.651 482.658 140.915 482.576 141.202 482.576C141.617 482.576 142.038 482.708 142.467 482.973L142.043 484.114C141.742 483.937 141.441 483.848 141.141 483.848C140.872 483.848 140.63 483.93 140.416 484.094C140.202 484.253 140.049 484.477 139.958 484.764C139.821 485.201 139.753 485.68 139.753 486.199V490H138.522ZM147.211 490V479.979H149.207L151.579 487.074C151.798 487.735 151.957 488.229 152.058 488.558C152.172 488.193 152.349 487.658 152.591 486.951L154.99 479.979H156.774V490H155.496V481.612L152.584 490H151.388L148.489 481.469V490H147.211ZM163.727 487.662L164.998 487.819C164.798 488.562 164.426 489.139 163.884 489.549C163.341 489.959 162.649 490.164 161.806 490.164C160.744 490.164 159.901 489.838 159.276 489.187C158.657 488.53 158.347 487.612 158.347 486.432C158.347 485.21 158.661 484.262 159.29 483.588C159.919 482.913 160.735 482.576 161.737 482.576C162.708 482.576 163.501 482.907 164.116 483.567C164.731 484.228 165.039 485.158 165.039 486.356C165.039 486.429 165.037 486.539 165.032 486.685H159.618C159.664 487.482 159.889 488.093 160.295 488.517C160.701 488.94 161.206 489.152 161.812 489.152C162.264 489.152 162.649 489.034 162.968 488.797C163.287 488.56 163.54 488.182 163.727 487.662ZM159.687 485.673H163.74C163.686 485.062 163.531 484.604 163.275 484.299C162.883 483.825 162.375 483.588 161.751 483.588C161.186 483.588 160.71 483.777 160.322 484.155C159.939 484.534 159.728 485.039 159.687 485.673Z" fill="#1F1F1F"/>
<path d="M58.5 479.5H71.5V492.5H58.5V479.5Z" fill="white" stroke="#050364"/>
<path d="M155.859 268V250.82H158.133V265.973H166.594V268H155.859ZM168.258 261.777C168.258 259.473 168.898 257.766 170.18 256.656C171.25 255.734 172.555 255.273 174.094 255.273C175.805 255.273 177.203 255.836 178.289 256.961C179.375 258.078 179.918 259.625 179.918 261.602C179.918 263.203 179.676 264.465 179.191 265.387C178.715 266.301 178.016 267.012 177.094 267.52C176.18 268.027 175.18 268.281 174.094 268.281C172.352 268.281 170.941 267.723 169.863 266.605C168.793 265.488 168.258 263.879 168.258 261.777ZM170.426 261.777C170.426 263.371 170.773 264.566 171.469 265.363C172.164 266.152 173.039 266.547 174.094 266.547C175.141 266.547 176.012 266.148 176.707 265.352C177.402 264.555 177.75 263.34 177.75 261.707C177.75 260.168 177.398 259.004 176.695 258.215C176 257.418 175.133 257.02 174.094 257.02C173.039 257.02 172.164 257.414 171.469 258.203C170.773 258.992 170.426 260.184 170.426 261.777ZM182.016 269.031L184.066 269.336C184.152 269.969 184.391 270.43 184.781 270.719C185.305 271.109 186.02 271.305 186.926 271.305C187.902 271.305 188.656 271.109 189.188 270.719C189.719 270.328 190.078 269.781 190.266 269.078C190.375 268.648 190.426 267.746 190.418 266.371C189.496 267.457 188.348 268 186.973 268C185.262 268 183.938 267.383 183 266.148C182.062 264.914 181.594 263.434 181.594 261.707C181.594 260.52 181.809 259.426 182.238 258.426C182.668 257.418 183.289 256.641 184.102 256.094C184.922 255.547 185.883 255.273 186.984 255.273C188.453 255.273 189.664 255.867 190.617 257.055V255.555H192.562V266.312C192.562 268.25 192.363 269.621 191.965 270.426C191.574 271.238 190.949 271.879 190.09 272.348C189.238 272.816 188.188 273.051 186.938 273.051C185.453 273.051 184.254 272.715 183.34 272.043C182.426 271.379 181.984 270.375 182.016 269.031ZM183.762 261.555C183.762 263.188 184.086 264.379 184.734 265.129C185.383 265.879 186.195 266.254 187.172 266.254C188.141 266.254 188.953 265.883 189.609 265.141C190.266 264.391 190.594 263.219 190.594 261.625C190.594 260.102 190.254 258.953 189.574 258.18C188.902 257.406 188.09 257.02 187.137 257.02C186.199 257.02 185.402 257.402 184.746 258.168C184.09 258.926 183.762 260.055 183.762 261.555ZM203.098 268V250.82H205.371V268H203.098ZM209.121 268V255.555H211.02V257.324C211.934 255.957 213.254 255.273 214.98 255.273C215.73 255.273 216.418 255.41 217.043 255.684C217.676 255.949 218.148 256.301 218.461 256.738C218.773 257.176 218.992 257.695 219.117 258.297C219.195 258.688 219.234 259.371 219.234 260.348V268H217.125V260.43C217.125 259.57 217.043 258.93 216.879 258.508C216.715 258.078 216.422 257.738 216 257.488C215.586 257.23 215.098 257.102 214.535 257.102C213.637 257.102 212.859 257.387 212.203 257.957C211.555 258.527 211.23 259.609 211.23 261.203V268H209.121Z" fill="white"/>
<defs>
<filter id="filter0_d_117_323" x="21" y="315" width="351" height="303" filterUnits="userSpaceOnUse" color-interpolation-filters="sRGB">
<feFlood flood-opacity="0" result="BackgroundImageFix"/>
<feColorMatrix in="SourceAlpha" type="matrix" values="0 0 0 0 0 0 0 0 0 0 0 0 0 0 0 0 0 0 127 0" result="hardAlpha"/>
<feOffset dx="7" dy="7"/>
<feGaussianBlur stdDeviation="2.5"/>
<feComposite in2="hardAlpha" operator="out"/>
<feColorMatrix type="matrix" values="0 0 0 0 0 0 0 0 0 0 0 0 0 0 0 0 0 0 0.1 0"/>
<feBlend mode="normal" in2="BackgroundImageFix" result="effect1_dropShadow_117_323"/>
<feBlend mode="normal" in="SourceGraphic" in2="effect1_dropShadow_117_323" result="shape"/>
</filter>
<linearGradient id="paint0_linear_117_323" x1="-161.566" y1="171.916" x2="148.146" y2="481.629" gradientUnits="userSpaceOnUse">
<stop stop-color="#FD8E4E"/>
<stop offset="1" stop-color="#FD6C6A"/>
</linearGradient>
<linearGradient id="paint1_linear_117_323" x1="191.5" y1="508" x2="191.5" y2="558" gradientUnits="userSpaceOnUse">
<stop stop-color="#FD8E4E"/>
<stop offset="1" stop-color="#FD6C6A"/>
</linearGradient>
</defs>
</svg>
