<svg width="300" height="300" viewBox="0 0 300 300" fill="none" xmlns="http://www.w3.org/2000/svg">
<g clip-path="url(#clip0_6_79)">
<path d="M150.004 3.5047C63.6612 3.5047 3.97491 70.3858 3.97491 148.631C3.97491 236.185 64.939 296.479 150.004 296.479C238.351 296.479 296.032 235.622 296.032 148.631C296.038 69.8455 236.042 3.5047 150.004 3.5047Z" fill="#ADADDE"/>
<path d="M150.004 0C117.474 0.0525704 85.1054 9.73574 59.0115 29.419C34.4398 48.0392 16.3333 73.9033 7.2458 103.364C-2.15553 133.773 -1.67948 167.501 7.43126 197.929C15.7598 226.368 32.7952 251.481 56.1406 269.734C80.3054 288.364 110.148 298.081 140.456 299.727C171.458 301.411 203.431 295.372 230.42 279.633C255.178 265.071 274.663 243.012 286.057 216.645C298.434 187.608 302.451 155.69 297.655 124.491C292.98 94.0385 278.924 65.8023 257.444 43.7152C235.169 21.2396 206.221 6.57291 174.923 1.90568C166.676 0.652898 158.346 0.0159128 150.004 0C145.493 0 145.485 7.00938 150.004 7.00938C181.203 7.05903 211.89 16.3319 236.994 35.0644C260.291 52.6801 277.442 77.1909 286.01 105.113C294.918 133.957 294.573 165.715 286.46 194.706C279.013 221.324 264.118 245.366 242.573 262.815C220.386 280.777 192.168 290.349 163.778 292.468C133.945 294.696 103.365 289.649 77.0198 275.09C52.5894 261.498 33.1073 240.498 21.3828 215.118C15.1971 201.607 11.0472 187.254 9.06824 172.527C6.85385 157.242 6.87254 141.716 9.12373 126.436C13.5082 97.3104 26.832 70.2658 47.2533 49.0408C68.5571 27.4137 96.3011 13.2801 126.321 8.76173C134.159 7.57527 142.076 6.98945 150.004 7.00938C154.513 7.00938 154.522 0 150.004 0Z" fill="#211715"/>
<path d="M150.005 31.2501C80.0121 31.2501 31.6328 85.4604 31.6328 148.895C31.6328 219.865 81.0533 268.745 150.009 268.745C221.622 268.745 268.385 219.413 268.385 148.895C268.385 85.0223 219.751 31.2501 150.005 31.2501Z" fill="white"/>
<path d="M150.005 27.7454C123.485 27.7922 97.0653 35.6777 75.8108 51.7526C55.8817 66.872 41.1711 87.837 33.7327 111.721C26.2131 136.741 26.1746 163.414 33.6217 188.456C40.3039 211.745 54.1455 232.341 73.1852 247.326C92.9108 262.595 117.179 270.625 141.965 272.019C167.172 273.437 193.189 268.572 215.181 255.855C235.421 244.057 251.378 226.12 260.742 204.645C270.957 180.859 274.279 154.68 270.327 129.097C266.51 104.365 255.097 81.4318 237.668 63.4743C219.549 45.1404 195.984 33.1609 170.494 29.3255C163.713 28.2898 156.865 27.7617 150.005 27.7454C145.494 27.7367 145.487 34.7461 150.005 34.7548C175.225 34.5641 199.835 42.5069 220.185 57.4053C238.886 71.5601 252.665 91.2357 259.572 113.65C266.79 136.912 266.54 162.504 260.026 185.908C254.225 207.533 241.812 226.804 224.522 241.029C206.658 255.474 183.855 263.166 160.988 264.844C136.941 266.608 112.312 262.539 91.0884 250.781C71.348 239.773 55.6263 222.764 46.202 202.221C36.1527 179.942 32.7639 155.232 36.4444 131.071C39.9722 107.558 50.7241 85.723 67.2112 68.5911C84.4207 51.143 106.83 39.7534 131.068 36.1348C137.336 35.1944 143.667 34.7312 150.005 34.749C154.514 34.7402 154.523 27.7308 150.005 27.7454Z" fill="#211715"/>
<path d="M150.074 153.535H190.511C195.02 153.535 195.029 146.525 190.511 146.525H150.074C145.563 146.525 145.556 153.535 150.074 153.535Z" fill="#211715"/>
<path d="M146.569 88.7344C146.569 105.708 146.569 122.682 146.569 139.656C146.569 143.091 146.569 146.525 146.569 149.96C146.569 154.469 153.586 154.477 153.578 149.96C153.551 133.239 153.551 116.517 153.578 99.796C153.578 96.1083 153.578 92.4211 153.578 88.7344C153.578 84.2235 146.569 84.2162 146.569 88.7344Z" fill="#211715"/>
<path d="M146.405 54.0861C146.405 56.1962 146.422 58.3063 146.423 60.415C146.432 61.343 146.798 62.2319 147.445 62.8975C148.102 63.5547 148.994 63.9239 149.923 63.9239C150.853 63.9239 151.744 63.5547 152.401 62.8975C153.045 62.2299 153.411 61.3423 153.424 60.415C153.424 58.3063 153.408 56.1962 153.406 54.0861C153.397 53.1581 153.031 52.2693 152.384 51.6036C152.058 51.278 151.672 51.0197 151.247 50.8434C150.821 50.6672 150.365 50.5765 149.905 50.5765C149.445 50.5765 148.989 50.6672 148.563 50.8434C148.138 51.0197 147.752 51.278 147.426 51.6036C146.782 52.2708 146.418 53.1586 146.405 54.0861Z" fill="#211715"/>
<path d="M146.405 239.569C146.405 241.679 146.422 243.789 146.423 245.898C146.432 246.826 146.798 247.715 147.445 248.38C148.102 249.038 148.994 249.407 149.923 249.407C150.853 249.407 151.744 249.038 152.401 248.38C153.045 247.713 153.411 246.825 153.424 245.898C153.424 243.789 153.408 241.679 153.406 239.569C153.397 238.641 153.031 237.752 152.384 237.086C152.058 236.761 151.672 236.503 151.247 236.326C150.821 236.15 150.365 236.059 149.905 236.059C149.445 236.059 148.989 236.15 148.563 236.326C148.138 236.503 147.752 236.761 147.426 237.086C146.782 237.754 146.418 238.641 146.405 239.569Z" fill="#211715"/>
<path d="M245.825 146.48C243.716 146.48 241.606 146.496 239.496 146.496C238.568 146.505 237.679 146.871 237.013 147.518C236.356 148.175 235.987 149.067 235.987 149.996C235.987 150.926 236.356 151.817 237.013 152.474C237.681 153.119 238.568 153.484 239.496 153.497C241.606 153.497 243.716 153.481 245.825 153.481C246.753 153.47 247.641 153.105 248.307 152.458C248.634 152.133 248.893 151.746 249.07 151.32C249.247 150.894 249.338 150.437 249.338 149.976C249.338 149.515 249.247 149.058 249.07 148.632C248.893 148.206 248.634 147.819 248.307 147.493C247.641 146.848 246.753 146.482 245.825 146.471V146.48Z" fill="#211715"/>
<path d="M60.342 146.48C58.2333 146.48 56.1232 146.496 54.0131 146.496C53.0849 146.505 52.1959 146.871 51.5306 147.518C50.8734 148.175 50.5042 149.067 50.5042 149.996C50.5042 150.926 50.8734 151.817 51.5306 152.474C52.1978 153.119 53.0856 153.484 54.0131 153.497C56.1232 153.497 58.2333 153.481 60.342 153.481C61.2699 153.47 62.1585 153.105 62.8245 152.458C63.1512 152.133 63.4105 151.746 63.5874 151.32C63.7642 150.894 63.8553 150.437 63.8553 149.976C63.8553 149.515 63.7642 149.058 63.5874 148.632C63.4105 148.206 63.1512 147.819 62.8245 147.493C62.158 146.848 61.2697 146.482 60.342 146.471V146.48Z" fill="#211715"/>
<path d="M98.933 68.708C99.9873 70.5348 101.056 72.3587 102.112 74.1811C102.344 74.5787 102.653 74.9265 103.019 75.2049C103.386 75.4832 103.804 75.6866 104.249 75.8034C104.695 75.9201 105.159 75.948 105.615 75.8854C106.071 75.8228 106.51 75.6709 106.908 75.4384C107.694 74.9742 108.269 74.2237 108.514 73.3444C108.747 72.4325 108.621 71.466 108.162 70.6443C107.106 68.816 106.037 66.9936 104.982 65.1697C104.512 64.3672 103.744 63.784 102.845 63.5482C101.946 63.3124 100.99 63.4434 100.187 63.9124C99.4015 64.3774 98.8259 65.1282 98.5811 66.0079C98.3487 66.92 98.4752 67.8864 98.9345 68.708H98.933Z" fill="#211715"/>
<path d="M191.674 229.341C192.729 231.168 193.798 232.992 194.853 234.814C195.324 235.594 196.072 236.168 196.948 236.421C197.859 236.663 198.829 236.536 199.648 236.067C200.434 235.603 201.009 234.853 201.254 233.973C201.487 233.061 201.361 232.093 200.901 231.272C199.846 229.445 198.777 227.621 197.721 225.798C197.251 225.018 196.503 224.445 195.627 224.192C194.716 223.95 193.746 224.077 192.927 224.545C192.141 225.01 191.566 225.761 191.321 226.641C191.089 227.553 191.215 228.52 191.674 229.341Z" fill="#211715"/>
<path d="M231.203 99.0075C229.376 100.062 227.552 101.131 225.73 102.187C224.95 102.658 224.377 103.406 224.123 104.281C223.881 105.193 224.008 106.163 224.477 106.982C224.942 107.767 225.692 108.342 226.571 108.588C227.483 108.82 228.45 108.694 229.272 108.235C231.099 107.179 232.923 106.11 234.746 105.056C235.526 104.585 236.099 103.836 236.352 102.961C236.594 102.049 236.467 101.079 235.999 100.26C235.534 99.4743 234.784 98.8986 233.904 98.6541C232.992 98.4216 232.025 98.5481 231.203 99.0075Z" fill="#211715"/>
<path d="M70.5698 191.747C68.743 192.802 66.9191 193.871 65.0967 194.926C64.3173 195.398 63.7439 196.146 63.4904 197.021C63.2485 197.932 63.3755 198.903 63.8438 199.722C64.309 200.508 65.0597 201.083 65.9393 201.328C66.8511 201.561 67.8177 201.435 68.6394 200.976C70.4662 199.921 72.2901 198.852 74.1125 197.796C74.915 197.327 75.4982 196.558 75.734 195.659C75.9698 194.76 75.8388 193.804 75.3698 193.002C74.9058 192.216 74.1552 191.64 73.2758 191.396C72.3632 191.163 71.3963 191.29 70.5742 191.749L70.5698 191.747Z" fill="#211715"/>
<path d="M194.853 65.1697C193.798 66.998 192.729 68.8204 191.674 70.6443C191.211 71.4646 191.085 72.4326 191.321 73.3444C191.444 73.7883 191.652 74.2036 191.936 74.5667C192.219 74.9298 192.571 75.2335 192.971 75.4605C193.372 75.6875 193.813 75.8334 194.27 75.8897C194.727 75.9461 195.191 75.9118 195.635 75.7889C196.509 75.5341 197.256 74.961 197.729 74.1826C198.785 72.3558 199.853 70.5319 200.908 68.7095C201.372 67.8894 201.498 66.9212 201.261 66.0094C201.139 65.5655 200.931 65.15 200.648 64.7866C200.365 64.4233 200.014 64.1192 199.613 63.8918C199.213 63.6644 198.772 63.518 198.315 63.4612C197.858 63.4044 197.394 63.4381 196.95 63.5605C196.077 63.8161 195.33 64.389 194.856 65.1668L194.853 65.1697Z" fill="#211715"/>
<path d="M102.112 225.803C101.056 227.63 99.9873 229.454 98.933 231.276C98.4698 232.097 98.3431 233.065 98.5796 233.978C98.8284 234.855 99.403 235.604 100.186 236.072C100.59 236.306 101.037 236.458 101.501 236.518C101.964 236.579 102.435 236.547 102.886 236.425C103.76 236.17 104.507 235.597 104.98 234.819C106.036 232.992 107.105 231.168 108.161 229.345C108.623 228.525 108.749 227.557 108.512 226.645C108.39 226.202 108.182 225.786 107.899 225.423C107.616 225.059 107.265 224.755 106.865 224.528C106.464 224.3 106.023 224.154 105.566 224.097C105.109 224.04 104.646 224.074 104.202 224.197C103.327 224.451 102.58 225.024 102.108 225.803H102.112Z" fill="#211715"/>
<path d="M65.0967 105.059C66.925 106.113 68.7474 107.182 70.5699 108.238C71.391 108.7 72.359 108.827 73.2714 108.591C73.7153 108.469 74.1308 108.26 74.4941 107.978C74.8574 107.695 75.1614 107.343 75.3887 106.942C75.616 106.542 75.7621 106.101 75.8188 105.644C75.8754 105.187 75.8415 104.723 75.7188 104.279C75.464 103.405 74.8909 102.658 74.1125 102.185C72.2857 101.129 70.4618 100.06 68.6394 99.006C67.8191 98.5429 66.8511 98.4162 65.9393 98.6526C65.4954 98.7748 65.0799 98.9832 64.7165 99.2659C64.3532 99.5487 64.0491 99.9003 63.8217 100.301C63.5943 100.701 63.4479 101.142 63.3911 101.599C63.3343 102.056 63.368 102.52 63.4904 102.963C63.7456 103.838 64.3186 104.585 65.0967 105.059Z" fill="#211715"/>
<path d="M225.73 197.799C227.557 198.855 229.381 199.924 231.203 200.979C232.024 201.442 232.992 201.568 233.904 201.331C234.348 201.209 234.764 201 235.127 200.718C235.49 200.435 235.794 200.083 236.021 199.683C236.248 199.283 236.395 198.841 236.451 198.385C236.508 197.928 236.474 197.464 236.352 197.021C236.097 196.146 235.524 195.399 234.746 194.926C232.919 193.871 231.095 192.802 229.272 191.747C228.452 191.284 227.483 191.158 226.571 191.394C225.694 191.643 224.944 192.217 224.477 193C224.243 193.405 224.091 193.852 224.03 194.315C223.969 194.778 224.001 195.249 224.123 195.7C224.378 196.575 224.951 197.322 225.73 197.794V197.799Z" fill="#211715"/>
</g>
<defs>
<clipPath id="clip0_6_79">
<rect width="300" height="300" fill="white"/>
</clipPath>
</defs>
</svg>
