<svg xmlns="http://www.w3.org/2000/svg" version="1.1" xmlns:xlink="http://www.w3.org/1999/xlink" xmlns:svgjs="http://svgjs.com/svgjs" width="1440" height="560" preserveAspectRatio="none" viewBox="0 0 1440 560"><g mask="url(&quot;#SvgjsMask1630&quot;)" fill="none"><rect width="1440" height="560" x="0" y="0" fill="url(#SvgjsLinearGradient1631)"></rect><path d="M92.23 -66.02L189.23 -10.02L189.23 101.98L92.23 157.98L-4.77 101.98L-4.77 -10.02zM189.23 101.98L286.23 157.98L286.23 269.98L189.23 325.98L92.23 269.98L92.23 157.98zM577.22 437.98L674.22 493.98L674.22 605.98L577.22 661.98L480.22 605.98L480.22 493.98zM674.22 -66.02L771.21 -10.02L771.21 101.98L674.22 157.98L577.22 101.98L577.22 -10.02zM771.21 437.98L868.21 493.98L868.21 605.98L771.21 661.98L674.22 605.98L674.22 493.98zM868.21 269.98L965.21 325.98L965.21 437.98L868.21 493.98L771.21 437.98L771.21 325.98zM1062.21 -66.02L1159.2 -10.02L1159.2 101.98L1062.21 157.98L965.21 101.98L965.21 -10.02zM1159.2 101.98L1256.2 157.98L1256.2 269.98L1159.2 325.98L1062.21 269.98L1062.21 157.98zM1159.2 437.98L1256.2 493.98L1256.2 605.98L1159.2 661.98L1062.21 605.98L1062.21 493.98zM1256.2 269.98L1353.2 325.98L1353.2 437.98L1256.2 493.98L1159.2 437.98L1159.2 325.98zM1547.19 101.98L1644.19 157.98L1644.19 269.98L1547.19 325.98L1450.2 269.98L1450.2 157.98z" stroke="url(#SvgjsLinearGradient1632)" stroke-width="2"></path><path d="M81.03 -66.02 a11.2 11.2 0 1 0 22.4 0 a11.2 11.2 0 1 0 -22.4 0zM178.03 -10.02 a11.2 11.2 0 1 0 22.4 0 a11.2 11.2 0 1 0 -22.4 0zM178.03 101.98 a11.2 11.2 0 1 0 22.4 0 a11.2 11.2 0 1 0 -22.4 0zM81.03 157.98 a11.2 11.2 0 1 0 22.4 0 a11.2 11.2 0 1 0 -22.4 0zM-15.97 101.98 a11.2 11.2 0 1 0 22.4 0 a11.2 11.2 0 1 0 -22.4 0zM-15.97 -10.02 a11.2 11.2 0 1 0 22.4 0 a11.2 11.2 0 1 0 -22.4 0zM275.03 157.98 a11.2 11.2 0 1 0 22.4 0 a11.2 11.2 0 1 0 -22.4 0zM275.03 269.98 a11.2 11.2 0 1 0 22.4 0 a11.2 11.2 0 1 0 -22.4 0zM178.03 325.98 a11.2 11.2 0 1 0 22.4 0 a11.2 11.2 0 1 0 -22.4 0zM81.03 269.98 a11.2 11.2 0 1 0 22.4 0 a11.2 11.2 0 1 0 -22.4 0zM566.02 437.98 a11.2 11.2 0 1 0 22.4 0 a11.2 11.2 0 1 0 -22.4 0zM663.02 493.98 a11.2 11.2 0 1 0 22.4 0 a11.2 11.2 0 1 0 -22.4 0zM663.02 605.98 a11.2 11.2 0 1 0 22.4 0 a11.2 11.2 0 1 0 -22.4 0zM566.02 661.98 a11.2 11.2 0 1 0 22.4 0 a11.2 11.2 0 1 0 -22.4 0zM469.02 605.98 a11.2 11.2 0 1 0 22.4 0 a11.2 11.2 0 1 0 -22.4 0zM469.02 493.98 a11.2 11.2 0 1 0 22.4 0 a11.2 11.2 0 1 0 -22.4 0zM663.02 -66.02 a11.2 11.2 0 1 0 22.4 0 a11.2 11.2 0 1 0 -22.4 0zM760.01 -10.02 a11.2 11.2 0 1 0 22.4 0 a11.2 11.2 0 1 0 -22.4 0zM760.01 101.98 a11.2 11.2 0 1 0 22.4 0 a11.2 11.2 0 1 0 -22.4 0zM663.02 157.98 a11.2 11.2 0 1 0 22.4 0 a11.2 11.2 0 1 0 -22.4 0zM566.02 101.98 a11.2 11.2 0 1 0 22.4 0 a11.2 11.2 0 1 0 -22.4 0zM566.02 -10.02 a11.2 11.2 0 1 0 22.4 0 a11.2 11.2 0 1 0 -22.4 0zM760.01 437.98 a11.2 11.2 0 1 0 22.4 0 a11.2 11.2 0 1 0 -22.4 0zM857.01 493.98 a11.2 11.2 0 1 0 22.4 0 a11.2 11.2 0 1 0 -22.4 0zM857.01 605.98 a11.2 11.2 0 1 0 22.4 0 a11.2 11.2 0 1 0 -22.4 0zM760.01 661.98 a11.2 11.2 0 1 0 22.4 0 a11.2 11.2 0 1 0 -22.4 0zM857.01 269.98 a11.2 11.2 0 1 0 22.4 0 a11.2 11.2 0 1 0 -22.4 0zM954.01 325.98 a11.2 11.2 0 1 0 22.4 0 a11.2 11.2 0 1 0 -22.4 0zM954.01 437.98 a11.2 11.2 0 1 0 22.4 0 a11.2 11.2 0 1 0 -22.4 0zM760.01 325.98 a11.2 11.2 0 1 0 22.4 0 a11.2 11.2 0 1 0 -22.4 0zM1051.01 -66.02 a11.2 11.2 0 1 0 22.4 0 a11.2 11.2 0 1 0 -22.4 0zM1148 -10.02 a11.2 11.2 0 1 0 22.4 0 a11.2 11.2 0 1 0 -22.4 0zM1148 101.98 a11.2 11.2 0 1 0 22.4 0 a11.2 11.2 0 1 0 -22.4 0zM1051.01 157.98 a11.2 11.2 0 1 0 22.4 0 a11.2 11.2 0 1 0 -22.4 0zM954.01 101.98 a11.2 11.2 0 1 0 22.4 0 a11.2 11.2 0 1 0 -22.4 0zM954.01 -10.02 a11.2 11.2 0 1 0 22.4 0 a11.2 11.2 0 1 0 -22.4 0zM1245 157.98 a11.2 11.2 0 1 0 22.4 0 a11.2 11.2 0 1 0 -22.4 0zM1245 269.98 a11.2 11.2 0 1 0 22.4 0 a11.2 11.2 0 1 0 -22.4 0zM1148 325.98 a11.2 11.2 0 1 0 22.4 0 a11.2 11.2 0 1 0 -22.4 0zM1051.01 269.98 a11.2 11.2 0 1 0 22.4 0 a11.2 11.2 0 1 0 -22.4 0zM1148 437.98 a11.2 11.2 0 1 0 22.4 0 a11.2 11.2 0 1 0 -22.4 0zM1245 493.98 a11.2 11.2 0 1 0 22.4 0 a11.2 11.2 0 1 0 -22.4 0zM1245 605.98 a11.2 11.2 0 1 0 22.4 0 a11.2 11.2 0 1 0 -22.4 0zM1148 661.98 a11.2 11.2 0 1 0 22.4 0 a11.2 11.2 0 1 0 -22.4 0zM1051.01 605.98 a11.2 11.2 0 1 0 22.4 0 a11.2 11.2 0 1 0 -22.4 0zM1051.01 493.98 a11.2 11.2 0 1 0 22.4 0 a11.2 11.2 0 1 0 -22.4 0zM1342 325.98 a11.2 11.2 0 1 0 22.4 0 a11.2 11.2 0 1 0 -22.4 0zM1342 437.98 a11.2 11.2 0 1 0 22.4 0 a11.2 11.2 0 1 0 -22.4 0zM1535.99 101.98 a11.2 11.2 0 1 0 22.4 0 a11.2 11.2 0 1 0 -22.4 0zM1632.99 157.98 a11.2 11.2 0 1 0 22.4 0 a11.2 11.2 0 1 0 -22.4 0zM1632.99 269.98 a11.2 11.2 0 1 0 22.4 0 a11.2 11.2 0 1 0 -22.4 0zM1535.99 325.98 a11.2 11.2 0 1 0 22.4 0 a11.2 11.2 0 1 0 -22.4 0zM1439 269.98 a11.2 11.2 0 1 0 22.4 0 a11.2 11.2 0 1 0 -22.4 0zM1439 157.98 a11.2 11.2 0 1 0 22.4 0 a11.2 11.2 0 1 0 -22.4 0z" fill="url(#SvgjsLinearGradient1632)"></path><path d="M107.44 224.78L158.53 254.28L158.53 313.28L107.44 342.78L56.34 313.28L56.34 254.28zM56.34 313.28L107.44 342.78L107.44 401.78L56.34 431.28L5.24 401.78L5.24 342.78zM107.44 401.78L158.53 431.28L158.53 490.28L107.44 519.78L56.34 490.28L56.34 431.28zM56.34 490.28L107.44 519.78L107.44 578.78L56.34 608.28L5.24 578.78L5.24 519.78zM158.53 -40.72L209.63 -11.22L209.63 47.78L158.53 77.28L107.44 47.78L107.44 -11.22zM209.63 47.78L260.73 77.28L260.73 136.28L209.63 165.78L158.53 136.28L158.53 77.28zM209.63 224.78L260.73 254.28L260.73 313.28L209.63 342.78L158.53 313.28L158.53 254.28zM158.53 313.28L209.63 342.78L209.63 401.78L158.53 431.28L107.44 401.78L107.44 342.78zM158.53 490.28L209.63 519.78L209.63 578.78L158.53 608.28L107.44 578.78L107.44 519.78zM311.82 47.78L362.92 77.28L362.92 136.28L311.82 165.78L260.73 136.28L260.73 77.28zM260.73 313.28L311.82 342.78L311.82 401.78L260.73 431.28L209.63 401.78L209.63 342.78zM260.73 490.28L311.82 519.78L311.82 578.78L260.73 608.28L209.63 578.78L209.63 519.78zM362.92 136.28L414.02 165.78L414.02 224.78L362.92 254.28L311.82 224.78L311.82 165.78zM414.02 224.78L465.12 254.28L465.12 313.28L414.02 342.78L362.92 313.28L362.92 254.28zM465.12 -40.72L516.21 -11.22L516.21 47.78L465.12 77.28L414.02 47.78L414.02 -11.22zM465.12 313.28L516.21 342.78L516.21 401.78L465.12 431.28L414.02 401.78L414.02 342.78zM618.41 224.78L669.5 254.28L669.5 313.28L618.41 342.78L567.31 313.28L567.31 254.28zM669.5 136.28L720.6 165.78L720.6 224.78L669.5 254.28L618.41 224.78L618.41 165.78zM720.6 224.78L771.7 254.28L771.7 313.28L720.6 342.78L669.5 313.28L669.5 254.28zM669.5 313.28L720.6 342.78L720.6 401.78L669.5 431.28L618.41 401.78L618.41 342.78zM669.5 490.28L720.6 519.78L720.6 578.78L669.5 608.28L618.41 578.78L618.41 519.78zM771.7 490.28L822.79 519.78L822.79 578.78L771.7 608.28L720.6 578.78L720.6 519.78zM924.99 47.78L976.09 77.28L976.09 136.28L924.99 165.78L873.89 136.28L873.89 77.28zM873.89 313.28L924.99 342.78L924.99 401.78L873.89 431.28L822.79 401.78L822.79 342.78zM1027.18 401.78L1078.28 431.28L1078.28 490.28L1027.18 519.78L976.09 490.28L976.09 431.28zM1078.28 136.28L1129.38 165.78L1129.38 224.78L1078.28 254.28L1027.18 224.78L1027.18 165.78zM1129.38 224.78L1180.47 254.28L1180.47 313.28L1129.38 342.78L1078.28 313.28L1078.28 254.28zM1078.28 313.28L1129.38 342.78L1129.38 401.78L1078.28 431.28L1027.18 401.78L1027.18 342.78zM1129.38 401.78L1180.47 431.28L1180.47 490.28L1129.38 519.78L1078.28 490.28L1078.28 431.28zM1078.28 490.28L1129.38 519.78L1129.38 578.78L1078.28 608.28L1027.18 578.78L1027.18 519.78zM1180.47 -40.72L1231.57 -11.22L1231.57 47.78L1180.47 77.28L1129.38 47.78L1129.38 -11.22zM1180.47 136.28L1231.57 165.78L1231.57 224.78L1180.47 254.28L1129.38 224.78L1129.38 165.78zM1231.57 401.78L1282.67 431.28L1282.67 490.28L1231.57 519.78L1180.47 490.28L1180.47 431.28zM1282.67 313.28L1333.76 342.78L1333.76 401.78L1282.67 431.28L1231.57 401.78L1231.57 342.78zM1333.76 401.78L1384.86 431.28L1384.86 490.28L1333.76 519.78L1282.67 490.28L1282.67 431.28zM1435.96 224.78L1487.05 254.28L1487.05 313.28L1435.96 342.78L1384.86 313.28L1384.86 254.28zM1487.05 -40.72L1538.15 -11.22L1538.15 47.78L1487.05 77.28L1435.96 47.78L1435.96 -11.22zM1538.15 224.78L1589.25 254.28L1589.25 313.28L1538.15 342.78L1487.05 313.28L1487.05 254.28zM1487.05 313.28L1538.15 342.78L1538.15 401.78L1487.05 431.28L1435.96 401.78L1435.96 342.78zM1487.05 490.28L1538.15 519.78L1538.15 578.78L1487.05 608.28L1435.96 578.78L1435.96 519.78z" stroke="url(#SvgjsLinearGradient1633)" stroke-width="2"></path></g><defs><mask id="SvgjsMask1630"><rect width="1440" height="560" fill="#ffffff"></rect></mask><linearGradient x1="15.28%" y1="-39.29%" x2="84.72%" y2="139.29%" gradientUnits="userSpaceOnUse" id="SvgjsLinearGradient1631"><stop stop-color="#0e2a47" offset="0"></stop><stop stop-color="rgba(76, 11, 70, 1)" offset="1"></stop></linearGradient><linearGradient x1="1440" y1="280" x2="0" y2="280" gradientUnits="userSpaceOnUse" id="SvgjsLinearGradient1632"><stop stop-color="rgba(158, 0, 129, 1)" offset="0"></stop><stop stop-color="#03305d" offset="1"></stop></linearGradient><linearGradient x1="220.03199999999998" y1="-220.02399999999997" x2="1219.9679999999998" y2="780.024" gradientUnits="userSpaceOnUse" id="SvgjsLinearGradient1633"><stop stop-color="#0e2a47" offset="0"></stop><stop stop-color="#00459e" offset="1"></stop></linearGradient></defs></svg>