<svg width="519" height="198" viewBox="0 0 519 198" fill="none" xmlns="http://www.w3.org/2000/svg">
<path d="M161.907 171.633C150.421 182.535 136.178 190.454 120.542 194.632C104.906 198.81 88.4014 199.106 72.6104 195.492C56.8194 191.877 42.271 184.474 30.3594 173.991C18.4478 163.508 9.57241 150.297 4.58367 135.624C-0.405061 120.951 -1.33988 105.307 1.8688 90.1929C5.07748 75.0784 12.3221 60.9994 22.9084 49.3053C33.4947 37.6111 47.0678 28.6937 62.327 23.4077C77.5861 18.1216 94.0199 16.6442 110.053 19.1169L106.483 39.9717C94.2131 38.0794 81.6363 39.2101 69.9584 43.2555C58.2805 47.3009 47.8929 54.1254 39.7912 63.075C31.6895 72.0246 26.1451 82.7993 23.6895 94.3665C21.2339 105.934 21.9493 117.906 25.7672 129.135C29.5851 140.365 36.3775 150.475 45.4935 158.498C54.6094 166.52 65.7434 172.186 77.8283 174.952C89.9132 177.718 102.544 177.492 114.51 174.294C126.477 171.097 137.377 165.036 146.167 156.693L161.907 171.633Z" fill="white"/>
<path d="M182.146 72.8006C188.943 87.9984 191.205 104.678 188.686 121.014C186.167 137.35 178.963 152.714 167.863 165.425L150.726 151.942C159.221 142.214 164.734 130.456 166.661 117.954C168.589 105.452 166.858 92.687 161.657 81.0561L182.146 72.8006Z" fill="#34444C"/>
<path d="M62.824 85.1203L96.7663 112.206L183.696 15" stroke="#34444C" stroke-width="30" stroke-linecap="round" stroke-linejoin="round"/>
<path d="M265.48 147H250.393V116.189H222.121V147H206.984V75.6133H222.121V103.592H250.393V75.6133H265.48V147ZM304.348 75.6133C310.826 75.6133 316.164 76.3945 320.363 77.957C324.595 79.5195 327.736 81.8796 329.787 85.0371C331.838 88.1947 332.863 92.1823 332.863 97C332.863 100.255 332.245 103.104 331.008 105.545C329.771 107.986 328.143 110.053 326.125 111.746C324.107 113.439 321.926 114.822 319.582 115.896L340.578 147H323.781L306.74 119.607H298.684V147H283.547V75.6133H304.348ZM303.273 88.0156H298.684V107.303H303.566C308.579 107.303 312.16 106.473 314.309 104.812C316.49 103.12 317.58 100.646 317.58 97.3906C317.58 94.0052 316.408 91.5964 314.064 90.1641C311.753 88.7318 308.156 88.0156 303.273 88.0156ZM379.787 147L362.6 90.9941H362.16C362.225 92.3288 362.323 94.347 362.453 97.0488C362.616 99.7181 362.762 102.566 362.893 105.594C363.023 108.621 363.088 111.355 363.088 113.797V147H349.562V75.6133H370.168L387.062 130.203H387.355L405.275 75.6133H425.881V147H411.77V113.211C411.77 110.965 411.802 108.377 411.867 105.447C411.965 102.518 412.079 99.7344 412.209 97.0977C412.339 94.4284 412.437 92.4264 412.502 91.0918H412.062L393.654 147H379.787ZM486.037 127.176C486.037 131.408 485.012 135.086 482.961 138.211C480.91 141.336 477.915 143.745 473.977 145.438C470.07 147.13 465.318 147.977 459.719 147.977C457.245 147.977 454.82 147.814 452.443 147.488C450.1 147.163 447.837 146.691 445.656 146.072C443.508 145.421 441.457 144.624 439.504 143.68V129.617C442.889 131.115 446.405 132.465 450.051 133.67C453.697 134.874 457.31 135.477 460.891 135.477C463.365 135.477 465.35 135.151 466.848 134.5C468.378 133.849 469.484 132.954 470.168 131.814C470.852 130.675 471.193 129.373 471.193 127.908C471.193 126.118 470.591 124.588 469.387 123.318C468.182 122.049 466.522 120.861 464.406 119.754C462.323 118.647 459.963 117.459 457.326 116.189C455.666 115.408 453.859 114.464 451.906 113.357C449.953 112.218 448.098 110.835 446.34 109.207C444.582 107.579 443.133 105.61 441.994 103.299C440.887 100.955 440.334 98.1556 440.334 94.9004C440.334 90.6361 441.311 86.9902 443.264 83.9629C445.217 80.9355 448 78.6243 451.613 77.0293C455.259 75.4017 459.556 74.5879 464.504 74.5879C468.215 74.5879 471.747 75.0273 475.1 75.9062C478.485 76.7526 482.017 77.9896 485.695 79.6172L480.812 91.3848C477.525 90.0501 474.579 89.0247 471.975 88.3086C469.37 87.5599 466.717 87.1855 464.016 87.1855C462.128 87.1855 460.516 87.4948 459.182 88.1133C457.847 88.6992 456.838 89.5456 456.154 90.6523C455.471 91.7266 455.129 92.9798 455.129 94.4121C455.129 96.1048 455.617 97.5371 456.594 98.709C457.603 99.8483 459.1 100.955 461.086 102.029C463.104 103.104 465.611 104.357 468.605 105.789C472.251 107.514 475.36 109.321 477.932 111.209C480.536 113.064 482.538 115.262 483.938 117.801C485.337 120.307 486.037 123.432 486.037 127.176Z" fill="white"/>
</svg>
