<svg width="131" height="237" viewBox="0 0 131 237" fill="none" xmlns="http://www.w3.org/2000/svg">
<path d="M15.5265 216.927H20.21V216.746H15.5265V216.927Z" fill="#E7E8E5"/>
<path d="M52.5463 99.6143H54.6438V97.5656H52.5463V99.6143Z" fill="#EDEDEB"/>
<path d="M52.5463 103.048H54.6438V101H52.5463V103.048Z" fill="#EDEDEB"/>
<path d="M52.5463 106.483H54.6438V104.435H52.5463V106.483Z" fill="#EDEDEB"/>
<path d="M52.5463 109.917H54.6438V107.868H52.5463V109.917Z" fill="#EDEDEB"/>
<path d="M52.5463 113.351H54.6438V111.303H52.5463V113.351Z" fill="#EDEDEB"/>
<path d="M52.5463 116.786H54.6438V114.737H52.5463V116.786Z" fill="#EDEDEB"/>
<path d="M52.5463 120.22H54.6438V118.171H52.5463V120.22Z" fill="#EDEDEB"/>
<path d="M52.5463 123.654H54.6438V121.606H52.5463V123.654Z" fill="#EDEDEB"/>
<path d="M52.5463 127.089H54.6438V125.04H52.5463V127.089Z" fill="#EDEDEB"/>
<path d="M6.26782 219.711L10.3579 223.744L20.2645 214.822L16.1691 210.782L6.26782 219.711Z" fill="#F9ACAF"/>
<path d="M11.4035 223.841L6.43401 218.939C6.26525 218.775 6.00302 218.746 5.80135 218.869L1.31685 221.632C0.918253 221.883 0.803558 222.401 1.0598 222.791L1.17938 222.934C2.81386 224.496 4.08427 225.553 6.10352 227.545C7.34709 228.772 10.9675 232.599 12.6845 234.293C14.4024 235.987 16.3385 234.551 15.7942 233.705C13.3338 229.923 11.9228 226.653 11.8275 224.773C11.814 224.42 11.662 224.087 11.4035 223.841Z" fill="#17282F"/>
<path d="M11.058 215.39L11.0529 215.385L11.875 214.645L11.8793 214.65L11.058 215.39Z" fill="#C3C5C2"/>
<path d="M15.1481 219.424L11.0578 215.39L11.879 214.649L15.9705 218.684L15.1481 219.424Z" fill="#C3888A"/>
<path d="M11.5293 224.816C11.8439 225.444 12.3909 225.933 13.0601 226.182C13.2465 226.193 13.4262 226.114 13.5423 225.97C13.6155 225.889 13.6214 225.822 13.5948 225.796L13.4964 225.648C12.9011 225.25 12.2333 224.968 11.5293 224.816ZM11.1116 224.671L11.1226 224.518L11.2641 224.473C11.5042 224.525 13.6458 225.036 13.8625 225.711C13.9165 225.862 13.8743 226.03 13.7553 226.139C13.5837 226.359 13.3078 226.476 13.0268 226.448C12.6378 226.373 12.2866 226.172 12.0311 225.876C11.6801 225.509 11.3713 225.105 11.1116 224.671Z" fill="#406FBF"/>
<path d="M13.3283 223.758C12.6687 223.834 12.0493 224.103 11.5513 224.531C12.2937 224.637 13.5021 224.484 13.718 224.174C13.7387 224.143 13.8023 224.062 13.6774 223.938L13.6308 223.893C13.5494 223.813 13.4422 223.766 13.3283 223.758ZM11.0643 224.666L11.107 224.534C11.1697 224.484 12.4564 223.432 13.3187 223.523C13.5309 223.537 13.7269 223.641 13.8556 223.806C14.0079 223.956 14.0308 224.189 13.9103 224.364C13.5576 224.867 11.8315 224.941 11.1787 224.749L11.1322 224.703L11.0643 224.666Z" fill="#406FBF"/>
<path d="M73.2605 75.3894C73.2605 75.3894 82.5015 89.8118 84.2571 91.6538C86.0119 93.4959 97.592 74.5666 98.4698 72.0448C99.3476 69.523 110.93 69.4551 111.721 69.7743C112.513 70.0944 111.98 75.5404 109.76 76.6753C107.539 77.8101 99.9163 77.5096 99.9163 77.5096C99.9163 77.5096 93.2037 98.6378 85.305 99.712C77.4062 100.788 68.799 81.6871 68.799 81.6871L73.2605 75.3894Z" fill="#F9ACAF"/>
<path d="M66.49 68.2099C72.2864 69.2219 79.8924 84.5104 79.8924 84.5104L73.1916 93.0844L64.8572 85.3679L66.49 68.2099Z" fill="#406FBF"/>
<path d="M72.8718 90.7911C72.6048 87.812 71.8187 85.3646 70.9416 83.4691C70.966 82.4447 70.9779 81.4702 70.9779 80.5521C70.9779 77.2046 70.824 74.596 70.6051 72.9729C70.4979 72.1797 70.2273 71.4335 69.8235 70.771C69.6364 70.4626 69.4197 70.1722 69.1771 69.9042C68.479 69.1305 67.5694 68.5389 66.523 68.216C67.9932 68.4854 69.5787 69.6687 71.1258 71.2839C74.6089 74.9204 77.8975 80.7464 79.2464 83.2754L72.8718 90.7911Z" fill="#7DA6DD"/>
<path d="M71.9251 91.9074L70.5807 90.6634C70.7737 88.0679 70.8883 85.653 70.9416 83.4692C71.8186 85.3647 72.6047 87.8122 72.8717 90.7913L71.9251 91.9074Z" fill="#6189CE"/>
<path d="M64.857 118.204C64.857 118.204 51.1403 168.244 41.7462 187.963C32.352 207.681 19.1072 217.969 19.1072 217.969L12.9796 210.588C12.9796 210.588 30.2082 186.648 33.9413 171.874C37.6744 157.099 38.9175 126.521 38.9175 126.521L64.857 118.204Z" fill="#17282F"/>
<path d="M20.1708 217.082L13.5528 209.778C16.57 205.484 30.615 185.04 33.9421 171.873C35.3405 166.339 36.3892 158.587 37.1546 151.056C39.4811 157.469 42.9561 166.547 46.6692 176.084C44.9646 180.629 43.297 184.707 41.747 187.962C40.0905 191.439 38.3149 194.621 36.5127 197.507C33.8112 201.833 31.0513 205.49 28.5488 208.461C27.9394 209.184 27.3448 209.868 26.7702 210.51C26.7399 210.544 26.7096 210.578 26.6793 210.612C26.6246 210.673 26.5706 210.732 26.5166 210.793C23.7293 213.881 21.4346 215.987 20.1708 217.082ZM56.3947 147.083L54.4009 139.061C54.4009 139.061 58.1207 133.919 61.3568 127.202L61.9699 126.833L62.5179 126.504C62.052 128.128 61.5277 129.941 60.9531 131.908C60.7586 132.573 60.5574 133.259 60.3526 133.957C60.218 134.412 60.0819 134.874 59.9436 135.343C59.7447 136.013 59.5421 136.696 59.335 137.391C58.8721 138.946 58.3884 140.557 57.8863 142.211C57.6814 142.887 57.4736 143.571 57.2629 144.259C56.9782 145.19 56.689 146.133 56.3947 147.083Z" fill="#111D23"/>
<path d="M68.9017 230.814L74.4155 229.016L70.6085 216.39L65.0872 218.19L68.9017 230.814Z" fill="#F9ACAF"/>
<path d="M74.9667 228.144L68.2682 230.328C68.0419 230.403 67.8992 230.62 67.9243 230.851L68.476 236.003C68.5292 236.462 68.9545 236.792 69.4255 236.74L69.6104 236.699C71.7661 235.958 73.2999 235.313 76.0213 234.426C77.6978 233.88 82.8145 232.402 85.1292 231.647C87.4439 230.892 86.9825 228.56 85.9656 228.663C81.405 229.144 77.7777 228.933 76.0095 228.185C75.6804 228.041 75.3069 228.026 74.9667 228.144Z" fill="#17282F"/>
<path d="M67.0489 224.708L66.7344 223.662L66.7395 223.659L67.0556 224.706L67.0489 224.708Z" fill="#C3C5C2"/>
<path d="M67.0564 224.707L66.7399 223.661L72.2553 221.863L72.5703 222.909L67.0564 224.707Z" fill="#C3888A"/>
<path d="M75.9191 228.466C76.635 228.468 77.3257 228.205 77.8508 227.729C77.9432 227.57 77.9499 227.378 77.8693 227.213C77.8271 227.113 77.7687 227.079 77.7332 227.089L77.5535 227.111C76.9249 227.456 76.3703 227.916 75.9191 228.466ZM75.6019 228.767L75.4658 228.69L75.4865 228.546C75.6411 228.358 77.0573 226.708 77.7731 226.817C77.9358 226.837 78.0711 226.948 78.1192 227.101C78.2449 227.348 78.2301 227.641 78.08 227.876C77.8397 228.183 77.4988 228.402 77.1142 228.495C76.6217 228.64 76.1144 228.731 75.6019 228.767Z" fill="#406FBF"/>
<path d="M75.7435 226.422C75.5209 227.032 75.4943 227.694 75.6673 228.32C76.0925 227.717 76.4875 226.59 76.2974 226.264C76.2789 226.232 76.2323 226.14 76.0637 226.195L76.0008 226.215C75.8921 226.251 75.8012 226.325 75.7435 226.422ZM75.5756 228.807L75.4728 228.711C75.4543 228.633 75.0587 227.041 75.5238 226.326C75.6311 226.146 75.8123 226.02 76.0215 225.981C76.2257 225.913 76.4505 225.996 76.5577 226.179C76.8639 226.712 76.1672 228.256 75.7021 228.742L75.6392 228.763L75.5756 228.807Z" fill="#406FBF"/>
<path d="M33.9422 114.917C33.9422 114.917 30.3052 128.512 34.5441 143.381C37.7322 154.562 64.9509 222.239 64.9509 222.239L74.416 219.576L54.4009 139.061C54.4009 139.061 61.8863 128.713 64.8577 118.203L33.9422 114.917Z" fill="#17282F"/>
<path d="M75.9629 220.652L64.0662 224.532L61.0978 220.548L75.1479 216.807L75.9629 220.652Z" fill="#406FBF"/>
<path d="M64.0662 224.532L61.0978 220.548L75.1479 216.807L75.9629 220.652L72.2557 221.862L66.7403 223.66L66.7351 223.662L64.0662 224.532Z" fill="#6D97D6"/>
<path d="M18.7208 221.397L9.89508 212.693L12.2389 208.329L21.8911 218.982L18.7208 221.397Z" fill="#406FBF"/>
<path d="M18.7208 221.397L15.9705 218.685L11.8791 214.65L9.89508 212.693L12.2389 208.329L21.8911 218.982L18.7208 221.397Z" fill="#6D97D6"/>
<path d="M37.5922 65.6109C38.1594 71.9404 38.2445 78.3016 37.8451 84.6427C37.5944 89.0687 37.1544 93.2556 36.6671 97.0452C35.5223 105.916 30.8892 122.376 30.8892 122.376L54.7838 128.511L56.9469 118.203L59.1728 128.511L63.9183 125.662C71.3083 102.739 71.5006 79.6178 70.605 72.9726C70.304 70.7361 68.6985 68.8746 66.4933 68.2064C65.404 67.8755 64.1409 67.5143 62.8016 67.1979C62.2773 67.1062 61.7626 66.9646 61.2324 66.8642C56.8818 66.1505 52.4913 65.6838 48.086 65.4649C47.2533 65.4144 46.4013 65.3891 45.5768 65.3768C41.3667 65.2684 37.5922 65.6109 37.5922 65.6109Z" fill="#406FBF"/>
<path d="M61.3561 127.202V127.2L61.9692 126.833L61.3561 127.202Z" fill="#677478"/>
<path d="M59.1759 128.514L59.1751 128.511L61.356 127.2V127.202L59.1759 128.514ZM54.7831 128.514L42.8362 125.443L54.7838 128.511L56.9469 118.203L56.9492 118.211L54.7831 128.514Z" fill="#6C7A7F"/>
<path d="M30.8892 122.373C30.8892 122.373 30.9772 122.062 31.1318 121.501C30.9839 122.037 30.8974 122.346 30.8892 122.374M70.2819 94.1529H70.2812C70.3965 92.9588 70.4956 91.795 70.5792 90.6659L70.5807 90.6667C70.4964 91.7957 70.3973 92.9588 70.2819 94.1529Z" fill="white"/>
<path d="M67.429 112.529C68.2372 108.797 68.8777 105.15 69.3791 101.663H69.3805C68.8784 105.15 68.2372 108.798 67.429 112.529ZM69.6616 99.6147H69.6601C69.9063 97.7365 70.1119 95.9124 70.282 94.1534H70.2828C70.1127 95.9124 69.9078 97.7365 69.6616 99.6147Z" fill="#EDEDEB"/>
<path d="M69.3802 101.662H69.3787C69.4777 100.975 69.5715 100.289 69.6593 99.6144H69.6608C69.5722 100.291 69.4791 100.973 69.3802 101.662Z" fill="#F4F4F2"/>
<path d="M70.5824 90.6669L70.5799 90.6658C70.5799 90.6634 70.5811 90.6611 70.5811 90.6599L70.5824 90.6611C70.5824 90.6634 70.5824 90.6658 70.5824 90.6669Z" fill="#7DA6DD"/>
<path d="M70.9417 83.4689C70.9417 83.4689 70.9409 83.4681 70.9409 83.4674C70.9661 82.4431 70.9779 81.47 70.9779 80.5519C70.9779 81.47 70.9661 82.4445 70.9417 83.4689Z" fill="#ABCAEC"/>
<path d="M70.5812 90.6634L70.5804 90.6626C70.7732 88.0664 70.8876 85.6522 70.9408 83.4677C70.9408 83.4684 70.9415 83.4691 70.9415 83.4691C70.8884 85.6529 70.7739 88.0678 70.5812 90.6634Z" fill="#99B5E2"/>
<path d="M35.9831 101.267C36.2663 99.751 36.5022 98.3207 36.6657 97.0472C36.784 96.1442 36.8949 95.2202 37.0058 94.2732C36.8971 95.2188 36.784 96.1435 36.6679 97.0457C36.5037 98.32 36.2671 99.7503 35.9831 101.267ZM37.6204 65.9492C37.6108 65.8358 37.6004 65.7224 37.5901 65.609C37.5901 65.609 37.9088 65.5808 38.4649 65.5425C38.4612 65.5432 38.4575 65.544 38.4538 65.5447C37.9066 65.5823 37.593 65.6112 37.593 65.6112C37.6026 65.7231 37.613 65.8351 37.6226 65.9478C37.6219 65.9485 37.6211 65.9485 37.6204 65.9492ZM38.6905 65.5288C38.6875 65.5281 38.6846 65.5281 38.6816 65.5281C39.1201 65.4992 39.6748 65.4674 40.3152 65.4385C39.6785 65.4674 39.1275 65.4999 38.6905 65.5288Z" fill="white"/>
<path d="M69.824 70.7713C69.6362 70.4628 69.4195 70.1724 69.1777 69.9044C69.4202 70.1724 69.6369 70.4628 69.824 70.7713Z" fill="#ABCAEC"/>
<path d="M54.7838 128.511L42.8361 125.443L30.8892 122.373C30.8974 122.346 30.9839 122.037 31.1318 121.501C31.9379 118.573 34.5624 108.852 35.9823 101.266C36.2663 99.7498 36.5029 98.3195 36.6671 97.0452C36.7832 96.1429 36.8963 95.2183 37.005 94.2727C42.0855 90.8341 44.7626 80.7208 44.7626 80.7208H44.7618C44.7633 80.7193 44.7648 80.7186 44.7655 80.7172C45.4555 80.1205 45.7646 78.9863 45.7654 77.5943C45.7691 73.1697 42.6601 66.1445 38.7666 65.5363C38.7414 65.5327 38.7155 65.5298 38.6897 65.5283C39.1267 65.4994 39.6776 65.4669 40.3144 65.438C41.3253 65.3933 42.5507 65.3564 43.8714 65.3564C44.2242 65.3564 44.5843 65.3593 44.9482 65.3651C45.8511 68.0444 47.6999 70.0049 49.4947 71.3637C49.4947 71.3637 49.4947 71.3638 49.4955 71.3645C49.4955 71.3645 49.4962 71.3652 49.497 71.3652C51.8072 73.1141 54.0287 73.8654 54.0287 73.8654L55.9714 70.9361C56.7058 72.2364 57.2013 73.9448 57.5326 75.7725C58.5109 81.1903 58.0443 87.6556 58.0443 87.6556L58.0576 87.4816C58.051 87.5942 58.0465 87.6535 58.0465 87.6535L58.5501 81.087L59.3754 70.3784L61.9416 73.1444L62.8016 67.1985C64.1394 67.5163 65.4032 67.8775 66.4896 68.2091C67.5508 68.5284 68.473 69.1236 69.177 69.9038C69.4188 70.1718 69.6355 70.4622 69.8233 70.7707C70.2264 71.4324 70.4963 72.1779 70.6013 72.9696C70.8217 74.5942 70.977 77.2028 70.9777 80.5517C70.9777 81.4699 70.9659 82.4429 70.9408 83.4673C70.8875 85.6518 70.7729 88.0659 70.5799 90.6622C70.5799 90.6629 70.5791 90.6644 70.5791 90.6658C70.4956 91.7949 70.3965 92.9587 70.2811 94.1527C70.111 95.9118 69.9054 97.7358 69.6592 99.614C69.5712 100.289 69.4773 100.974 69.3782 101.662C68.8768 105.15 68.2363 108.796 67.4281 112.528C66.4948 116.834 65.3389 121.251 63.9161 125.66L61.9689 126.833L61.3559 127.2L59.175 128.511L56.9498 118.206L56.9491 118.211L56.9469 118.203L54.7838 128.511ZM37.6218 65.9473C37.6122 65.8346 37.6018 65.7227 37.5922 65.6107C37.5922 65.6107 37.9058 65.5818 38.453 65.5442C38.2001 65.5905 37.9213 65.7299 37.6218 65.9473Z" fill="#7DA6DD"/>
<path d="M50.9993 51.1062C51.3639 55.3322 51.3528 62.9851 48.0856 65.4282C50.4202 68.3921 53.9566 70.2212 57.7792 70.4408C61.4265 70.7514 61.8879 68.2852 61.232 66.8274C56.6351 65.2273 57.1343 61.8213 58.3183 58.697L50.9993 51.1062Z" fill="#F9ACAF"/>
<path d="M57.6636 60.8729C57.7005 60.6894 57.7433 60.5052 57.7913 60.3203C57.7448 60.5037 57.702 60.6879 57.6636 60.8729Z" fill="#C3C5C2"/>
<path d="M57.6519 60.9287C56.3548 60.6043 54.8033 59.3445 54.0652 57.9618C55.2315 58.9501 56.5937 59.489 57.984 59.6342C57.9137 59.861 57.8494 60.09 57.7917 60.3204C57.7436 60.5054 57.7007 60.6896 57.6638 60.873C57.6593 60.8918 57.6556 60.9099 57.6519 60.9287Z" fill="#C3888A"/>
<path d="M51.1839 44.8414C50.8999 50.4651 50.4607 53.7498 53.0423 56.9116C56.9107 61.6938 64.2622 59.8806 66.27 54.4418C68.0582 49.5455 68.1965 41.1579 62.8402 38.3385C59.025 36.297 54.2389 37.6623 52.149 41.3884C51.5537 42.4495 51.2231 43.6328 51.1839 44.8414Z" fill="#F9ACAF"/>
<path d="M59.6973 47.3278C59.6152 47.7756 59.8497 48.1766 60.1588 48.2091C60.4686 48.2416 60.7504 47.8941 60.8037 47.4412C60.8576 46.9883 60.6447 46.5917 60.3422 46.5606C60.0405 46.5295 59.752 46.8676 59.6973 47.3278Z" fill="#17282F"/>
<path d="M64.9669 47.8865C64.8848 48.3343 65.1259 48.736 65.4284 48.767C65.7308 48.7981 66.0192 48.4528 66.0732 47.9992C66.1265 47.5462 65.9142 47.1496 65.6118 47.1186C65.3093 47.0875 65.0165 47.4545 64.9669 47.8865Z" fill="#17282F"/>
<path d="M63.2675 47.9328C63.6675 49.3841 64.2717 50.7747 65.0623 52.0641C64.3634 52.4484 63.5263 52.5105 62.7764 52.2353L63.2675 47.9328Z" fill="#F06B74"/>
<path d="M58.2468 45.4876C58.3466 45.5121 58.4524 45.4832 58.5241 45.4117C58.9922 44.9032 59.6778 44.6395 60.3751 44.7016C60.5238 44.7284 60.6665 44.6323 60.6931 44.4871C60.7205 44.3412 60.6221 44.2025 60.4735 44.1757H60.472C59.5927 44.0753 58.7186 44.3975 58.1263 45.0412C58.0198 45.1452 58.0198 45.3142 58.1263 45.419L58.1307 45.4233L58.2468 45.4876Z" fill="#17282F"/>
<path d="M60.3694 54.0813C59.019 53.8184 57.8839 52.9291 57.3292 51.6975C57.3026 51.6238 57.3411 51.5429 57.4158 51.5147C57.4875 51.4858 57.5696 51.5183 57.5992 51.5891L57.6036 51.5985C58.1405 52.7276 59.1899 53.5424 60.4367 53.7996C60.5129 53.8126 60.5646 53.8834 60.5506 53.9578L60.5476 53.973C60.5343 54.0474 60.4611 54.0979 60.3849 54.0849L60.3694 54.0813Z" fill="#17282F"/>
<path d="M67.4271 46.3513L67.5876 46.3795C67.7303 46.3318 67.8072 46.1801 67.7584 46.0407L67.7562 46.0349C67.4759 45.2114 66.8029 44.5728 65.9525 44.3236C65.8053 44.2889 65.6582 44.3778 65.6227 44.5215V44.5222C65.5916 44.6653 65.6811 44.8069 65.8268 44.8444C66.4923 45.0604 67.0137 45.5711 67.2333 46.2213C67.2755 46.2906 67.3465 46.3383 67.4271 46.3513Z" fill="#17282F"/>
<path d="M52.1578 49.5988C52.1578 49.5988 55.8043 44.9972 54.874 40.7597C54.874 40.7597 57.7219 40.2244 60.5431 42.0535C60.5431 42.0535 60.6016 40.5567 60.4152 40.098C60.4152 40.098 65.5585 40.4498 68.1128 43.6572C68.1128 43.6572 68.1572 40.6412 66.2485 38.5087C66.2485 38.5087 67.4258 38.2595 68.5055 38.7652C68.5055 38.7652 64.3731 34.5125 56.8071 35.6279C49.2411 36.7432 46.3777 40.7655 47.1727 47.3232C47.9662 53.8803 51.2888 55.7303 51.2888 55.7303C51.2888 55.7303 50.4968 50.7119 50.9664 49.6724C51.4353 48.6337 52.1578 49.5988 52.1578 49.5988Z" fill="#17282F"/>
<path d="M47.9123 50.734C48.5497 52.0069 49.6782 52.9814 51.0501 53.443C52.8707 54.0411 53.8809 52.4721 53.4631 50.7398C53.0771 49.204 51.6742 46.9906 49.8017 47.1611C47.93 47.3309 47.1491 49.1614 47.9123 50.734Z" fill="#F9ACAF"/>
<path d="M62.8454 35.7419C60.859 36.0691 59.1182 36.5243 57.5815 37.0617C56.2415 37.5291 55.0605 38.0514 54.0303 38.6148L54.0163 38.6235C48.4462 41.6192 47.0241 45.4934 47.0241 45.4934C47.0241 45.4934 46.8511 44.9978 46.6078 44.2306C46.3667 43.4786 46.0561 42.4702 45.7662 41.4314L45.7655 41.4242C45.216 39.4745 44.7568 37.433 45.023 36.8522C47.3939 31.6301 54.9237 30.1622 55.9353 30.4541C56.5469 30.6332 58.8993 32.4919 60.6919 33.9583C61.5985 34.6908 62.3595 35.3309 62.6812 35.6076C62.7906 35.695 62.8454 35.7419 62.8454 35.7419Z" fill="#406FBF"/>
<path d="M45.9829 42.1896C45.9105 41.9411 45.8372 41.6868 45.7662 41.4311L45.7655 41.4239C47.848 39.3831 53.4085 34.6501 60.692 33.958C60.9797 34.1906 61.2525 34.4139 61.5018 34.619C55.3652 35.8868 49.6665 38.9974 45.9829 42.1896Z" fill="#A4C3E9"/>
<path d="M47.1724 47.3234C47.1724 47.3234 42.103 50.8017 41.7813 48.9488C40.959 44.2035 54.4174 33.7889 67.5579 34.028C78.3437 34.2245 66.7377 37.4427 66.7377 37.4427C62.4456 35.9929 46.8359 42.6207 47.1724 47.3234Z" fill="#406FBF"/>
<path d="M42.5229 49.4928C42.1265 49.4928 41.8492 49.339 41.7812 48.9489C41.7575 48.8109 41.7457 48.6693 41.7457 48.5227C41.739 43.6661 54.4965 34.0237 67.1119 34.0237C67.2613 34.0237 67.4085 34.0251 67.5579 34.028C70.9811 34.0909 72.1488 34.4571 72.1481 34.9288C72.1458 35.9431 66.7377 37.4427 66.7377 37.4427C66.3288 37.3048 65.8156 37.2398 65.2247 37.2398C59.6798 37.2398 47.1664 42.9329 47.1664 47.1733C47.1664 47.2238 47.1686 47.2737 47.1723 47.3235C47.1723 47.3235 44.0108 49.4921 42.5229 49.4928Z" fill="#2D5BB2"/>
<path d="M48.7348 62.6485C48.7348 62.6485 51.2795 65.2325 57.3213 68.0122C57.3213 68.0122 58.7538 66.9351 58.9372 63.6483L62.8019 67.1981L61.9419 73.1447L59.3728 70.3751L58.0468 87.6538C58.0468 87.6538 58.8817 76.0885 55.9717 70.9357L54.0283 73.8642C54.0283 73.8642 47.0065 71.4919 44.9455 65.3553L48.7348 62.6485Z" fill="#406FBF"/>
<path d="M58.0444 87.6561C58.0444 87.6561 58.511 81.1907 57.5327 75.7728C58.4193 80.6692 58.1228 86.4222 58.0577 87.482L58.0444 87.6561ZM58.5502 81.0874L59.3726 70.3774C59.3726 70.3774 59.3733 70.3774 59.3741 70.3774L59.3755 70.3788L58.5502 81.0874Z" fill="#C6DAF2"/>
<path d="M59.3726 70.3776V70.3736L59.3752 70.3776C59.3739 70.3776 59.3726 70.3776 59.3726 70.3776Z" fill="#FCDBDD"/>
<path d="M54.0289 73.8657C54.0289 73.8657 51.8073 73.1145 49.4971 71.3656C51.8073 73.1137 54.0281 73.8643 54.0281 73.8643L55.9716 70.9358C55.9716 70.9365 55.9716 70.9365 55.9716 70.9365L54.0289 73.8657Z" fill="#C6DAF2"/>
<path d="M47.1132 63.8073L48.7342 62.6472C48.7342 62.6472 48.7342 62.6479 48.735 62.6486L47.1132 63.8073Z" fill="white"/>
<path d="M58.0577 87.4819C58.1228 86.4222 58.4194 80.6691 57.5327 75.7728C57.2021 73.9437 56.7074 72.2346 55.9738 70.9328L55.9716 70.9364C55.9716 70.9364 55.9716 70.9364 55.9716 70.9357L54.0281 73.8643C54.0281 73.8643 51.8073 73.1137 49.4971 71.3655C49.4963 71.3655 49.4956 71.3648 49.4956 71.3648C49.4949 71.3641 49.4949 71.3641 49.4949 71.3641C47.6971 70.0031 45.8468 68.039 44.9476 65.356L47.1129 63.8072L48.7346 62.6485C48.7953 62.7085 51.3496 65.2664 57.3197 68.0144C57.3197 68.0144 58.0962 72.6521 58.3107 77.0088L58.5007 67.4112C59.3157 66.2207 59.3519 64.5231 58.9392 63.6512L62.7995 67.1981L61.9417 73.144L59.3756 70.3766V70.3788L59.3741 70.3773L59.3726 70.3751V70.3773L58.5503 81.0874L58.0577 87.4819Z" fill="#A4C3E9"/>
<path d="M57.3259 68.0088L57.3371 67.9969C57.3644 67.9761 57.414 67.9335 57.4798 67.8692C57.3998 67.9484 57.3452 67.993 57.3259 68.0088Z" fill="#C2AAAA"/>
<path d="M58.3106 77.009C58.0961 72.6523 57.3196 68.0146 57.3196 68.0146L57.3263 68.0088C57.3404 67.9973 57.3803 67.9647 57.4387 67.907C57.7892 67.5667 58.7898 66.3625 58.9392 63.6514C59.3518 64.5233 59.3156 66.2209 58.5007 67.4114L58.3106 77.009Z" fill="#7F9BCF"/>
<path d="M26.2085 126.71C26.2085 126.71 27.0922 128.044 27.1869 130.426C27.2816 132.807 26.7883 137.464 26.2085 138.047C25.8676 138.388 20.1785 136.832 19.6261 135.45C19.3739 134.821 20.3575 128.425 21.5274 126.71C22.698 124.995 26.2085 126.71 26.2085 126.71Z" fill="#F9ACAF"/>
<path d="M37.0048 94.2731C37.0742 93.6663 37.1422 93.0515 37.2079 92.4288C37.1422 93.0515 37.075 93.6663 37.0048 94.2731Z" fill="#C3C4C2"/>
<path d="M37.0048 94.2731C37.0751 93.6663 37.1424 93.0515 37.2082 92.4288C37.3916 90.6872 37.5572 88.8848 37.6926 87.0334C39.6212 85.2866 42.8389 82.3856 44.7616 80.7212H44.7624C44.7624 80.7212 42.0853 90.8345 37.0048 94.2731Z" fill="#6189CE"/>
<path d="M30.8894 78.6975C30.8894 78.6975 24.0171 90.5121 22.7717 94.5133C21.5271 98.5139 21.5271 126.711 21.5271 126.711H26.2082C26.2082 126.711 29.1338 98.7046 30.8894 95.0847C32.6443 91.4649 38.9176 83.1178 38.9176 83.1178L30.8894 78.6975Z" fill="#F9ACAF"/>
<path d="M38.767 65.5365C35.6211 65.0453 27.1869 83.0449 27.1869 83.0449L36.0878 88.4903C36.0878 88.4903 41.8841 83.2118 44.766 80.7174C47.6479 78.2237 43.8845 66.3362 38.767 65.5365Z" fill="#406FBF"/>
<path d="M36.7052 87.9285L27.6432 82.0895C29.4129 78.4328 35.854 65.5274 38.6369 65.5274C38.6805 65.5274 38.7241 65.5303 38.7663 65.5368C42.6598 66.145 45.7688 73.1702 45.7651 77.5948C45.7643 78.9868 45.4552 80.121 44.7652 80.7177C44.7645 80.7191 44.763 80.7198 44.7615 80.7213C42.8388 82.3856 39.6212 85.2867 37.6925 87.0335C37.6918 87.0342 37.691 87.0349 37.6903 87.0356C37.3028 87.386 36.9678 87.6901 36.7052 87.9285Z" fill="#7DA6DD"/>
<path d="M27.1867 81.7956L37.5784 88.4907L35.2778 90.5119L26.0619 84.6541L27.1867 81.7956Z" fill="#406FBF"/>
<path d="M35.2778 90.5119L34.1433 89.7917L27.163 85.3534L26.0619 84.6541L27.1867 81.7956L37.5784 88.4907H37.5777L35.2778 90.5119Z" fill="#A4C3E9"/>
<path d="M71.447 92.4698L79.3894 83.1071L81.1968 85.561L74.2328 93.8727L71.447 92.4698Z" fill="#406FBF"/>
<path d="M74.2328 93.8727L71.447 92.4698L79.3894 83.1071L81.1968 85.561L81.1458 85.6224L80.4847 86.4105L75.2156 92.6996L74.2328 93.8727Z" fill="#A4C3E9"/>
<path d="M101.849 70.2902L109.686 59.6741C109.789 59.5325 109.967 59.4625 110.143 59.4921L115.262 60.3683C115.601 60.4268 115.76 60.8133 115.556 61.0842L107.542 71.7271C107.436 71.8672 107.258 71.9366 107.083 71.9048L102.14 71.0018C101.806 70.9404 101.65 70.5597 101.849 70.2902Z" fill="#17282F"/>
<path d="M101.287 69.9839L109.125 59.3677C109.228 59.2261 109.406 59.1561 109.581 59.1864L114.701 60.0627C115.04 60.1204 115.198 60.5069 114.995 60.7778L106.981 71.4214C106.875 71.5616 106.696 71.6302 106.522 71.5984L101.579 70.6954C101.244 70.634 101.088 70.254 101.287 69.9839Z" fill="#17282F"/>
<path d="M109.44 59.7193L114.341 60.5768L106.515 70.865L101.761 70.0075L109.44 59.7193Z" fill="white"/>
<path d="M130.22 19.4331C130.22 8.7006 121.313 0.000192165 110.326 0.000192165C99.3391 0.000192165 90.4324 8.7006 90.4324 19.4331C90.4324 29.3073 97.974 37.4558 107.737 38.6962L108.704 48.9013L110.533 38.8602C121.425 38.7518 130.22 30.0976 130.22 19.4331Z" fill="#17282F"/>
<path d="M110.097 22.3541C107.545 22.3541 105.476 20.1963 105.476 17.5344C105.476 14.8721 107.545 12.7143 110.097 12.7143C112.65 12.7143 114.719 14.8721 114.719 17.5344C114.719 20.1963 112.65 22.3541 110.097 22.3541ZM120.598 17.5851C120.598 10.8425 114.755 5.52243 108.062 6.83257C103.851 7.65695 100.496 11.2428 99.7584 15.6439C99.2975 18.3949 99.8417 20.9827 101.045 23.1186H101.04L101.069 23.1598C101.472 23.8676 101.976 24.3735 102.486 25.117L108.583 33.5408C109.342 34.5891 110.852 34.5891 111.611 33.5408L117.606 25.2564C117.606 25.2564 118.726 23.8644 119.132 23.1483L119.153 23.1186H119.149C120.065 21.4936 120.598 19.6068 120.598 17.5851Z" fill="#7DA6DD"/>
</svg>
