<svg width="154" height="237" viewBox="0 0 154 237" fill="none" xmlns="http://www.w3.org/2000/svg">
<path d="M0.190125 216.746H32.1324V216.927H0.190125V216.746Z" fill="#E7E8E5"/>
<path d="M38.7166 216.927H43.4001V216.746H38.7166V216.927Z" fill="#E7E8E5"/>
<path d="M107.563 166.914H109.66V164.865H107.563V166.914Z" fill="#EDEDEB"/>
<path d="M110.893 98.2288H112.991V96.1801H110.893V98.2288Z" fill="#EDEDEB"/>
<path d="M110.893 101.662H112.991V99.6145H110.893V101.662Z" fill="#EDEDEB"/>
<path d="M114.224 98.2288H116.321V96.1801H114.224V98.2288Z" fill="#EDEDEB"/>
<path d="M75.7364 99.6143H77.834V97.5656H75.7364V99.6143Z" fill="#EDEDEB"/>
<path d="M75.7364 103.048H77.834V101H75.7364V103.048Z" fill="#EDEDEB"/>
<path d="M75.7364 106.483H77.834V104.435H75.7364V106.483Z" fill="#EDEDEB"/>
<path d="M75.7364 109.917H77.834V107.868H75.7364V109.917Z" fill="#EDEDEB"/>
<path d="M75.7364 113.351H77.834V111.303H75.7364V113.351Z" fill="#EDEDEB"/>
<path d="M75.7364 116.786H77.834V114.737H75.7364V116.786Z" fill="#EDEDEB"/>
<path d="M75.7364 120.22H77.834V118.171H75.7364V120.22Z" fill="#EDEDEB"/>
<path d="M75.7364 123.654H77.834V121.606H75.7364V123.654Z" fill="#EDEDEB"/>
<path d="M75.7364 127.089H77.834V125.04H75.7364V127.089Z" fill="#EDEDEB"/>
<path d="M29.4579 219.711L33.5481 223.744L43.4546 214.822L39.3592 210.782L29.4579 219.711Z" fill="#F9ACAF"/>
<path d="M34.5936 223.841L29.6241 218.939C29.4554 218.775 29.1931 218.746 28.9915 218.869L24.507 221.632C24.1084 221.882 23.9937 222.401 24.2499 222.791L24.3695 222.934C26.004 224.495 27.2744 225.553 29.2936 227.545C30.5372 228.772 34.1576 232.599 35.8747 234.293C37.5925 235.987 39.5286 234.551 38.9843 233.705C36.5239 229.923 35.1129 226.653 35.0176 224.773C35.0041 224.42 34.8521 224.087 34.5936 223.841Z" fill="#17282F"/>
<path d="M34.2481 215.39L34.243 215.385L35.0651 214.645L35.0694 214.65L34.2481 215.39Z" fill="#C3C5C2"/>
<path d="M38.3382 219.424L34.2479 215.39L35.0691 214.649L39.1606 218.684L38.3382 219.424Z" fill="#C3888A"/>
<path d="M34.7194 224.816C35.034 225.444 35.5809 225.933 36.2502 226.182C36.4366 226.193 36.6163 226.114 36.7324 225.97C36.8056 225.889 36.8115 225.822 36.7849 225.796L36.6865 225.648C36.0912 225.25 35.4234 224.968 34.7194 224.816ZM34.3017 224.671L34.3127 224.518L34.4542 224.473C34.6943 224.525 36.8359 225.036 37.0526 225.711C37.1066 225.862 37.0644 226.03 36.9453 226.139C36.7738 226.359 36.4979 226.476 36.2169 226.448C35.8279 226.373 35.4767 226.172 35.2212 225.876C34.8702 225.509 34.5614 225.105 34.3017 224.671Z" fill="#406FBF"/>
<path d="M36.5184 223.758C35.8588 223.834 35.2394 224.103 34.7414 224.531C35.4838 224.637 36.6922 224.484 36.9081 224.174C36.9289 224.143 36.9925 224.062 36.8675 223.938L36.8209 223.893C36.7395 223.813 36.6323 223.766 36.5184 223.758ZM34.2544 224.666L34.2971 224.534C34.3598 224.484 35.6465 223.432 36.5088 223.523C36.7211 223.537 36.917 223.641 37.0457 223.806C37.198 223.956 37.221 224.189 37.1004 224.364C36.7477 224.867 35.0216 224.941 34.3688 224.749L34.3223 224.703L34.2544 224.666Z" fill="#406FBF"/>
<path d="M96.4505 75.3894C96.4505 75.3894 105.692 89.8117 107.447 91.6538C109.202 93.4959 120.782 74.5666 121.66 72.0448C122.538 69.5229 134.12 69.455 134.911 69.7743C135.703 70.0944 135.17 75.5404 132.95 76.6752C130.729 77.8101 123.106 77.5096 123.106 77.5096C123.106 77.5096 116.394 98.6378 108.495 99.712C100.596 100.788 91.989 81.6871 91.989 81.6871L96.4505 75.3894Z" fill="#F9ACAF"/>
<path d="M89.6802 68.2099C95.4765 69.2219 103.083 84.5104 103.083 84.5104L96.3817 93.0843L88.0473 85.3679L89.6802 68.2099Z" fill="#406FBF"/>
<path d="M96.0619 90.7911C95.7949 87.812 95.0088 85.3646 94.1317 83.469C94.1561 82.4447 94.168 81.4702 94.168 80.5521C94.168 77.2045 94.0141 74.596 93.7952 72.9728C93.688 72.1797 93.4174 71.4334 93.0136 70.771C92.8265 70.4626 92.6098 70.1722 92.3672 69.9042C91.6691 69.1305 90.7595 68.5389 89.7131 68.216C91.1833 68.4854 92.7688 69.6687 94.3159 71.2839C97.799 74.9204 101.088 80.7464 102.437 83.2754L96.0619 90.7911Z" fill="#7DA6DD"/>
<path d="M95.1153 91.9074L93.7708 90.6634C93.9638 88.0679 94.0785 85.653 94.1317 83.4692C95.0088 85.3647 95.7949 87.8122 96.0619 90.7913L95.1153 91.9074Z" fill="#6189CE"/>
<path d="M88.0471 118.204C88.0471 118.204 74.3305 168.244 64.9363 187.963C55.5422 207.681 42.2974 217.969 42.2974 217.969L36.1697 210.588C36.1697 210.588 53.3983 186.648 57.1314 171.874C60.8645 157.099 62.1077 126.521 62.1077 126.521L88.0471 118.204Z" fill="#17282F"/>
<path d="M43.3609 217.082L36.7429 209.778C39.7601 205.484 53.8051 185.04 57.1322 171.873C58.5306 166.339 59.5793 158.587 60.3447 151.056C62.6712 157.469 66.1462 166.547 69.8593 176.084C68.1547 180.629 66.4871 184.707 64.9371 187.962C63.2806 191.439 61.505 194.621 59.7028 197.507C57.0013 201.833 54.2414 205.49 51.7389 208.461C51.1295 209.184 50.5349 209.868 49.9603 210.51C49.93 210.544 49.8997 210.578 49.8694 210.612C49.8146 210.673 49.7607 210.732 49.7067 210.793C46.9194 213.881 44.6247 215.987 43.3609 217.082ZM79.5848 147.083L77.591 139.061C77.591 139.061 81.3108 133.919 84.5469 127.202L85.16 126.833L85.708 126.504C85.2421 128.128 84.7178 129.941 84.1432 131.908C83.9487 132.573 83.7475 133.259 83.5427 133.957C83.4081 134.412 83.272 134.874 83.1337 135.343C82.9348 136.013 82.7322 136.696 82.5251 137.391C82.0621 138.946 81.5785 140.557 81.0764 142.211C80.8715 142.887 80.6637 143.571 80.453 144.259C80.1682 145.19 79.8791 146.133 79.5848 147.083Z" fill="#111D23"/>
<path d="M92.0918 230.814L97.6056 229.016L93.7986 216.39L88.2773 218.19L92.0918 230.814Z" fill="#F9ACAF"/>
<path d="M98.1569 228.144L91.4583 230.328C91.232 230.403 91.0893 230.62 91.1144 230.851L91.6661 236.003C91.7194 236.462 92.1446 236.792 92.6157 236.74L92.8005 236.699C94.9562 235.958 96.49 235.313 99.2114 234.426C100.888 233.88 106.005 232.402 108.319 231.647C110.634 230.892 110.173 228.56 109.156 228.663C104.595 229.144 100.968 228.933 99.1996 228.185C98.8705 228.041 98.497 228.026 98.1569 228.144Z" fill="#17282F"/>
<path d="M90.2391 224.708L89.9245 223.662L89.9297 223.659L90.2457 224.706L90.2391 224.708Z" fill="#C3C5C2"/>
<path d="M90.2466 224.707L89.9301 223.661L95.4454 221.863L95.7604 222.909L90.2466 224.707Z" fill="#C3888A"/>
<path d="M99.1092 228.466C99.8251 228.468 100.516 228.205 101.041 227.729C101.133 227.57 101.14 227.378 101.059 227.213C101.017 227.112 100.959 227.079 100.923 227.089L100.744 227.111C100.115 227.456 99.5603 227.916 99.1092 228.466ZM98.792 228.767L98.6559 228.69L98.6766 228.546C98.8312 228.358 100.247 226.708 100.963 226.817C101.126 226.837 101.261 226.948 101.309 227.101C101.435 227.348 101.42 227.641 101.27 227.876C101.03 228.183 100.689 228.402 100.304 228.495C99.8118 228.64 99.3045 228.731 98.792 228.767Z" fill="#406FBF"/>
<path d="M98.9336 226.422C98.711 227.032 98.6844 227.694 98.8575 228.32C99.2827 227.717 99.6776 226.59 99.4875 226.264C99.4691 226.232 99.4225 226.14 99.2539 226.195L99.191 226.215C99.0823 226.251 98.9913 226.325 98.9336 226.422ZM98.7658 228.807L98.663 228.711C98.6445 228.633 98.2488 227.041 98.714 226.326C98.8212 226.146 99.0024 226.02 99.2117 225.981C99.4158 225.913 99.6406 225.996 99.7479 226.179C100.054 226.712 99.3574 228.256 98.8922 228.742L98.8294 228.763L98.7658 228.807Z" fill="#406FBF"/>
<path d="M57.1323 114.917C57.1323 114.917 53.4953 128.512 57.7342 143.381C60.9223 154.562 88.141 222.239 88.141 222.239L97.6061 219.576L77.591 139.061C77.591 139.061 85.0764 128.713 88.0478 118.203L57.1323 114.917Z" fill="#17282F"/>
<path d="M99.153 220.652L87.2563 224.532L84.2879 220.548L98.3381 216.807L99.153 220.652Z" fill="#406FBF"/>
<path d="M87.2563 224.532L84.2879 220.548L98.3381 216.807L99.153 220.652L95.4458 221.862L89.9304 223.66L89.9253 223.662L87.2563 224.532Z" fill="#6D97D6"/>
<path d="M41.9109 221.397L33.0852 212.692L35.429 208.329L45.0812 218.982L41.9109 221.397Z" fill="#406FBF"/>
<path d="M41.9109 221.397L39.1606 218.685L35.0692 214.65L33.0852 212.692L35.429 208.329L45.0812 218.982L41.9109 221.397Z" fill="#6D97D6"/>
<path d="M60.7823 65.6108C61.3495 71.9403 61.4346 78.3016 61.0352 84.6427C60.7845 89.0687 60.3445 93.2556 59.8572 97.0452C58.7124 105.916 54.0793 122.376 54.0793 122.376L77.9739 128.511L80.137 118.203L82.3629 128.511L87.1084 125.662C94.4984 102.739 94.6907 79.6178 93.7951 72.9726C93.4941 70.7361 91.8887 68.8745 89.6834 68.2063C88.5941 67.8755 87.331 67.5143 85.9917 67.1979C85.4674 67.1062 84.9527 66.9646 84.4225 66.8642C80.0719 66.1504 75.6814 65.6838 71.2761 65.4649C70.4434 65.4143 69.5915 65.3891 68.7669 65.3768C64.5568 65.2684 60.7823 65.6108 60.7823 65.6108Z" fill="#406FBF"/>
<path d="M84.5462 127.202V127.2L85.1593 126.833L84.5462 127.202Z" fill="#677478"/>
<path d="M82.3659 128.514L82.3652 128.511L84.546 127.2V127.202L82.3659 128.514ZM77.9732 128.514L66.0263 125.443L77.9739 128.511L80.137 118.203L80.1392 118.211L77.9732 128.514Z" fill="#6C7A7F"/>
<path d="M54.0793 122.373C54.0793 122.373 54.1673 122.062 54.3219 121.501C54.174 122.037 54.0875 122.346 54.0793 122.374M93.472 94.1529H93.4713C93.5867 92.9588 93.6858 91.795 93.7693 90.6659L93.7708 90.6667C93.6865 91.7957 93.5874 92.9588 93.472 94.1529Z" fill="white"/>
<path d="M90.619 112.529C91.4273 108.797 92.0678 105.15 92.5692 101.663H92.5706C92.0685 105.15 91.4273 108.798 90.619 112.529ZM92.8517 99.6146H92.8502C93.0964 97.7364 93.302 95.9124 93.4721 94.1534H93.4728C93.3028 95.9124 93.0979 97.7364 92.8517 99.6146Z" fill="#EDEDEB"/>
<path d="M92.5703 101.662H92.5688C92.6678 100.975 92.7616 100.289 92.8494 99.6144H92.8509C92.7623 100.291 92.6693 100.973 92.5703 101.662Z" fill="#F4F4F2"/>
<path d="M93.7725 90.6669L93.77 90.6657C93.77 90.6634 93.7712 90.6611 93.7712 90.6599L93.7725 90.6611C93.7725 90.6634 93.7725 90.6657 93.7725 90.6669Z" fill="#7DA6DD"/>
<path d="M94.1318 83.4689C94.1318 83.4689 94.131 83.4681 94.131 83.4674C94.1562 82.4431 94.168 81.47 94.168 80.5519C94.168 81.47 94.1562 82.4445 94.1318 83.4689Z" fill="#ABCAEC"/>
<path d="M93.7713 90.6634L93.7705 90.6626C93.9633 88.0664 94.0777 85.6522 94.1309 83.4677C94.1309 83.4684 94.1316 83.4691 94.1316 83.4691C94.0785 85.6529 93.964 88.0678 93.7713 90.6634Z" fill="#99B5E2"/>
<path d="M59.1732 101.267C59.4565 99.751 59.6924 98.3207 59.8558 97.0471C59.9741 96.1442 60.085 95.2202 60.196 94.2732C60.0873 95.2188 59.9741 96.1434 59.858 97.0457C59.6938 98.32 59.4572 99.7503 59.1732 101.267ZM60.8105 65.9492C60.8009 65.8358 60.7905 65.7224 60.7802 65.609C60.7802 65.609 61.0989 65.5808 61.655 65.5425C61.6513 65.5432 61.6476 65.544 61.644 65.5447C61.0967 65.5822 60.7831 65.6111 60.7831 65.6111C60.7928 65.7231 60.8031 65.8351 60.8127 65.9478C60.812 65.9485 60.8113 65.9485 60.8105 65.9492ZM61.8806 65.5288C61.8776 65.5281 61.8747 65.5281 61.8717 65.5281C62.3103 65.4992 62.8649 65.4674 63.5053 65.4385C62.8686 65.4674 62.3177 65.4999 61.8806 65.5288Z" fill="white"/>
<path d="M93.0141 70.7713C92.8263 70.4628 92.6096 70.1724 92.3678 69.9044C92.6104 70.1724 92.827 70.4628 93.0141 70.7713Z" fill="#ABCAEC"/>
<path d="M77.9739 128.511L66.0262 125.443L54.0793 122.373C54.0875 122.346 54.174 122.037 54.3219 121.501C55.128 118.573 57.7525 108.852 59.1724 101.266C59.4564 99.7498 59.693 98.3194 59.8572 97.0452C59.9733 96.1429 60.0864 95.2182 60.1952 94.2726C65.2756 90.8341 67.9527 80.7208 67.9527 80.7208H67.952C67.9534 80.7193 67.9549 80.7186 67.9556 80.7171C68.6456 80.1205 68.9547 78.9863 68.9555 77.5943C68.9592 73.1697 65.8502 66.1445 61.9567 65.5363C61.9315 65.5327 61.9057 65.5298 61.8798 65.5283C62.3168 65.4994 62.8678 65.4669 63.5045 65.438C64.5154 65.3932 65.7408 65.3564 67.0616 65.3564C67.4143 65.3564 67.7745 65.3593 68.1383 65.3651C69.0413 68.0444 70.8901 70.0049 72.6849 71.3637C72.6849 71.3637 72.6849 71.3637 72.6856 71.3645C72.6856 71.3645 72.6864 71.3652 72.6871 71.3652C74.9973 73.1141 77.2188 73.8653 77.2188 73.8653L79.1616 70.9361C79.8959 72.2364 80.3914 73.9448 80.7227 75.7724C81.7011 81.1903 81.2344 87.6556 81.2344 87.6556L81.2477 87.4815C81.2411 87.5942 81.2367 87.6535 81.2367 87.6535L81.7403 81.087L82.5656 70.3784L85.1317 73.1444L85.9917 67.1985C87.3295 67.5163 88.5934 67.8775 89.6797 68.2091C90.7409 68.5284 91.6631 69.1236 92.3671 69.9038C92.609 70.1718 92.8256 70.4622 93.0135 70.7707C93.4165 71.4324 93.6864 72.1779 93.7914 72.9696C94.0118 74.5942 94.1671 77.2027 94.1679 80.5517C94.1679 81.4699 94.156 82.4429 94.1309 83.4673C94.0776 85.6517 93.963 88.0659 93.77 90.6622C93.77 90.6629 93.7693 90.6643 93.7693 90.6658C93.6857 91.7949 93.5866 92.9586 93.4712 94.1527C93.3011 95.9117 93.0956 97.7357 92.8493 99.6139C92.7613 100.289 92.6674 100.974 92.5683 101.662C92.0669 105.15 91.4265 108.796 90.6182 112.528C89.6849 116.834 88.529 121.251 87.1062 125.66L85.159 126.833L84.546 127.2L82.3652 128.511L80.1399 118.206L80.1392 118.211L80.137 118.203L77.9739 128.511ZM60.8119 65.9473C60.8023 65.8346 60.7919 65.7227 60.7823 65.6107C60.7823 65.6107 61.0959 65.5818 61.6431 65.5442C61.3902 65.5904 61.1114 65.7299 60.8119 65.9473Z" fill="#7DA6DD"/>
<path d="M74.1894 51.1062C74.5539 55.3322 74.5429 62.9851 71.2757 65.4282C73.6103 68.3921 77.1467 70.2211 80.9693 70.4408C84.6166 70.7514 85.078 68.2852 84.4221 66.8274C79.8252 65.2273 80.3244 61.8213 81.5084 58.697L74.1894 51.1062Z" fill="#F9ACAF"/>
<path d="M80.8537 60.8729C80.8906 60.6894 80.9334 60.5052 80.9814 60.3202C80.9349 60.5037 80.8921 60.6879 80.8537 60.8729Z" fill="#C3C5C2"/>
<path d="M80.842 60.9286C79.5449 60.6043 77.9934 59.3445 77.2553 57.9618C78.4216 58.95 79.7838 59.489 81.1741 59.6341C81.1038 59.861 81.0395 60.09 80.9818 60.3204C80.9337 60.5053 80.8908 60.6895 80.8539 60.873C80.8494 60.8918 80.8457 60.9099 80.842 60.9286Z" fill="#C3888A"/>
<path d="M74.3741 44.8414C74.0901 50.4651 73.6508 53.7498 76.2325 56.9116C80.1009 61.6938 87.4524 59.8806 89.4602 54.4418C91.2483 49.5455 91.3866 41.1579 86.0303 38.3385C82.2152 36.297 77.429 37.6623 75.3391 41.3884C74.7438 42.4495 74.4133 43.6328 74.3741 44.8414Z" fill="#F9ACAF"/>
<path d="M82.8874 47.3278C82.8054 47.7756 83.0398 48.1766 83.3489 48.2091C83.6588 48.2416 83.9405 47.8941 83.9938 47.4412C84.0478 46.9883 83.8348 46.5917 83.5323 46.5606C83.2306 46.5295 82.9422 46.8676 82.8874 47.3278Z" fill="#17282F"/>
<path d="M88.1571 47.8864C88.075 48.3343 88.3161 48.736 88.6185 48.767C88.921 48.7981 89.2094 48.4528 89.2634 47.9991C89.3166 47.5462 89.1044 47.1496 88.8019 47.1186C88.4995 47.0875 88.2066 47.4545 88.1571 47.8864Z" fill="#17282F"/>
<path d="M86.4576 47.9328C86.8577 49.3841 87.4619 50.7747 88.2524 52.0641C87.5536 52.4484 86.7164 52.5105 85.9666 52.2353L86.4576 47.9328Z" fill="#F06B74"/>
<path d="M81.4369 45.4876C81.5367 45.5121 81.6425 45.4832 81.7142 45.4117C82.1823 44.9032 82.8679 44.6395 83.5652 44.7016C83.7139 44.7283 83.8566 44.6323 83.8832 44.4871C83.9106 44.3411 83.8122 44.2024 83.6636 44.1757H83.6621C82.7828 44.0753 81.9087 44.3975 81.3163 45.0411C81.2099 45.1452 81.2099 45.3142 81.3163 45.4189L81.3208 45.4233L81.4369 45.4876Z" fill="#17282F"/>
<path d="M83.5595 54.0813C82.2092 53.8184 81.074 52.9291 80.5194 51.6975C80.4928 51.6238 80.5312 51.5429 80.6059 51.5147C80.6776 51.4858 80.7597 51.5183 80.7893 51.5891L80.7937 51.5985C81.3306 52.7276 82.38 53.5424 83.6268 53.7996C83.703 53.8126 83.7548 53.8834 83.7407 53.9578L83.7378 53.973C83.7245 54.0474 83.6512 54.0979 83.5751 54.0849L83.5595 54.0813Z" fill="#17282F"/>
<path d="M90.6172 46.3513L90.7777 46.3795C90.9204 46.3318 90.9973 46.1801 90.9485 46.0407L90.9463 46.0349C90.666 45.2114 89.9931 44.5728 89.1426 44.3236C88.9954 44.2889 88.8483 44.3777 88.8128 44.5215V44.5222C88.7817 44.6653 88.8712 44.8068 89.0169 44.8444C89.6825 45.0604 90.2038 45.5711 90.4235 46.2213C90.4656 46.2906 90.5366 46.3383 90.6172 46.3513Z" fill="#17282F"/>
<path d="M75.3479 49.5987C75.3479 49.5987 78.9944 44.9972 78.0641 40.7597C78.0641 40.7597 80.912 40.2244 83.7332 42.0535C83.7332 42.0535 83.7917 40.5567 83.6053 40.098C83.6053 40.098 88.7486 40.4498 91.3029 43.6571C91.3029 43.6571 91.3473 40.6412 89.4386 38.5087C89.4386 38.5087 90.6159 38.2595 91.6956 38.7652C91.6956 38.7652 87.5632 34.5125 79.9972 35.6279C72.4312 36.7432 69.5678 40.7654 70.3628 47.3232C71.1563 53.8803 74.4789 55.7303 74.4789 55.7303C74.4789 55.7303 73.6869 50.7119 74.1565 49.6724C74.6254 48.6336 75.3479 49.5987 75.3479 49.5987Z" fill="#17282F"/>
<path d="M71.1024 50.734C71.7399 52.0069 72.8684 52.9814 74.2402 53.443C76.0609 54.0411 77.0711 52.4721 76.6532 50.7398C76.2672 49.204 74.8643 46.9906 72.9919 47.1611C71.1202 47.3309 70.3392 49.1614 71.1024 50.734Z" fill="#F9ACAF"/>
<path d="M86.0355 35.7419C84.0492 36.0691 82.3083 36.5242 80.7716 37.0617C79.4316 37.5291 78.2506 38.0514 77.2205 38.6148L77.2064 38.6235C71.6364 41.6192 70.2143 45.4934 70.2143 45.4934C70.2143 45.4934 70.0412 44.9978 69.7979 44.2306C69.5569 43.4786 69.2463 42.4702 68.9564 41.4314L68.9556 41.4242C68.4062 39.4745 67.9469 37.433 68.2132 36.8522C70.584 31.6301 78.1138 30.1622 79.1255 30.4541C79.737 30.6332 82.0894 32.4919 83.882 33.9583C84.7887 34.6908 85.5496 35.3309 85.8713 35.6075C85.9808 35.6949 86.0355 35.7419 86.0355 35.7419Z" fill="#406FBF"/>
<path d="M69.1731 42.1896C69.1006 41.9411 69.0274 41.6868 68.9564 41.4311L68.9556 41.4239C71.0381 39.3831 76.5986 34.6501 83.8821 33.958C84.1698 34.1906 84.4427 34.4139 84.6919 34.619C78.5553 35.8868 72.8566 38.9974 69.1731 42.1896Z" fill="#A4C3E9"/>
<path d="M70.3625 47.3234C70.3625 47.3234 65.2931 50.8017 64.9714 48.9488C64.149 44.2034 77.6075 33.7888 90.748 34.028C101.534 34.2244 89.9278 37.4427 89.9278 37.4427C85.6357 35.9928 70.026 42.6207 70.3625 47.3234Z" fill="#406FBF"/>
<path d="M65.713 49.4928C65.3166 49.4928 65.0393 49.339 64.9713 48.9489C64.9476 48.8109 64.9358 48.6693 64.9358 48.5227C64.9291 43.6661 77.6866 34.0237 90.3021 34.0237C90.4514 34.0237 90.5986 34.0251 90.748 34.028C94.1712 34.0909 95.3389 34.4571 95.3382 34.9288C95.336 35.9431 89.9279 37.4427 89.9279 37.4427C89.5189 37.3048 89.0057 37.2398 88.4148 37.2398C82.8699 37.2398 70.3565 42.9329 70.3565 47.1733C70.3565 47.2238 70.3587 47.2737 70.3624 47.3235C70.3624 47.3235 67.2009 49.4921 65.713 49.4928Z" fill="#2D5BB2"/>
<path d="M71.9249 62.6485C71.9249 62.6485 74.4696 65.2325 80.5115 68.0122C80.5115 68.0122 81.9439 66.9351 82.1273 63.6483L85.992 67.1981L85.132 73.1447L82.5629 70.3751L81.2369 87.6538C81.2369 87.6538 82.0718 76.0884 79.1618 70.9357L77.2184 73.8642C77.2184 73.8642 70.1966 71.4919 68.1356 65.3553L71.9249 62.6485Z" fill="#406FBF"/>
<path d="M81.2345 87.6561C81.2345 87.6561 81.7012 81.1907 80.7228 75.7728C81.6095 80.6692 81.3129 86.4222 81.2478 87.482L81.2345 87.6561ZM81.7404 81.0874L82.5627 70.3773C82.5627 70.3773 82.5634 70.3773 82.5642 70.3773L82.5657 70.3788L81.7404 81.0874Z" fill="#C6DAF2"/>
<path d="M82.5627 70.3776V70.3736L82.5653 70.3776C82.564 70.3776 82.5627 70.3776 82.5627 70.3776Z" fill="#FCDBDD"/>
<path d="M77.219 73.8657C77.219 73.8657 74.9975 73.1145 72.6872 71.3656C74.9975 73.1137 77.2182 73.8643 77.2182 73.8643L79.1617 70.9357C79.1617 70.9365 79.1617 70.9365 79.1617 70.9365L77.219 73.8657Z" fill="#C6DAF2"/>
<path d="M70.3033 63.8073L71.9243 62.6472C71.9243 62.6472 71.9243 62.6479 71.9251 62.6486L70.3033 63.8073Z" fill="white"/>
<path d="M81.2479 87.4819C81.313 86.4222 81.6095 80.6691 80.7228 75.7728C80.3923 73.9437 79.8975 72.2346 79.1639 70.9328L79.1617 70.9364C79.1617 70.9364 79.1617 70.9364 79.1617 70.9357L77.2182 73.8643C77.2182 73.8643 74.9975 73.1137 72.6872 71.3655C72.6865 71.3655 72.6857 71.3648 72.6857 71.3648C72.685 71.3641 72.685 71.3641 72.685 71.3641C70.8872 70.0031 69.037 68.0389 68.1377 65.356L70.303 63.8072L71.9248 62.6485C71.9854 62.7085 74.5397 65.2664 80.5098 68.0144C80.5098 68.0144 81.2863 72.6521 81.5008 77.0088L81.6909 67.4112C82.5058 66.2207 82.542 64.5231 82.1294 63.6512L85.9897 67.1981L85.1318 73.144L82.5657 70.3766V70.3788L82.5642 70.3773L82.5627 70.3751V70.3773L81.7404 81.0874L81.2479 87.4819Z" fill="#A4C3E9"/>
<path d="M80.516 68.0088L80.5272 67.9969C80.5545 67.9761 80.6041 67.9335 80.6699 67.8691C80.5899 67.9484 80.5353 67.9929 80.516 68.0088Z" fill="#C2AAAA"/>
<path d="M81.5007 77.009C81.2863 72.6523 80.5098 68.0146 80.5098 68.0146L80.5164 68.0088C80.5305 67.9972 80.5704 67.9647 80.6288 67.9069C80.9794 67.5667 81.9799 66.3625 82.1293 63.6514C82.542 64.5233 82.5057 66.2209 81.6908 67.4114L81.5007 77.009Z" fill="#7F9BCF"/>
<path d="M49.3986 126.71C49.3986 126.71 50.2824 128.044 50.377 130.426C50.4717 132.807 49.9784 137.464 49.3986 138.047C49.0577 138.388 43.3686 136.832 42.8162 135.45C42.564 134.821 43.5476 128.425 44.7175 126.71C45.8882 124.995 49.3986 126.71 49.3986 126.71Z" fill="#F9ACAF"/>
<path d="M60.1949 94.273C60.2644 93.6662 60.3323 93.0515 60.398 92.4288C60.3323 93.0515 60.2651 93.6662 60.1949 94.273Z" fill="#C3C4C2"/>
<path d="M60.1949 94.273C60.2652 93.6662 60.3325 93.0515 60.3983 92.4288C60.5817 90.6872 60.7474 88.8848 60.8827 87.0333C62.8114 85.2866 66.029 82.3855 67.9517 80.7212H67.9525C67.9525 80.7212 65.2754 90.8345 60.1949 94.273Z" fill="#6189CE"/>
<path d="M54.0795 78.6975C54.0795 78.6975 47.2072 90.512 45.9619 94.5133C44.7172 98.5139 44.7172 126.711 44.7172 126.711H49.3984C49.3984 126.711 52.3239 98.7046 54.0795 95.0847C55.8344 91.4649 62.1077 83.1177 62.1077 83.1177L54.0795 78.6975Z" fill="#F9ACAF"/>
<path d="M61.9572 65.5365C58.8112 65.0453 50.377 83.0449 50.377 83.0449L59.2779 88.4903C59.2779 88.4903 65.0742 83.2118 67.9561 80.7174C70.8381 78.2237 67.0746 66.3362 61.9572 65.5365Z" fill="#406FBF"/>
<path d="M59.8954 87.9285L50.8333 82.0895C52.603 78.4328 59.0442 65.5274 61.827 65.5274C61.8706 65.5274 61.9142 65.5303 61.9564 65.5368C65.85 66.145 68.9589 73.1702 68.9552 77.5948C68.9545 78.9868 68.6453 80.121 67.9554 80.7177C67.9546 80.7191 67.9531 80.7198 67.9517 80.7213C66.0289 82.3856 62.8113 85.2867 60.8826 87.0334C60.8819 87.0342 60.8811 87.0349 60.8804 87.0356C60.4929 87.386 60.1579 87.6901 59.8954 87.9285Z" fill="#7DA6DD"/>
<path d="M50.3768 81.7956L60.7685 88.4907L58.4679 90.5119L49.252 84.6541L50.3768 81.7956Z" fill="#406FBF"/>
<path d="M58.4679 90.5119L57.3334 89.7917L50.3531 85.3534L49.252 84.6541L50.3768 81.7956L60.7685 88.4907H60.7678L58.4679 90.5119Z" fill="#A4C3E9"/>
<path d="M94.6371 92.4698L102.58 83.107L104.387 85.561L97.4229 93.8727L94.6371 92.4698Z" fill="#406FBF"/>
<path d="M97.4229 93.8727L94.6371 92.4698L102.58 83.107L104.387 85.561L104.336 85.6224L103.675 86.4105L98.4057 92.6996L97.4229 93.8727Z" fill="#A4C3E9"/>
<path d="M125.039 70.2902L132.876 59.6741C132.979 59.5325 133.158 59.4624 133.333 59.4921L138.452 60.3683C138.791 60.4268 138.95 60.8133 138.746 61.0842L130.732 71.7271C130.626 71.8672 130.448 71.9365 130.273 71.9048L125.331 71.0018C124.996 70.9404 124.84 70.5597 125.039 70.2902Z" fill="#17282F"/>
<path d="M124.477 69.9838L132.315 59.3677C132.418 59.2261 132.596 59.156 132.771 59.1864L137.891 60.0626C138.23 60.1204 138.389 60.5069 138.185 60.7778L130.171 71.4214C130.065 71.5615 129.886 71.6302 129.712 71.5984L124.769 70.6954C124.435 70.634 124.279 70.254 124.477 69.9838Z" fill="#17282F"/>
<path d="M132.63 59.7193L137.531 60.5768L129.705 70.865L124.951 70.0075L132.63 59.7193Z" fill="white"/>
<path d="M153.41 19.4331C153.41 8.70058 144.503 0.000176906 133.516 0.000176906C122.529 0.000176906 113.623 8.70058 113.623 19.4331C113.623 29.3073 121.164 37.4558 130.927 38.6962L131.894 48.9013L133.723 38.8601C144.615 38.7518 153.41 30.0976 153.41 19.4331Z" fill="#17282F"/>
<path d="M133.287 22.3541C130.735 22.3541 128.666 20.1963 128.666 17.5344C128.666 14.8721 130.735 12.7143 133.287 12.7143C135.84 12.7143 137.909 14.8721 137.909 17.5344C137.909 20.1963 135.84 22.3541 133.287 22.3541ZM143.788 17.5851C143.788 10.8425 137.945 5.52243 131.252 6.83257C127.041 7.65695 123.686 11.2428 122.949 15.6439C122.488 18.3949 123.032 20.9827 124.235 23.1186H124.23L124.259 23.1598C124.662 23.8676 125.166 24.3735 125.676 25.117L131.774 33.5408C132.532 34.5891 134.042 34.5891 134.801 33.5408L140.796 25.2564C140.796 25.2564 141.916 23.8644 142.322 23.1483L142.343 23.1186H142.339C143.255 21.4936 143.788 19.6068 143.788 17.5851Z" fill="#7DA6DD"/>
</svg>
