<svg width="474" height="198" viewBox="0 0 474 198" fill="none" xmlns="http://www.w3.org/2000/svg">
<path d="M161.907 171.633C150.421 182.535 136.178 190.454 120.542 194.632C104.906 198.81 88.4014 199.106 72.6104 195.492C56.8194 191.877 42.271 184.474 30.3594 173.991C18.4478 163.508 9.57241 150.297 4.58367 135.624C-0.405061 120.951 -1.33988 105.307 1.8688 90.1929C5.07748 75.0784 12.3221 60.9994 22.9084 49.3053C33.4947 37.6111 47.0678 28.6937 62.327 23.4077C77.5861 18.1216 94.0199 16.6442 110.053 19.1169L106.483 39.9717C94.2131 38.0794 81.6363 39.2101 69.9584 43.2555C58.2805 47.3009 47.8929 54.1254 39.7912 63.075C31.6895 72.0246 26.1451 82.7993 23.6895 94.3665C21.2339 105.934 21.9493 117.906 25.7672 129.135C29.5851 140.365 36.3775 150.475 45.4935 158.498C54.6094 166.52 65.7434 172.186 77.8283 174.952C89.9132 177.718 102.544 177.492 114.51 174.294C126.477 171.097 137.377 165.036 146.167 156.693L161.907 171.633Z" fill="#D07D1C"/>
<path d="M182.146 72.8006C188.943 87.9984 191.205 104.678 188.686 121.014C186.167 137.35 178.963 152.714 167.863 165.425L150.726 151.942C159.221 142.214 164.734 130.456 166.661 117.954C168.589 105.452 166.858 92.687 161.657 81.0561L182.146 72.8006Z" fill="#711AC8"/>
<path d="M62.824 85.1203L96.7663 112.206L183.696 15" stroke="#B8375D" stroke-width="30" stroke-linecap="round" stroke-linejoin="round"/>
<path d="M257.708 166H244.582V139.195H219.985V166H206.816V103.894H219.985V128.235H244.582V103.894H257.708V166ZM291.522 103.894C297.158 103.894 301.803 104.573 305.456 105.933C309.138 107.292 311.871 109.345 313.655 112.092C315.439 114.839 316.331 118.309 316.331 122.5C316.331 125.332 315.793 127.81 314.717 129.934C313.641 132.058 312.225 133.856 310.469 135.329C308.713 136.802 306.815 138.005 304.776 138.94L323.043 166H308.43L293.604 142.168H286.595V166H273.426V103.894H291.522ZM290.588 114.684H286.595V131.463H290.843C295.204 131.463 298.319 130.741 300.188 129.297C302.086 127.824 303.035 125.672 303.035 122.84C303.035 119.895 302.015 117.799 299.976 116.553C297.965 115.307 294.836 114.684 290.588 114.684ZM357.155 166L342.202 117.275H341.819C341.876 118.436 341.961 120.192 342.074 122.542C342.216 124.865 342.343 127.343 342.457 129.977C342.57 132.61 342.626 134.989 342.626 137.113V166H330.859V103.894H348.786L363.484 151.387H363.739L379.33 103.894H397.256V166H384.979V136.604C384.979 134.649 385.008 132.398 385.064 129.849C385.149 127.3 385.249 124.879 385.362 122.585C385.475 120.263 385.56 118.521 385.617 117.36H385.234L369.219 166H357.155ZM449.592 148.753C449.592 152.435 448.7 155.635 446.916 158.354C445.132 161.072 442.526 163.168 439.1 164.641C435.701 166.113 431.566 166.85 426.695 166.85C424.543 166.85 422.433 166.708 420.366 166.425C418.327 166.142 416.358 165.731 414.461 165.193C412.592 164.626 410.808 163.933 409.108 163.111V150.877C412.054 152.18 415.112 153.355 418.284 154.403C421.456 155.451 424.6 155.975 427.715 155.975C429.867 155.975 431.595 155.691 432.897 155.125C434.229 154.559 435.191 153.78 435.786 152.789C436.381 151.797 436.678 150.665 436.678 149.39C436.678 147.833 436.154 146.501 435.106 145.397C434.059 144.292 432.614 143.259 430.773 142.296C428.961 141.333 426.908 140.299 424.614 139.195C423.169 138.515 421.598 137.694 419.898 136.731C418.199 135.74 416.585 134.536 415.056 133.12C413.526 131.704 412.266 129.991 411.275 127.98C410.312 125.941 409.831 123.505 409.831 120.673C409.831 116.963 410.68 113.792 412.379 111.158C414.079 108.524 416.5 106.513 419.644 105.125C422.815 103.709 426.554 103.001 430.858 103.001C434.087 103.001 437.16 103.384 440.077 104.148C443.022 104.885 446.095 105.961 449.295 107.377L445.047 117.615C442.187 116.454 439.624 115.562 437.358 114.938C435.092 114.287 432.784 113.961 430.434 113.961C428.791 113.961 427.389 114.23 426.228 114.769C425.067 115.278 424.189 116.015 423.594 116.978C423 117.912 422.702 119.002 422.702 120.249C422.702 121.721 423.127 122.967 423.977 123.987C424.854 124.978 426.157 125.941 427.885 126.875C429.641 127.81 431.821 128.9 434.427 130.146C437.599 131.647 440.303 133.219 442.541 134.862C444.806 136.476 446.548 138.388 447.766 140.597C448.983 142.777 449.592 145.496 449.592 148.753Z" fill="#1E1E1E"/>
</svg>
