<svg width="519" height="201" viewBox="0 0 519 201" fill="none" xmlns="http://www.w3.org/2000/svg">
<path d="M162.175 174.2C150.67 185.281 136.403 193.331 120.741 197.577C105.079 201.823 88.5477 202.124 72.7306 198.451C56.9134 194.777 42.3409 187.252 30.4097 176.598C18.4784 165.943 9.58825 152.515 4.59126 137.601C-0.405732 122.688 -1.3421 106.788 1.87189 91.4256C5.08589 76.0633 12.3425 61.7535 22.9463 49.8676C33.5501 37.9818 47.1457 28.9182 62.4302 23.5455C77.7146 18.1728 94.1755 16.6711 110.235 19.1843L106.66 40.3811C94.369 38.4577 81.7714 39.607 70.0742 43.7187C58.377 47.8305 47.9722 54.7668 39.8571 63.8631C31.7419 72.9595 26.1884 83.9108 23.7287 95.6676C21.2691 107.424 21.9857 119.593 25.8099 131.006C29.6341 142.42 36.4377 152.696 45.5688 160.85C54.6998 169.004 65.8522 174.763 77.9571 177.574C90.0621 180.386 102.714 180.155 114.7 176.906C126.686 173.656 137.605 167.496 146.409 159.015L162.175 174.2Z" fill="#FC6075"/>
<path d="M182.448 73.7481C189.256 89.1951 191.522 106.148 188.998 122.752C186.475 139.356 179.26 154.972 168.141 167.891L150.975 154.187C159.484 144.3 165.006 132.349 166.937 119.642C168.868 106.934 167.134 93.9606 161.924 82.139L182.448 73.7481Z" fill="#706768"/>
<path d="M62.928 86.2698L96.9265 113.8L184 15" stroke="#FF9B44" stroke-width="30" stroke-linecap="round" stroke-linejoin="round"/>
<path d="M265.48 150H250.393V119.189H222.121V150H206.984V78.6133H222.121V106.592H250.393V78.6133H265.48V150ZM304.348 78.6133C310.826 78.6133 316.164 79.3945 320.363 80.957C324.595 82.5195 327.736 84.8796 329.787 88.0371C331.838 91.1947 332.863 95.1823 332.863 100C332.863 103.255 332.245 106.104 331.008 108.545C329.771 110.986 328.143 113.053 326.125 114.746C324.107 116.439 321.926 117.822 319.582 118.896L340.578 150H323.781L306.74 122.607H298.684V150H283.547V78.6133H304.348ZM303.273 91.0156H298.684V110.303H303.566C308.579 110.303 312.16 109.473 314.309 107.812C316.49 106.12 317.58 103.646 317.58 100.391C317.58 97.0052 316.408 94.5964 314.064 93.1641C311.753 91.7318 308.156 91.0156 303.273 91.0156ZM379.787 150L362.6 93.9941H362.16C362.225 95.3288 362.323 97.347 362.453 100.049C362.616 102.718 362.762 105.566 362.893 108.594C363.023 111.621 363.088 114.355 363.088 116.797V150H349.562V78.6133H370.168L387.062 133.203H387.355L405.275 78.6133H425.881V150H411.77V116.211C411.77 113.965 411.802 111.377 411.867 108.447C411.965 105.518 412.079 102.734 412.209 100.098C412.339 97.4284 412.437 95.4264 412.502 94.0918H412.062L393.654 150H379.787ZM486.037 130.176C486.037 134.408 485.012 138.086 482.961 141.211C480.91 144.336 477.915 146.745 473.977 148.438C470.07 150.13 465.318 150.977 459.719 150.977C457.245 150.977 454.82 150.814 452.443 150.488C450.1 150.163 447.837 149.691 445.656 149.072C443.508 148.421 441.457 147.624 439.504 146.68V132.617C442.889 134.115 446.405 135.465 450.051 136.67C453.697 137.874 457.31 138.477 460.891 138.477C463.365 138.477 465.35 138.151 466.848 137.5C468.378 136.849 469.484 135.954 470.168 134.814C470.852 133.675 471.193 132.373 471.193 130.908C471.193 129.118 470.591 127.588 469.387 126.318C468.182 125.049 466.522 123.861 464.406 122.754C462.323 121.647 459.963 120.459 457.326 119.189C455.666 118.408 453.859 117.464 451.906 116.357C449.953 115.218 448.098 113.835 446.34 112.207C444.582 110.579 443.133 108.61 441.994 106.299C440.887 103.955 440.334 101.156 440.334 97.9004C440.334 93.6361 441.311 89.9902 443.264 86.9629C445.217 83.9355 448 81.6243 451.613 80.0293C455.259 78.4017 459.556 77.5879 464.504 77.5879C468.215 77.5879 471.747 78.0273 475.1 78.9062C478.485 79.7526 482.017 80.9896 485.695 82.6172L480.812 94.3848C477.525 93.0501 474.579 92.0247 471.975 91.3086C469.37 90.5599 466.717 90.1855 464.016 90.1855C462.128 90.1855 460.516 90.4948 459.182 91.1133C457.847 91.6992 456.838 92.5456 456.154 93.6523C455.471 94.7266 455.129 95.9798 455.129 97.4121C455.129 99.1048 455.617 100.537 456.594 101.709C457.603 102.848 459.1 103.955 461.086 105.029C463.104 106.104 465.611 107.357 468.605 108.789C472.251 110.514 475.36 112.321 477.932 114.209C480.536 116.064 482.538 118.262 483.938 120.801C485.337 123.307 486.037 126.432 486.037 130.176Z" fill="#1E1E1E"/>
</svg>
