<svg width="166" height="141" viewBox="0 0 166 141" fill="none" xmlns="http://www.w3.org/2000/svg">
<path d="M70.2453 109.848C47.9569 109.848 29.7563 96.181 23.9274 77.144C18.0987 58.1082 17.0038 42.3272 30.5069 31.0906C21.891 54.8106 35.5919 84.0775 68.3643 92.0094C84.6934 95.9614 97.557 98.0558 107.806 98.3048C104.05 100.182 100.019 102.099 95.6931 104.067C86.9373 108.052 78.3222 109.848 70.2453 109.848ZM147.254 68.4831C148.255 50.8986 128.147 29.6702 105.671 15.5316C126.821 17.5647 144.873 24.8022 149.159 38.7997C152.614 50.0863 152.587 59.5178 147.254 68.4831Z" fill="#FAFAFA"/>
<path d="M109.845 98.3298C109.177 98.3298 108.497 98.3215 107.806 98.3048C129.036 87.6913 141.372 78.3698 147.254 68.4831C147.133 70.6049 146.705 72.6721 145.936 74.669C139.878 90.4087 130.355 98.3298 109.845 98.3298ZM30.5068 31.0906C30.5972 30.8419 30.6897 30.5941 30.7851 30.3467C37.6603 12.4847 46.2241 9.72961e-05 63.4496 9.72961e-05C69.2231 9.72961e-05 75.9692 1.40254 83.9519 4.47527C91.0221 7.19644 98.4696 11.001 105.671 15.5316C101.411 15.1217 97.0226 14.923 92.5986 14.923C78.288 14.923 63.5758 16.9999 51.4161 20.7228C42.2159 23.5402 35.4015 27.0174 30.5068 31.0906Z" fill="white"/>
<path d="M107.806 98.3049C97.557 98.0558 84.6934 95.9615 68.3643 92.0095C35.5919 84.0776 21.891 54.8107 30.5069 31.0907C35.4015 27.0174 42.2159 23.5403 51.4162 20.7229C63.5759 16.9999 78.288 14.9231 92.5987 14.9231C97.0226 14.9231 101.411 15.1218 105.671 15.5317C128.147 29.6703 148.255 50.8986 147.254 68.4832C141.372 78.3699 129.036 87.6914 107.806 98.3049Z" fill="#FDFDFD"/>
<path d="M80.8088 120.194C50.2306 120.194 25.4426 118.072 25.4426 115.455C25.4426 112.837 50.2306 110.716 80.8088 110.716C111.387 110.716 136.176 112.837 136.176 115.455C136.176 118.072 111.387 120.194 80.8088 120.194Z" fill="#5352A3"/>
<path d="M47.9036 140.188C40.1574 140.188 33.8774 138.532 33.8774 136.49C33.8774 134.447 40.1574 132.792 47.9036 132.792C55.6502 132.792 61.9298 134.447 61.9298 136.49C61.9298 138.532 55.6502 140.188 47.9036 140.188Z" fill="#5352A3"/>
<path d="M125.378 137.063C117.632 137.063 111.352 135.408 111.352 133.366C111.352 131.323 117.632 129.668 125.378 129.668C133.124 129.668 139.404 131.323 139.404 133.366C139.404 135.408 133.124 137.063 125.378 137.063Z" fill="#5352A3"/>
<path d="M150.092 120.958C142.345 120.958 136.065 119.302 136.065 117.26C136.065 115.217 142.345 113.562 150.092 113.562C157.838 113.562 164.118 115.217 164.118 117.26C164.118 119.302 157.838 120.958 150.092 120.958Z" fill="#5352A3"/>
<path d="M14.0261 122.762C6.27982 122.762 0 121.107 0 119.065C0 117.022 6.27982 115.367 14.0261 115.367C21.7727 115.367 28.0523 117.022 28.0523 119.065C28.0523 121.107 21.7727 122.762 14.0261 122.762Z" fill="#5352A3"/>
<path d="M135.732 112.925C135.732 113.992 134.939 114.856 133.962 114.856H31.2761C30.2981 114.856 29.5059 113.992 29.5059 112.925V35.1868C29.5059 34.12 30.2981 33.2553 31.2761 33.2553H133.962C134.939 33.2553 135.732 34.12 135.732 35.1868V112.925Z" fill="white"/>
<path d="M135.732 53.2349V35.1867C135.732 34.12 134.939 33.2553 133.962 33.2553H31.2761C30.2981 33.2553 29.5059 34.12 29.5059 35.1867V53.2349H135.732Z" fill="#171636"/>
<path d="M43.8111 37.5735C41.5669 37.4752 39.8091 35.637 39.8091 33.3882C39.8091 31.0781 41.6885 29.1988 43.9986 29.1988C46.1366 29.1988 48.0068 31.0669 48.1772 33.322H50.7875C50.6118 29.6607 47.532 26.5913 43.9986 26.5913C40.2506 26.5913 37.2017 29.6403 37.2017 33.3882C37.2017 37.0366 40.0549 40.0189 43.6974 40.1784L43.7553 40.1797C44.4492 40.1797 45.0266 39.6328 45.0565 38.9326C45.0882 38.2137 44.5305 37.6051 43.8111 37.5735Z" fill="#F9BD4D"/>
<path d="M59.2236 37.5735C56.9794 37.4752 55.2216 35.637 55.2216 33.3882C55.2216 31.0781 57.1006 29.1988 59.4107 29.1988C61.5491 29.1988 63.4193 31.0669 63.5897 33.322H66.2001C66.0243 29.6607 62.9445 26.5913 59.4107 26.5913C55.6632 26.5913 52.6138 29.6403 52.6138 33.3882C52.6138 37.0366 55.4674 40.0189 59.1099 40.1784L59.1678 40.1797C59.8618 40.1797 60.4391 39.6328 60.4695 38.9326C60.5011 38.2137 59.943 37.6051 59.2236 37.5735Z" fill="#F9BD4D"/>
<path d="M74.6358 37.5735C72.392 37.4752 70.6334 35.637 70.6334 33.3882C70.6334 31.0781 72.5128 29.1988 74.8228 29.1988C76.9613 29.1988 78.8315 31.0669 79.0019 33.322H81.6123C81.4361 29.6607 78.3563 26.5913 74.8228 26.5913C71.0753 26.5913 68.0264 29.6403 68.0264 33.3882C68.0264 37.0366 70.8796 40.0189 74.5217 40.1784L74.58 40.1797C75.274 40.1797 75.8508 39.6328 75.8817 38.9326C75.9129 38.2137 75.3552 37.6051 74.6358 37.5735Z" fill="#F9BD4D"/>
<path d="M90.0482 37.5735C87.8039 37.4752 86.0458 35.637 86.0458 33.3882C86.0458 31.0781 87.9251 29.1988 90.2352 29.1988C92.3737 29.1988 94.2435 31.0669 94.4138 33.322H97.0246C96.8484 29.6607 93.7686 26.5913 90.2352 26.5913C86.4877 26.5913 83.4387 29.6403 83.4387 33.3882C83.4387 37.0366 86.2919 40.0189 89.9345 40.1784L89.9924 40.1797C90.6863 40.1797 91.2632 39.6328 91.2936 38.9326C91.3253 38.2137 90.7675 37.6051 90.0482 37.5735Z" fill="#F9BD4D"/>
<path d="M105.46 37.5735C103.216 37.4752 101.458 35.637 101.458 33.3882C101.458 31.0781 103.338 29.1988 105.648 29.1988C107.786 29.1988 109.656 31.0669 109.826 33.322H112.437C112.261 29.6607 109.181 26.5913 105.648 26.5913C101.9 26.5913 98.8508 29.6403 98.8508 33.3882C98.8508 37.0366 101.704 40.0189 105.347 40.1784L105.404 40.1797C106.098 40.1797 106.676 39.6328 106.706 38.9326C106.738 38.2137 106.18 37.6051 105.46 37.5735Z" fill="#F9BD4D"/>
<path d="M120.873 37.5735C118.629 37.4752 116.871 35.637 116.871 33.3882C116.871 31.0781 118.75 29.1988 121.06 29.1988C123.198 29.1988 125.069 31.0669 125.239 33.322H127.849C127.673 29.6607 124.593 26.5913 121.06 26.5913C117.313 26.5913 114.263 29.6403 114.263 33.3882C114.263 37.0366 117.116 40.0189 120.759 40.1784L120.817 40.1797C121.511 40.1797 122.088 39.6328 122.118 38.9326C122.15 38.2137 121.592 37.6051 120.873 37.5735Z" fill="#F9BD4D"/>
<path d="M54.1506 72.1868H38.1143V58.0248H54.1506V72.1868Z" fill="#F9BD4D"/>
<path d="M78.4479 72.1868H62.4116V58.0248H78.4479V72.1868Z" fill="#4448A5"/>
<path d="M102.745 72.1868H86.709V58.0248H102.745V72.1868Z" fill="#F9BD4D"/>
<path d="M127.043 72.1868H111.007V58.0248H127.043V72.1868Z" fill="#4448A5"/>
<path d="M54.1506 90.9307H38.1143V76.7687H54.1506V90.9307Z" fill="#F9BD4D"/>
<path d="M78.4479 90.9307H62.4116V76.7687H78.4479V90.9307Z" fill="#F9BD4D"/>
<path d="M102.745 90.9307H86.709V76.7687H102.745V90.9307Z" fill="#F9BD4D"/>
<path d="M127.043 90.9307H111.007V76.7687H127.043V90.9307Z" fill="#F9BD4D"/>
<path d="M54.3588 109.258H38.3225V95.0959H54.3588V109.258Z" fill="#4448A5"/>
<path d="M78.6562 109.258H62.6199V95.0959H78.6562V109.258Z" fill="#F9BD4D"/>
<path d="M102.954 109.258H86.9172V95.0959H102.954V109.258Z" fill="#4448A5"/>
<path d="M127.251 109.258H111.215V95.0959H127.251V109.258Z" fill="#F9BD4D"/>
<path d="M49.8387 69.6903C49.8387 69.6903 49.3876 71.523 47.8006 71.3056C46.3369 71.1044 46.3298 69.2088 46.3298 69.2088L46.5898 67.3131L50.099 67.7942L49.8387 69.6903Z" fill="#F57566"/>
<path d="M72.3341 77.5096C72.6086 77.3168 73.4371 76.7457 73.4371 76.7457C73.9623 76.3392 73.8719 75.7535 73.59 75.3312C73.4583 75.1338 73.0056 74.7555 72.5749 74.883C71.8672 75.0929 71.0562 75.8573 71.0529 75.8535C71.0387 75.8385 71.3699 75.1483 71.3765 74.8572C71.3765 74.8572 71.3732 74.6264 71.1708 74.5619C71.0112 74.5102 70.8384 74.5848 70.7805 74.7426L70.5014 75.5045C70.4685 75.5636 69.8495 77.1793 69.261 77.3164L70.0166 78.4556C70.0166 78.4556 69.972 78.3469 70.8313 78.1203C71.2262 78.0165 71.9984 77.7454 72.3341 77.5096Z" fill="#F68371"/>
<path d="M62.6602 82.9192C66.6152 80.9303 70.7092 78.115 70.7092 78.115L69.9291 76.68L62.4028 79.9947L62.6602 82.9192Z" fill="#F68371"/>
<path d="M63.5962 79.2594L59.0015 81.2917C59.0015 81.2917 58.2505 75.8685 54.6758 71.1575C53.5558 69.6814 52.2554 69.8655 52.2554 69.8655C52.2554 69.8655 54.0968 72.3905 53.9086 77.0985C53.7944 79.9538 55.8479 84.3236 57.03 84.9888C57.8756 85.4648 62.0788 83.4234 64.9686 81.8898L63.5962 79.2594Z" fill="#353682"/>
<path d="M50.6948 90.6152L54.8384 72.959C55.0754 71.5745 54.5898 70.7564 53.8596 70.337C52.6583 69.6476 49.8526 69.6497 49.8526 69.6497L47.7908 71.2463L46.3175 69.1653C46.3175 69.1653 43.8883 68.1723 42.2955 68.5942C41.4821 68.8092 40.5607 69.3011 40.4332 70.921C40.4332 70.921 38.9962 83.9575 38.5505 88.9666L50.6948 90.6152Z" fill="#4448A5"/>
<path d="M42.2533 135.05L44.4909 99.9527L49.6442 135.05H52.9639L50.6809 90.1722L38.5142 88.7689C38.5142 88.7689 37.5278 93.1379 37.4845 94.5249C37.2013 103.619 38.8919 130.508 39.1839 135.05H42.2533Z" fill="#171636"/>
<path d="M51.6844 67.0353C51.5782 67.3177 49.5268 68.5235 48.6329 68.5131C47.7157 68.5027 45.9884 67.3081 45.8726 66.9845C45.561 66.1156 45.1037 62.6188 45.3823 61.2514C45.803 59.1833 47.0626 58.0924 48.992 58.1149C50.7818 58.1357 51.9906 58.9788 52.4283 60.9186C52.7953 62.5493 52.1222 65.8757 51.6844 67.0353Z" fill="#F68371"/>
<path d="M52.4829 61.1831C52.4829 61.1831 49.698 60.5983 47.6716 61.9657C47.6716 61.9657 46.557 64.0913 45.8697 63.9068C45.8697 63.9068 45.5261 65.7411 46.1875 67.3918C46.1875 67.3918 45.464 67.2311 44.99 66.3434C44.6047 65.6224 44.3036 64.1079 44.5073 62.4148C44.96 58.6381 46.9231 57.96 48.7475 57.8429C48.7475 57.8429 51.991 57.6268 52.4829 61.1831Z" fill="#171636"/>
<path d="M46.6002 63.7652C46.6464 64.2933 46.2653 64.7269 45.9317 64.7565C45.598 64.7857 45.4381 64.3991 45.3918 63.871C45.346 63.3428 45.4785 62.8921 45.8125 62.8634C46.1462 62.8342 46.554 63.2374 46.6002 63.7652Z" fill="#F68371"/>
<path d="M52.7156 134.956C52.7156 134.956 58.8228 135.12 58.0743 136.827L49.7054 136.843L49.615 134.94L52.7156 134.956Z" fill="#698ED1"/>
<path d="M42.2575 134.956C42.2575 134.956 43.6616 136.001 43.0997 137.233C42.7557 137.989 39.1535 137.405 39.1535 137.405C39.1535 137.405 37.9902 136.897 39.2006 134.909L42.2575 134.956Z" fill="#698ED1"/>
<path d="M37.7066 92.7946C37.8736 93.0857 38.3668 93.9625 38.3668 93.9625C38.7242 94.5232 39.3152 94.4861 39.7617 94.2437C39.97 94.1304 40.3878 93.7134 40.2999 93.2736C40.1554 92.5496 39.4677 91.6724 39.4723 91.6691C39.4881 91.6566 40.1458 92.049 40.4349 92.0823C40.4349 92.0823 40.6648 92.0998 40.7481 91.9049C40.8139 91.7503 40.7552 91.5716 40.6031 91.4996L39.87 91.1522C39.8142 91.1139 38.2618 90.3504 38.1785 89.7522L36.9756 90.4008C36.9756 90.4008 37.0876 90.3662 37.2347 91.243C37.3021 91.6458 37.5029 92.4389 37.7066 92.7946Z" fill="#F68371"/>
<path d="M33.6558 81.2061C34.6013 84.7857 37.1933 90.9028 37.1933 90.9028L38.5895 90.3359L37.078 81.7226L33.6558 81.2061Z" fill="#F68371"/>
<path d="M36.6731 79.4186L37.6066 84.3662L34.7759 85.073C34.1873 83.1624 33.1418 80.0713 33.2135 79.2962C33.3388 77.945 36.7852 72.8858 38.2035 71.363C41.0825 68.2719 42.702 68.4839 42.702 68.4839C42.702 68.4839 40.6127 70.2667 40.0866 73.2215C39.7759 74.9639 36.6656 79.4178 36.6656 79.4178L36.6731 79.4186Z" fill="#353682"/>
<path d="M34.6655 84.5724C34.4743 84.6216 34.361 84.824 34.4122 85.0244L34.4864 85.3114C34.5376 85.5113 34.735 85.6338 34.9262 85.5846L37.6824 84.8744C37.8736 84.8253 37.9869 84.6224 37.9352 84.4229L37.8615 84.1355C37.8098 83.9356 37.6128 83.8131 37.4216 83.8623L34.6655 84.5724Z" fill="#353682"/>
<path d="M41.449 92.1024L38.3655 94.0351C38.3655 94.0351 40.3965 97.4569 41.4882 96.6517C41.4882 96.6517 44.251 94.3392 41.449 92.1024Z" fill="#171636"/>
<path d="M64.1285 78.9093C64.0431 78.731 63.8228 78.6594 63.6366 78.7489L63.3692 78.8772C63.1826 78.9672 63.1014 79.1842 63.1868 79.3621L64.4201 81.9274C64.5055 82.1053 64.7267 82.1769 64.9124 82.0874L65.1798 81.9591C65.366 81.8695 65.4473 81.6521 65.3619 81.4747L64.1285 78.9093Z" fill="#353682"/>
<path d="M54.5363 58.4811C54.0111 59.0359 53.455 58.7181 52.7678 58.0941C52.3241 57.6888 51.636 57.5472 51.3107 57.5085C51.6844 57.4868 52.0809 57.2102 51.4061 57.174C50.6676 57.1344 48.8899 57.4177 49.2702 57.3414C49.6463 57.2652 50.7609 56.8412 49.5576 56.9224C48.3563 57.0036 47.0113 57.9608 47.0113 57.9608C47.1967 57.7542 47.8007 57.0949 47.0634 57.5093C46.3303 57.9225 45.8338 58.9959 45.8338 58.9959C45.793 58.4736 45.9783 57.7784 45.7497 58.0208C45.658 58.1187 45.4285 58.4465 45.3885 58.6827C45.3202 59.0696 45.536 59.3024 45.3661 59.3233C44.8296 59.3874 44.1136 60.1047 44.6863 59.976C45.5797 59.7765 45.1003 60.9036 45.0774 61.2089C45.0774 61.2089 49.8621 60.7545 52.3654 61.2222C53.3359 61.4034 53.8007 61.0814 54.8033 58.7997C54.8454 58.7039 55.2003 57.78 54.5363 58.4811Z" fill="#171636"/>
<path d="M126.596 65.1209V66.7524C126.596 66.7524 126.597 68.1782 125.332 68.1782C124.052 68.1782 124.024 66.7524 124.024 66.7524V65.1209H126.596Z" fill="#F57566"/>
<path d="M122.495 63.8547C122.831 64.9389 123.75 65.5091 125.22 65.6287C126.03 65.6941 127.225 65.3829 127.959 64.2958C128.417 63.6181 128.81 60.8511 128.618 59.6294C128.329 57.7821 127.258 56.7658 125.549 56.7075C123.964 56.6538 122.907 57.1744 122.442 58.8739C122.051 60.3025 122.064 62.4589 122.495 63.8547Z" fill="#F68371"/>
<path d="M119.813 68.8954C119.99 67.6904 120.404 67.3072 121.505 67.0394C122.624 66.7674 124.028 66.5558 124.028 66.5558L125.397 68.0065L126.614 66.4858C126.614 66.4858 127.893 66.6812 129.031 66.8444C129.975 66.9798 130.568 67.5375 130.763 68.7396C131.509 73.3352 130.992 76.0401 130.755 80.2666C130.599 83.0436 130.56 83.7571 130.936 85.2271L120.265 85.2583C120.265 85.2583 120.593 83.2773 120.468 80.2825C120.292 76.0526 119.189 73.1386 119.813 68.8954Z" fill="#FCD863"/>
<path d="M131.996 102.713C130.926 113.12 129.929 128.466 129.796 130.884H126.895L126.122 102.745L131.996 102.713Z" fill="#F68371"/>
<path d="M125.534 102.713L124.742 130.822L121.903 130.884C121.636 127.692 120.497 113.167 119.825 102.713H125.534Z" fill="#F68371"/>
<path d="M132.182 102.199C132.065 103.977 132.115 105.666 131.948 107.518L126.119 107.529L125.721 96.0698L125.514 107.498L119.907 107.486C119.433 100.617 119.298 94.4233 119.326 92.3539C119.373 88.8913 120.265 85.2584 120.265 85.2584L130.936 85.2271C130.936 85.2271 132.266 89.5874 132.26 92.6676C132.258 93.8755 132.329 99.9631 132.182 102.199Z" fill="#4448A5"/>
<path d="M131.1 87.4568C130.939 87.7096 130.406 88.359 130.406 88.359C130.036 88.8247 129.513 88.7372 129.138 88.4798C128.963 88.3598 128.629 87.9499 128.749 87.5659C128.945 86.9349 129.638 86.2176 129.635 86.2139C129.622 86.2014 129 86.49 128.739 86.4925C128.739 86.4925 128.533 86.4867 128.477 86.3051C128.432 86.1614 128.502 86.0077 128.644 85.9577L129.328 85.7165C129.382 85.6878 130.835 85.1521 130.965 84.6269L131.977 85.3162C131.977 85.3162 131.88 85.2754 131.667 86.0418C131.57 86.3946 131.373 87.0307 131.1 87.4568Z" fill="#F68371"/>
<path d="M136.1 78.0033C134.749 81.031 131.699 85.8823 131.699 85.8823L130.482 85.2429L133.243 77.9895L136.1 78.0033Z" fill="#F68371"/>
<path d="M133.176 77.346L131.639 81.5841L134.039 82.6167C134.834 81.0127 136.203 78.4314 136.251 77.7367C136.335 76.5241 134.018 71.5562 132.983 70.0063C130.885 66.8599 129.363 66.9182 129.363 66.9182C129.363 66.9182 131.012 68.6909 131.052 71.3775C131.075 72.9624 133.183 77.3468 133.183 77.3468L133.176 77.346Z" fill="#F7A455"/>
<path d="M134.209 82.1901C134.371 82.2609 134.441 82.4563 134.367 82.6254L134.261 82.8686C134.186 83.0381 133.994 83.1177 133.832 83.0469L131.499 82.0222C131.337 81.951 131.266 81.7561 131.34 81.5866L131.447 81.3437C131.521 81.1742 131.713 81.0942 131.875 81.1654L134.209 82.1901Z" fill="#F7A455"/>
<path d="M129.78 130.861C129.78 130.861 134.458 133.017 133.882 134.175C133.337 135.275 126.879 132.413 126.879 132.413L126.894 130.837L129.78 130.861Z" fill="#F68371"/>
<path d="M131.562 133.088C132.319 133.339 132.874 133.086 133.209 132.913C133.738 133.367 134.06 133.818 133.882 134.175C133.337 135.275 126.879 132.413 126.879 132.413L126.894 130.837C126.894 130.837 130.088 132.596 131.562 133.088Z" fill="#698ED1"/>
<path d="M121.899 130.824C121.899 130.824 116.978 132.986 117.553 134.144C118.099 135.244 124.744 132.381 124.744 132.381L124.76 130.822L121.899 130.824Z" fill="#F68371"/>
<path d="M119.874 133.056C119.117 133.308 118.563 133.055 118.227 132.882C117.698 133.336 117.376 133.787 117.553 134.144C118.099 135.244 124.744 132.381 124.744 132.381L124.76 130.822C124.76 130.822 121.348 132.565 119.874 133.056Z" fill="#698ED1"/>
<path d="M127.051 57.5401C127.051 57.5401 127.341 55.8024 129.562 55.8398C131.781 55.8773 132.326 58.1032 131.857 60.1817C131.39 62.2581 132.021 62.9512 132.323 64.1304C133.048 66.9615 130.24 67.3827 132.126 71.5867C132.126 71.5867 129.164 71.1731 129 68.3419C128.926 67.0494 128.987 66.1339 128.696 65.3937C128.088 63.8497 128.008 61.9549 128.813 60.4337C129.445 59.2404 128.773 58.4036 128.485 58.3981C128.106 58.3915 127.877 58.5381 127.877 58.5381L127.051 57.5401Z" fill="#171636"/>
<path d="M124.349 59.5103C125.004 59.9714 125.911 60.1493 126.924 59.871C126.924 59.871 126.695 60.8636 127.315 61.8308C127.858 62.6768 127.864 64.013 127.458 64.8948C127.458 64.8948 128.643 64.6136 128.779 60.2434C128.779 60.2434 128.896 57.0653 125.804 56.5992C123.537 56.2572 119.7 57.5676 122.321 59.4578C122.551 59.6236 123.322 58.7885 124.349 59.5103Z" fill="#171636"/>
<path d="M126.844 62.1028C126.781 62.5685 127.101 62.9679 127.395 63.0071C127.689 63.0467 127.847 62.7105 127.909 62.2457C127.971 61.78 127.872 61.3755 127.578 61.3364C127.283 61.2972 126.906 61.638 126.844 62.1028Z" fill="#F68371"/>
<path d="M127.516 63.538C127.309 63.5276 127.172 63.3689 127.183 63.1519C127.192 62.9732 127.296 62.8208 127.444 62.7724L127.487 62.9041C127.395 62.9341 127.327 63.0386 127.321 63.1586C127.314 63.2985 127.393 63.3931 127.523 63.3997C127.564 63.4014 127.773 63.4006 127.784 63.174C127.789 63.0686 127.742 62.9657 127.664 62.9124L127.742 62.7979C127.859 62.8778 127.93 63.0282 127.922 63.1806C127.909 63.4406 127.709 63.5472 127.516 63.538Z" fill="#F9BD4D"/>
<path d="M103.967 71.395C103.759 71.2055 103.129 70.6428 103.129 70.6428C102.734 70.2487 102.871 69.7706 103.15 69.4482C103.28 69.2978 103.698 69.0304 104.043 69.1816C104.61 69.4315 105.205 70.1529 105.209 70.1504C105.222 70.1396 105.019 69.5294 105.044 69.2861C105.044 69.2861 105.071 69.0945 105.246 69.0616C105.384 69.0358 105.521 69.1158 105.552 69.2537L105.704 69.9172C105.726 69.9705 106.072 71.3813 106.547 71.5575L105.798 72.4268C105.798 72.4268 105.847 72.341 105.155 72.0619C104.837 71.934 104.222 71.6266 103.967 71.395Z" fill="#F68371"/>
<path d="M110.856 77.2009C108.076 75.117 105.241 72.1089 105.241 72.1089L106.059 71.0555L111.991 74.6793L110.856 77.2009Z" fill="#F68371"/>
<path d="M111.624 74.3807L113.652 75.7511C113.652 75.7511 116.377 70.8544 119.91 67.7958C120.694 67.1173 121.791 66.9769 121.791 66.9769C121.791 66.9769 120.507 68.5331 119.641 71.8786C119.04 74.202 115.689 78.4565 114.634 78.8863C113.954 79.1637 112.322 78.2753 110.493 76.8932L111.624 74.3807Z" fill="#F7A455"/>
<path d="M110.205 76.7107C110.075 76.9202 110.194 77.091 110.404 77.2214L110.531 77.3005C110.741 77.4313 110.964 77.4721 111.094 77.2626L112.462 75.0396C112.592 74.8301 112.489 74.6177 112.279 74.4873L112.152 74.4081C111.942 74.2774 111.703 74.2782 111.573 74.4877L110.205 76.7107Z" fill="#F7A455"/>
<path d="M125.959 107.954C125.959 108.057 126.045 108.142 126.15 108.142H131.92C132.026 108.142 132.112 108.057 132.112 107.954V106.948C132.112 106.845 132.026 106.761 131.92 106.761H126.15C126.045 106.761 125.959 106.845 125.959 106.948V107.954Z" fill="#3C3F91"/>
<path d="M119.665 107.931C119.665 108.034 119.749 108.118 119.853 108.118H125.536C125.64 108.118 125.725 108.034 125.725 107.931V106.925C125.725 106.822 125.64 106.738 125.536 106.738H119.853C119.749 106.738 119.665 106.822 119.665 106.925V107.931Z" fill="#3C3F91"/>
<path d="M148.905 103.395C148.905 103.395 157.231 98.6843 153.581 94.6869C149.932 90.6899 147.824 92.5393 148.761 88.3374C149.698 84.1367 150.763 82.3377 146.92 79.1179C143.078 75.8982 141.21 76.3634 140.35 71.5109C139.49 66.6579 135.137 73.8285 136.433 78.5827C137.73 83.3378 132.742 87.2415 139.575 87.9621C146.407 88.6831 134.133 99.7881 145.312 102.526L148.905 103.395Z" fill="#EBC54E"/>
<path d="M148.382 101.921C147.982 99.6265 147.456 97.3664 146.892 95.1213C146.311 92.88 145.665 90.6582 144.909 88.4752C144.167 86.2876 143.313 84.1392 142.358 82.0344C141.393 79.9347 140.33 77.875 139.127 75.8794C140.586 77.6971 141.848 79.6811 142.92 81.7608C144.002 83.8368 144.901 86.0052 145.666 88.2157C146.417 90.4321 147.037 92.6913 147.498 94.9818C147.965 97.2702 148.29 99.5907 148.382 101.921Z" fill="#E99A2F"/>
<path d="M147.445 102.551C147.445 102.551 141.239 95.9211 146.143 89.5211C151.046 83.1212 152.537 87.7109 154.319 78.2274C156.102 68.7435 156.734 64.8056 159.729 66.6029C162.723 68.4002 167.188 77.925 164.004 84.8822C160.819 91.8395 154.699 90.3354 156.251 95.8823C157.803 101.429 155.86 103.378 153.543 104.758C150.984 106.283 150.599 105.8 147.445 102.551Z" fill="#DA6ABC"/>
<path d="M151.048 104.176C150.802 103.47 150.649 102.734 150.526 101.996C150.403 101.256 150.317 100.51 150.268 99.759C150.184 98.2578 150.25 96.7392 150.512 95.2447C150.763 93.7485 151.227 92.2815 151.884 90.9007C152.549 89.5237 153.429 88.2453 154.481 87.1307C156.543 85.0443 158.156 82.5514 159.089 79.7761C160.017 77.0053 160.283 74.0009 159.903 71.0431C160.619 73.938 160.596 77.0607 159.74 79.9793C159.326 81.4418 158.691 82.8405 157.91 84.1467C157.125 85.4483 156.159 86.65 155.114 87.7317C153.103 89.819 151.795 92.5197 151.179 95.375C150.869 96.8041 150.712 98.2737 150.693 99.7494C150.664 101.226 150.767 102.713 151.048 104.176Z" fill="#C03491"/>
<path d="M139.547 110.775C139.547 114.026 141.684 116.661 144.319 116.661H155.635C158.271 116.661 160.408 114.026 160.408 110.775V101.948H139.547V110.775Z" fill="#171636"/>
<path d="M160.861 103.267H139.121V101.087H160.861V103.267Z" fill="#121028"/>
<path d="M14.4877 106.729C14.4877 106.729 23.3834 103.209 20.3182 98.7475C17.2541 94.2861 14.9114 95.8272 16.4188 91.7948C17.9256 87.7628 19.2272 86.128 15.8646 82.4096C12.5027 78.6913 10.5885 78.8949 10.4046 73.9703C10.2205 69.0453 4.92176 75.5473 5.5513 80.4357C6.18114 85.3236 0.703462 88.5034 7.37132 90.1583C14.0399 91.8127 0.353328 101.122 11.0488 105.372L14.4877 106.729Z" fill="#EBC54E"/>
<path d="M14.1734 105.197C14.0932 102.869 13.8832 100.558 13.6334 98.2566C13.3667 95.9569 13.033 93.6677 12.5846 91.401C12.1502 89.1317 11.6005 86.8862 10.9448 84.6703C10.2777 82.4573 9.50849 80.2709 8.5918 78.1283C9.78636 80.1301 10.7639 82.2686 11.5391 84.4762C12.3249 86.6813 12.9165 88.953 13.37 91.2481C13.8085 93.5465 14.1122 95.8699 14.2535 98.202C14.4001 100.533 14.4027 102.876 14.1734 105.197Z" fill="#E99A2F"/>
<path d="M5.85059 113.414C5.85059 116.664 7.62687 119.299 9.81768 119.299H19.2224C21.4133 119.299 23.1892 116.664 23.1892 113.414V104.586H5.85059V113.414Z" fill="#171636"/>
<path d="M23.5656 105.905H5.49658V103.725H23.5656V105.905Z" fill="#121028"/>
</svg>
