<?xml version="1.0" standalone="no"?>
<!DOCTYPE svg PUBLIC "-//W3C//DTD SVG 20010904//EN"
 "http://www.w3.org/TR/2001/REC-SVG-20010904/DTD/svg10.dtd">
<svg version="1.0" xmlns="http://www.w3.org/2000/svg"
 width="218.000000pt" height="231.000000pt" viewBox="0 0 218.000000 231.000000"
 preserveAspectRatio="xMidYMid meet">

<g transform="translate(0.000000,231.000000) scale(0.100000,-0.100000)"
fill="#000000" stroke="none">
<path d="M527 2033 c-4 -3 -7 -33 -7 -65 l0 -58 -160 0 -160 0 0 -170 0 -171
740 2 740 1 0 49 c0 39 -3 49 -17 51 -10 0 -22 2 -28 3 -5 2 -15 3 -21 4 -7 1
-10 15 -9 34 2 21 8 31 17 29 36 -10 48 -10 43 -1 -4 5 -1 9 4 9 7 0 11 30 11
80 l0 80 -160 0 -159 0 -3 63 c-3 54 -6 62 -24 65 -25 4 -34 -19 -34 -85 l0
-43 -250 0 c-206 0 -250 -2 -250 -14 0 -7 -6 -19 -14 -26 -8 -6 -12 -19 -9
-28 4 -15 3 -15 -7 -2 -9 11 -13 12 -17 3 -2 -7 -13 -13 -23 -13 -15 0 -17 -7
-15 -35 3 -34 -8 -55 -19 -36 -4 5 -2 12 4 16 5 3 10 13 10 21 0 8 -4 12 -10
9 -5 -3 -10 -1 -10 6 0 7 -3 9 -6 6 -4 -4 -1 -13 6 -22 10 -12 9 -16 -4 -21
-9 -3 -14 -9 -11 -14 2 -4 -6 -6 -18 -5 -18 2 -26 -4 -35 -29 -10 -26 -9 -28
2 -14 12 16 13 15 12 -10 -1 -16 -6 -29 -13 -29 -7 0 -10 5 -6 10 3 5 -3 6
-15 3 -37 -12 -82 -15 -87 -5 -4 5 -14 5 -25 -1 -24 -13 -30 -13 -30 1 0 5 4
8 9 4 5 -3 12 -1 15 4 4 5 2 12 -4 16 -5 3 -10 15 -10 26 0 25 -17 24 -25 -2
-4 -11 -9 -18 -12 -15 -3 3 7 26 21 51 15 25 25 49 22 53 -2 4 6 9 20 10 22 2
24 -2 24 -43 0 -32 5 -47 15 -51 25 -10 45 16 45 57 0 31 3 38 19 36 11 0 19
-6 18 -12 -1 -5 5 -8 13 -6 8 2 21 4 28 4 6 0 12 8 12 16 0 9 14 22 30 28 20
7 28 16 25 26 -5 10 2 13 24 12 17 -1 28 2 25 7 -3 4 -48 8 -100 8 l-94 0 0
49 c0 27 -3 56 -6 65 -6 16 -35 22 -47 9z m879 -231 c5 -4 10 -12 11 -18 1 -6
4 -23 7 -37 2 -15 2 -26 -2 -26 -22 4 -23 -4 -1 -28 13 -15 17 -22 8 -15 -9 6
-20 8 -24 4 -5 -4 -5 -1 -1 6 4 6 3 12 -1 12 -5 0 -15 -6 -21 -12 -18 -18
-141 -18 -135 0 4 10 9 10 19 1 8 -7 17 -9 21 -5 3 3 2 6 -4 6 -16 0 -36 56
-31 85 3 14 1 22 -4 18 -6 -3 -5 4 1 16 7 11 14 21 17 21 3 0 2 -6 -2 -12 -6
-10 -4 -10 7 0 24 22 35 13 31 -26 -3 -26 1 -42 12 -51 28 -23 46 -6 46 44 0
25 5 45 10 45 6 0 11 17 11 38 2 35 2 34 8 -11 4 -27 11 -51 17 -55z m-1189
-94 c-2 -24 -4 -5 -4 42 0 47 2 66 4 43 2 -24 2 -62 0 -85z m999 77 c-3 -12
-3 -25 1 -28 10 -11 12 -56 3 -62 -14 -9 -22 13 -11 33 6 11 7 23 3 26 -11 11
-11 67 0 60 5 -4 7 -16 4 -29z m-799 3 c-3 -8 -6 -5 -6 6 -1 11 2 17 5 13 3
-3 4 -12 1 -19z m34 -1 c-10 -9 -11 -8 -5 6 3 10 9 15 12 12 3 -3 0 -11 -7
-18z"/>
<path d="M1653 1698 c-1 -10 4 -18 12 -18 8 0 13 8 12 18 0 10 -6 19 -12 19
-6 0 -12 -9 -12 -19z"/>
<path d="M1615 1690 c3 -5 8 -10 11 -10 2 0 4 5 4 10 0 6 -5 10 -11 10 -5 0
-7 -4 -4 -10z"/>
<path d="M1270 1467 c-93 -32 -156 -71 -226 -143 -207 -209 -204 -546 5 -755
108 -108 232 -159 383 -159 172 1 272 42 388 159 111 112 160 228 160 381 0
245 -167 463 -403 526 -82 22 -230 18 -307 -9z m285 -47 c201 -52 335 -202
366 -413 13 -86 -4 -182 -47 -274 -34 -71 -139 -180 -209 -215 -60 -30 -166
-58 -221 -58 -221 0 -424 155 -479 365 -52 199 28 413 194 524 133 88 248 109
396 71z"/>
<path d="M1406 1315 c-4 -36 -4 -89 -2 -118 4 -42 3 -46 -4 -22 -8 25 -9 23
-5 -17 3 -28 0 -48 -5 -48 -6 0 -9 -19 -9 -42 l2 -43 7 35 7 35 2 -32 c0 -17
-6 -38 -14 -47 -8 -8 -15 -30 -15 -50 0 -27 6 -39 29 -55 15 -11 31 -18 35
-14 3 3 6 -1 6 -10 0 -12 9 -17 33 -17 21 0 28 -3 19 -9 -10 -6 6 -22 57 -60
39 -28 74 -51 78 -51 5 0 0 5 -9 10 -13 8 -15 17 -8 39 8 30 5 41 -13 41 -5 0
-6 -8 -2 -17 5 -14 4 -15 -6 -6 -10 10 -10 15 0 27 10 12 8 17 -9 26 -11 6
-18 15 -15 19 2 5 -3 15 -12 22 -14 12 -16 12 -8 0 5 -10 4 -12 -4 -7 -6 4 -9
11 -6 16 3 5 -4 22 -15 38 -18 24 -25 62 -42 225 -20 190 -22 197 -43 197 -20
0 -23 -7 -29 -65z m44 20 c0 -14 -2 -25 -4 -25 -2 0 -6 11 -8 25 -3 14 -1 25
3 25 5 0 9 -11 9 -25z m8 -271 l-3 -39 -5 47 c-3 26 -1 43 3 39 5 -5 7 -26 5
-47z m19 14 c-3 -7 -5 -2 -5 12 0 14 2 19 5 13 2 -7 2 -19 0 -25z m3 -80 c0
-18 -2 -20 -9 -8 -6 8 -7 18 -5 22 9 14 14 9 14 -14z m-83 -24 c-1 -15 4 -29
11 -31 8 -3 10 2 6 14 -5 15 -4 15 5 3 9 -12 11 -10 11 13 0 26 1 27 16 12 15
-15 15 -17 -2 -31 -24 -18 -62 -40 -52 -29 4 5 3 14 -3 21 -6 7 -8 22 -4 34 9
28 14 25 12 -6z m98 -14 c3 -5 1 -10 -4 -10 -6 0 -11 5 -11 10 0 6 2 10 4 10
3 0 8 -4 11 -10z m30 -120 c3 -6 -1 -7 -9 -4 -18 7 -21 14 -7 14 6 0 13 -4 16
-10z m52 -36 c20 -19 22 -24 7 -16 -21 11 -51 42 -41 42 3 0 19 -12 34 -26z"/>
<path d="M1132 1247 c-15 -17 12 -57 37 -57 27 0 35 29 15 51 -20 22 -37 24
-52 6z"/>
<path d="M1686 1239 c-17 -25 -11 -49 14 -49 24 0 52 34 44 54 -9 23 -40 20
-58 -5z"/>
<path d="M1022 971 c-25 -15 -9 -46 24 -49 38 -4 55 25 28 45 -21 15 -34 16
-52 4z"/>
<path d="M1797 973 c-16 -16 -6 -43 19 -49 29 -8 47 6 42 32 -3 17 -48 30 -61
17z"/>
<path d="M1142 698 c-17 -17 -15 -48 4 -55 21 -8 59 30 51 51 -7 19 -38 21
-55 4z"/>
<path d="M1687 703 c-14 -13 -6 -43 14 -53 41 -22 66 11 33 44 -16 17 -36 21
-47 9z"/>
<path d="M1417 593 c-14 -13 -7 -61 10 -67 25 -10 47 17 39 48 -6 25 -33 35
-49 19z"/>
<path d="M370 1228 c-40 -28 -70 -78 -69 -116 2 -32 19 -85 27 -78 2 3 13 -5
24 -17 l19 -22 -6 22 c-3 12 -1 25 6 29 8 4 9 3 5 -5 -4 -6 -3 -17 2 -24 6 -7
11 -16 11 -22 2 -11 46 -26 64 -20 47 13 48 14 36 36 -8 16 -8 20 0 14 7 -4
18 -1 26 5 11 9 15 9 15 1 0 -6 -4 -11 -10 -11 -5 0 -10 -6 -10 -12 1 -23 60
56 66 87 8 43 -22 103 -65 132 -44 30 -98 30 -141 1z m37 -10 c0 -7 -11 -14
-24 -14 -19 -2 -22 1 -12 12 14 17 36 18 36 2z m109 -15 c-7 -7 -26 7 -26 19
0 6 6 6 15 -2 9 -7 13 -15 11 -17z m-25 -10 c13 -16 12 -17 -3 -4 -10 7 -18
15 -18 17 0 8 8 3 21 -13z m-34 1 c-3 -3 -12 -4 -19 -1 -8 3 -5 6 6 6 11 1 17
-2 13 -5z m-103 -56 c-1 -24 1 -31 3 -15 4 26 6 27 74 27 48 0 69 4 69 13 0
25 20 -18 20 -44 0 -15 7 -30 16 -33 8 -3 12 -11 8 -17 -4 -8 -9 -7 -15 2 -8
12 -11 11 -19 -1 -6 -10 -10 -11 -10 -2 0 8 -17 12 -50 12 -27 0 -50 -4 -50
-10 0 -14 -27 -12 -33 3 -4 9 -8 8 -16 -3 -8 -11 -11 -1 -11 41 0 45 5 69 14
69 1 0 1 -19 0 -42z m216 -28 c0 -11 -4 -20 -9 -20 -5 0 -7 9 -4 20 3 11 7 20
9 20 2 0 4 -9 4 -20z m-243 -25 c0 -8 -4 -12 -9 -9 -4 3 -8 9 -8 15 0 5 4 9 8
9 5 0 9 -7 9 -15z m126 -72 c-7 -2 -19 -2 -25 0 -7 3 -2 5 12 5 14 0 19 -2 13
-5z m0 -20 c-7 -2 -19 -2 -25 0 -7 3 -2 5 12 5 14 0 19 -2 13 -5z"/>
<path d="M0 65 l0 -65 1090 0 1090 0 0 65 0 65 -1090 0 -1090 0 0 -65z m120
31 c6 -8 10 -25 8 -38 -4 -30 -46 -38 -65 -12 -17 23 -16 29 3 48 19 20 38 20
54 2z m111 -16 c37 0 58 4 54 10 -3 6 1 7 9 4 37 -14 6 -41 -49 -44 -72 -3
-105 0 -105 10 0 15 24 40 28 29 2 -5 31 -9 63 -9z m160 -1 c30 10 79 1 79
-15 0 -18 -51 -19 -69 -1 -9 7 -11 8 -7 1 4 -8 -5 -12 -28 -12 -19 0 -39 -3
-45 -6 -24 -15 -18 14 6 32 23 17 29 18 36 7 5 -10 14 -12 28 -6z m1279 -9 c0
-5 -8 -10 -17 -10 -15 0 -16 2 -3 10 19 12 20 12 20 0z m30 0 c0 -5 -2 -10 -4
-10 -3 0 -8 5 -11 10 -3 6 -1 10 4 10 6 0 11 -4 11 -10z m65 0 c3 -5 -1 -10
-9 -10 -9 0 -16 5 -16 10 0 6 4 10 9 10 6 0 13 -4 16 -10z m312 -4 c4 -3 -52
-5 -123 -5 -73 1 -112 4 -89 8 49 7 204 5 212 -3z m46 -3 c-7 -2 -19 -2 -25 0
-7 3 -2 5 12 5 14 0 19 -2 13 -5z"/>
<path d="M83 83 c-15 -6 -17 -33 -3 -33 6 0 9 5 8 11 -4 18 20 22 25 4 4 -13
5 -12 3 1 -1 19 -14 25 -33 17z"/>
</g>
</svg>
